<svg width="351" height="68" viewBox="0 0 351 68" fill="none" xmlns="http://www.w3.org/2000/svg">
<path d="M194.018 14.4142C191.13 12.1533 187.306 11.0181 182.542 11.0181C179.654 11.0181 176.832 11.3996 174.076 12.1626C171.321 12.9255 168.849 13.9397 166.656 15.2051L170.668 22.8673C172.54 21.8159 174.251 21.0529 175.802 20.5784C177.352 20.1039 178.931 19.8666 180.538 19.8666C182.409 19.8666 183.856 20.2481 184.872 21.011C185.888 21.774 186.399 22.8673 186.399 24.2862V26.3378H182.386C179.819 26.3378 177.399 26.5751 175.126 27.0496C172.852 27.5241 170.872 28.2592 169.189 29.2594C167.502 30.2596 166.164 31.5483 165.176 33.13C164.183 34.7118 163.692 36.6052 163.692 38.815C163.692 40.4479 163.971 41.9878 164.533 43.4346C165.096 44.8815 165.909 46.1329 166.982 47.1843C168.05 48.2357 169.402 49.0777 171.032 49.7104C172.663 50.3431 174.577 50.6595 176.771 50.6595C179.337 50.6595 181.573 50.2268 183.473 49.3569C184.664 48.8126 185.695 48.1659 186.564 47.4216V49.7895H198.357V25.2259C198.357 20.276 196.911 16.6705 194.023 14.4049L194.018 14.4142ZM186.474 38.8197C186.044 39.7175 185.312 40.5316 184.267 41.2667C183.222 42.0064 182.06 42.3739 180.779 42.3739C179.498 42.3739 178.359 42.0715 177.366 41.4668C176.374 40.862 175.882 39.7408 175.882 38.1079C175.882 37.531 176.014 36.9634 176.284 36.4098C176.548 35.8562 176.993 35.3817 177.607 34.9862C178.222 34.5908 179.039 34.2651 180.056 34C181.072 33.7394 182.329 33.5813 183.827 33.5255L186.474 33.4463V38.815V38.8197Z" fill="#180063"/>
<path d="M75.4308 50.6641C74.0932 50.6641 72.7839 50.5199 71.4983 50.2315C70.2126 49.943 69.1727 49.5895 68.3692 49.1661V67.961H56.5762V11.8881H65.4009L66.5258 15.9169C68.0761 14.391 69.8817 13.1907 71.9426 12.3254C74.0034 11.4554 76.2627 11.0228 78.7206 11.0228C81.1785 11.0228 83.4283 11.4694 85.4608 12.3673C87.4933 13.2651 89.2043 14.5398 90.594 16.196C91.9836 17.8522 93.066 19.8666 93.8412 22.2392C94.6164 24.6072 95.0039 27.2403 95.0039 30.1386C95.0039 33.4045 94.4935 36.3121 93.4772 38.8662C92.461 41.4202 91.0714 43.5649 89.3036 45.3048C87.5358 47.0447 85.4655 48.3706 83.0833 49.2917C80.7011 50.2129 78.1487 50.6734 75.4214 50.6734L75.4308 50.6641ZM75.3505 19.7038C73.7434 19.7038 72.3254 20.0713 71.0965 20.811C69.8628 21.5507 68.9553 22.2857 68.3692 23.0208V40.3967C69.7068 41.5551 71.5502 42.132 73.9041 42.132C74.9723 42.132 76.0453 41.9226 77.1135 41.4993C78.1818 41.0806 79.1318 40.4061 79.9637 39.4849C80.7909 38.5638 81.4762 37.3682 82.0104 35.8934C82.5445 34.4187 82.8139 32.6043 82.8139 30.4457C82.8139 27.445 82.1711 24.9049 80.8901 22.8254C79.6045 20.7459 77.7611 19.7038 75.3552 19.7038H75.3505Z" fill="#180063"/>
<path d="M144.591 49.7942V0.0389404H156.304V49.7942H144.591Z" fill="#180063"/>
<path d="M231.652 20.2574H221.782V36.2888C221.782 38.0241 222.17 39.2383 222.945 39.9222C223.72 40.6061 224.803 40.9503 226.192 40.9503C227.261 40.9503 228.334 40.8433 229.402 40.634C230.47 40.4246 231.302 40.1362 231.888 39.764L233.651 47.7425C232.739 48.2171 231.363 48.6776 229.52 49.1242C227.677 49.5708 225.71 49.7942 223.621 49.7942C218.644 49.7942 215.127 48.8451 213.071 46.9517C211.01 45.0582 209.98 42.1878 209.98 38.3451V20.262H203.963V11.8927H209.98V0.364563H221.773V11.8927H231.642V20.262L231.652 20.2574Z" fill="#180063"/>
<path d="M218.668 3.10474H213.1V11.5764H218.668V3.10474Z" fill="#FFD400"/>
<path d="M238.95 49.7942V11.8881H248.257L249.462 18.5221C249.944 17.5731 250.53 16.638 251.225 15.7168C251.92 14.7957 252.752 13.9909 253.711 13.307C254.676 12.6231 255.782 12.0695 257.039 11.6508C258.296 11.2321 259.7 11.0181 261.25 11.0181C262.427 11.0181 263.51 11.1623 264.498 11.4508C265.486 11.7392 266.275 12.0695 266.866 12.437L264.942 21.5181C264.351 21.2018 263.604 20.9133 262.697 20.6482C261.785 20.3876 260.664 20.2527 259.327 20.2527C256.864 20.2527 254.817 21.0436 253.187 22.6207C251.556 24.2025 250.738 26.9379 250.738 30.8318V49.7849H238.945L238.95 49.7942Z" fill="#180063"/>
<path d="M326.01 49.7942H314.137V11.8881H323.363L324.729 16.6287C326.44 14.8934 328.369 13.521 330.505 12.5208C332.646 11.5206 334.972 11.0181 337.486 11.0181C341.821 11.0181 345.134 12.1765 347.436 14.4933C349.733 16.8101 350.887 20.2062 350.887 24.6816V49.7942H339.013V25.8633C339.013 24.021 338.574 22.5602 337.69 21.4809C336.806 20.4016 335.511 19.8619 333.8 19.8619C332.514 19.8619 331.162 20.2295 329.749 20.9692C328.331 21.7089 327.088 22.6812 326.02 23.8907V49.7942H326.01Z" fill="#180063"/>
<path d="M305.312 22.1555C304.296 19.7363 302.907 17.694 301.139 16.0332C299.371 14.3724 297.272 13.1256 294.838 12.2835C292.404 11.4415 289.771 11.0181 286.935 11.0181C286.935 11.0181 286.935 11.0181 286.93 11.0181C286.93 11.0181 286.93 11.0181 286.926 11.0181C284.09 11.0181 281.443 11.4787 278.98 12.3998C276.518 13.321 274.381 14.6515 272.561 16.3868C270.742 18.122 269.309 20.2574 268.27 22.7835C267.357 24.9933 266.856 27.4683 266.743 30.1991C266.743 30.2038 266.743 30.2084 266.743 30.2131C266.733 30.4224 266.724 30.6271 266.719 30.8411H266.729C266.729 31.0272 266.719 31.2087 266.719 31.3947C266.719 34.4466 267.225 37.1728 268.246 39.5687C269.262 41.9645 270.652 43.9789 272.42 45.6119C274.183 47.2448 276.281 48.4962 278.72 49.3615C281.154 50.2315 283.787 50.6641 286.623 50.6641C289.459 50.6641 292.106 50.2036 294.569 49.2824C297.027 48.3613 299.168 47.0308 300.988 45.2955C302.807 43.5602 304.235 41.4528 305.279 38.9778C306.324 36.5028 306.844 33.7115 306.844 30.6085C306.844 27.5055 306.333 24.5793 305.317 22.1601L305.312 22.1555ZM293.997 36.2144C293.567 37.638 292.995 38.7824 292.272 39.6477C291.548 40.5177 290.721 41.1504 289.785 41.5412C288.85 41.9366 287.871 42.132 286.855 42.132C284.77 42.132 282.922 41.2388 281.32 39.4477C279.713 37.6566 278.914 34.842 278.914 30.9993C278.914 30.8318 278.914 30.669 278.919 30.5062C278.947 30.148 279.311 21.7554 286.685 21.7554C291.525 21.7554 293.505 25.426 294.238 28.2266C294.526 29.3245 294.621 30.2875 294.625 30.8411H294.635C294.635 30.8923 294.635 30.9435 294.635 30.9993C294.635 33.0509 294.422 34.7908 293.992 36.2098L293.997 36.2144Z" fill="#180063"/>
<path d="M297.353 27.7753H303.549C303.351 26.1331 302.977 24.6398 302.42 23.3232C301.574 21.3088 300.416 19.6014 298.974 18.2523C297.537 16.9031 295.798 15.8704 293.794 15.1772C291.7 14.4561 289.388 14.0886 286.926 14.0886C284.463 14.0886 282.185 14.484 280.091 15.2702C278.04 16.0378 276.239 17.1544 274.736 18.5919C273.237 20.0248 272.032 21.8252 271.158 23.9419C270.675 25.1143 270.321 26.3936 270.104 27.78H276.277C276.622 26.5332 277.16 25.184 277.912 23.9373C279.944 20.5551 283.064 18.6942 286.694 18.6942C293.108 18.6942 296.322 23.4674 297.362 27.78L297.353 27.7753Z" fill="#33BAFF"/>
<path d="M153.204 3.10474H147.707V11.5578H153.204V3.10474Z" fill="#FFD400"/>
<path d="M322.82 38.2614H317.252V46.733H322.82V38.2614Z" fill="#FFD400"/>
<path d="M347.772 38.2614H342.204V46.733H347.772V38.2614Z" fill="#FFD400"/>
<path d="M247.633 38.2614H242.065V46.733H247.633V38.2614Z" fill="#FFD400"/>
<path d="M195.242 38.2614H189.674V46.733H195.242V38.2614Z" fill="#FFD400"/>
<path d="M65.2545 56.4236H59.6865V64.8952H65.2545V56.4236Z" fill="#FFD400"/>
<path d="M137.053 28.208C137.053 18.2151 128.79 10.083 118.638 10.083C110.172 10.083 103.025 15.7354 100.884 23.4069C100.884 23.4069 100.875 23.4395 100.861 23.4953C100.567 24.5607 100.374 25.6632 100.289 26.7937C99.8065 30.669 99.6411 37.0332 102.713 41.4435C102.723 41.4574 102.732 41.4714 102.746 41.49C103.786 43.2532 105.067 44.7605 106.608 46.0026C108.56 47.5844 110.834 48.7567 113.429 49.515C116.024 50.278 118.765 50.6595 121.653 50.6595C124.863 50.6595 127.576 50.3943 129.797 49.8686C132.019 49.3429 133.848 48.7381 135.294 48.0542L133.129 40.0013C132.005 40.5828 130.615 41.0806 128.956 41.5039C127.297 41.9273 125.373 42.1367 123.18 42.1367C120.022 42.1367 117.404 41.5319 115.315 40.3223C113.23 39.1127 112.186 37.1914 112.186 34.5582V34.2419H137.062V29.2687C137.062 28.9616 137.057 28.6639 137.048 28.3661C137.053 28.315 137.062 28.2684 137.062 28.2173L137.053 28.208ZM111.774 27.1984C112.28 23.5418 115.48 21.4762 118.638 21.4762C121.795 21.4762 124.929 23.7558 125.458 27.1984H111.779H111.774Z" fill="#180063"/>
<path d="M32.2623 0.0389404H19.264L0.886719 49.7942H14.7548L18.5077 39.1314H34.1104L37.5609 49.7942H50.4789L32.2623 0.0389404ZM21.5611 30.4457L26.7038 15.8285C26.9259 16.5961 27.1575 17.3823 27.4033 18.2058C28.0698 20.4156 28.7268 22.4997 29.3696 24.4444L31.2933 30.4457H21.5564H21.5611Z" fill="#180063"/>
<path d="M21.4429 3.10474L5.33447 46.7284H12.5379L27.8854 3.10474H21.4429Z" fill="#33BAFF"/>
<path d="M118.637 13.1907C110.758 13.1907 104.259 19.6433 103.465 27.1938H108.674C109.425 22.8393 113.051 18.3639 118.637 18.3639C124.224 18.3639 127.812 22.8393 128.568 27.1938H133.81C133.016 19.6433 126.512 13.1907 118.637 13.1907Z" fill="#33BAFF"/>
</svg>
