<svg width="351" height="74" viewBox="0 0 351 74" fill="none" xmlns="http://www.w3.org/2000/svg">
<path d="M194.018 20.4142C191.13 18.1533 187.306 17.0181 182.542 17.0181C179.654 17.0181 176.832 17.3996 174.076 18.1626C171.321 18.9255 168.849 19.9397 166.656 21.2051L170.668 28.8673C172.54 27.8159 174.251 27.0529 175.802 26.5784C177.352 26.1039 178.931 25.8666 180.538 25.8666C182.409 25.8666 183.856 26.2481 184.872 27.011C185.888 27.774 186.399 28.8673 186.399 30.2862V32.3378H182.386C179.819 32.3378 177.399 32.5751 175.126 33.0496C172.852 33.5241 170.872 34.2591 169.189 35.2594C167.502 36.2596 166.164 37.5483 165.176 39.13C164.183 40.7118 163.692 42.6052 163.692 44.815C163.692 46.4479 163.971 47.9878 164.533 49.4346C165.096 50.8815 165.909 52.1329 166.982 53.1843C168.05 54.2357 169.402 55.0777 171.032 55.7104C172.663 56.3431 174.577 56.6595 176.771 56.6595C179.337 56.6595 181.573 56.2268 183.473 55.3569C184.664 54.8126 185.695 54.1659 186.564 53.4216V55.7895H198.357V31.2259C198.357 26.276 196.911 22.6705 194.023 20.4049L194.018 20.4142ZM186.474 44.8197C186.044 45.7175 185.312 46.5316 184.267 47.2667C183.222 48.0064 182.06 48.3739 180.779 48.3739C179.498 48.3739 178.359 48.0715 177.366 47.4668C176.374 46.862 175.882 45.7408 175.882 44.1079C175.882 43.531 176.014 42.9634 176.284 42.4098C176.548 41.8562 176.993 41.3817 177.607 40.9862C178.222 40.5908 179.039 40.2651 180.056 40C181.072 39.7394 182.329 39.5813 183.827 39.5255L186.474 39.4464V44.815V44.8197Z" fill="#180063"/>
<path d="M75.4308 56.6641C74.0932 56.6641 72.7839 56.5199 71.4983 56.2315C70.2126 55.943 69.1727 55.5895 68.3692 55.1661V73.961H56.5762V17.8881H65.4009L66.5258 21.9169C68.0761 20.391 69.8817 19.1907 71.9426 18.3254C74.0034 17.4554 76.2627 17.0228 78.7206 17.0228C81.1785 17.0228 83.4283 17.4694 85.4608 18.3673C87.4933 19.2651 89.2043 20.5398 90.594 22.196C91.9836 23.8522 93.066 25.8666 93.8412 28.2392C94.6164 30.6072 95.0039 33.2403 95.0039 36.1386C95.0039 39.4045 94.4935 42.3121 93.4772 44.8662C92.461 47.4202 91.0714 49.5649 89.3036 51.3048C87.5358 53.0447 85.4655 54.3706 83.0833 55.2917C80.7011 56.2129 78.1487 56.6734 75.4214 56.6734L75.4308 56.6641ZM75.3505 25.7038C73.7434 25.7038 72.3254 26.0713 71.0965 26.811C69.8628 27.5507 68.9553 28.2857 68.3692 29.0208V46.3967C69.7068 47.5551 71.5502 48.132 73.9041 48.132C74.9723 48.132 76.0453 47.9226 77.1135 47.4993C78.1818 47.0806 79.1318 46.4061 79.9637 45.4849C80.7909 44.5638 81.4762 43.3682 82.0104 41.8934C82.5445 40.4187 82.8139 38.6043 82.8139 36.4457C82.8139 33.445 82.1711 30.9049 80.8901 28.8254C79.6045 26.7459 77.7611 25.7038 75.3552 25.7038H75.3505Z" fill="#180063"/>
<path d="M144.591 55.7942V6.03894H156.304V55.7942H144.591Z" fill="#180063"/>
<path d="M231.652 26.2574H221.782V42.2888C221.782 44.0241 222.17 45.2383 222.945 45.9222C223.72 46.6061 224.803 46.9503 226.192 46.9503C227.261 46.9503 228.334 46.8433 229.402 46.634C230.47 46.4246 231.302 46.1362 231.888 45.764L233.651 53.7425C232.739 54.2171 231.363 54.6776 229.52 55.1242C227.677 55.5708 225.71 55.7942 223.621 55.7942C218.644 55.7942 215.127 54.8451 213.071 52.9517C211.01 51.0582 209.98 48.1878 209.98 44.3451V26.262H203.963V17.8927H209.98V6.36456H221.773V17.8927H231.642V26.262L231.652 26.2574Z" fill="#180063"/>
<path d="M218.668 9.10474H213.1V17.5764H218.668V9.10474Z" fill="#FFD400"/>
<path d="M238.95 55.7942V17.8881H248.257L249.462 24.5221C249.944 23.5731 250.53 22.638 251.225 21.7168C251.92 20.7957 252.752 19.9909 253.711 19.307C254.676 18.6231 255.782 18.0695 257.039 17.6508C258.296 17.2321 259.7 17.0181 261.25 17.0181C262.427 17.0181 263.51 17.1623 264.498 17.4508C265.486 17.7392 266.275 18.0695 266.866 18.437L264.942 27.5181C264.351 27.2018 263.604 26.9133 262.697 26.6482C261.785 26.3876 260.664 26.2527 259.327 26.2527C256.864 26.2527 254.817 27.0436 253.187 28.6207C251.556 30.2025 250.738 32.9379 250.738 36.8318V55.7849H238.945L238.95 55.7942Z" fill="#180063"/>
<path d="M326.01 55.7942H314.137V17.8881H323.363L324.729 22.6287C326.44 20.8934 328.369 19.521 330.505 18.5208C332.646 17.5206 334.972 17.0181 337.486 17.0181C341.821 17.0181 345.134 18.1765 347.436 20.4933C349.733 22.8101 350.887 26.2062 350.887 30.6816V55.7942H339.013V31.8633C339.013 30.021 338.574 28.5602 337.69 27.4809C336.806 26.4016 335.511 25.8619 333.8 25.8619C332.514 25.8619 331.162 26.2295 329.749 26.9692C328.331 27.7089 327.088 28.6812 326.02 29.8907V55.7942H326.01Z" fill="#180063"/>
<path d="M305.312 28.1555C304.296 25.7363 302.907 23.694 301.139 22.0332C299.371 20.3724 297.272 19.1256 294.838 18.2835C292.404 17.4415 289.771 17.0181 286.935 17.0181C286.935 17.0181 286.935 17.0181 286.93 17.0181C286.93 17.0181 286.93 17.0181 286.926 17.0181C284.09 17.0181 281.443 17.4787 278.98 18.3998C276.518 19.321 274.381 20.6515 272.561 22.3868C270.742 24.122 269.309 26.2574 268.27 28.7835C267.357 30.9933 266.856 33.4683 266.743 36.1991C266.743 36.2038 266.743 36.2084 266.743 36.2131C266.733 36.4224 266.724 36.6271 266.719 36.8411H266.729C266.729 37.0272 266.719 37.2087 266.719 37.3947C266.719 40.4466 267.225 43.1728 268.246 45.5687C269.262 47.9645 270.652 49.9789 272.42 51.6119C274.183 53.2448 276.281 54.4962 278.72 55.3615C281.154 56.2315 283.787 56.6641 286.623 56.6641C289.459 56.6641 292.106 56.2036 294.569 55.2824C297.027 54.3613 299.168 53.0308 300.988 51.2955C302.807 49.5602 304.235 47.4528 305.279 44.9778C306.324 42.5028 306.844 39.7115 306.844 36.6085C306.844 33.5055 306.333 30.5793 305.317 28.1601L305.312 28.1555ZM293.997 42.2144C293.567 43.638 292.995 44.7824 292.272 45.6477C291.548 46.5177 290.721 47.1504 289.785 47.5412C288.85 47.9366 287.871 48.132 286.855 48.132C284.77 48.132 282.922 47.2388 281.32 45.4477C279.713 43.6566 278.914 40.842 278.914 36.9993C278.914 36.8318 278.914 36.669 278.919 36.5062C278.947 36.148 279.311 27.7554 286.685 27.7554C291.525 27.7554 293.505 31.426 294.238 34.2266C294.526 35.3245 294.621 36.2875 294.625 36.8411H294.635C294.635 36.8923 294.635 36.9435 294.635 36.9993C294.635 39.0509 294.422 40.7908 293.992 42.2098L293.997 42.2144Z" fill="#180063"/>
<path d="M289.323 12.2049H281.265L286.795 0.0389404H298.092L289.323 12.2049Z" fill="#180063"/>
<path d="M297.353 33.7753H303.549C303.351 32.1331 302.977 30.6398 302.42 29.3232C301.574 27.3088 300.416 25.6014 298.974 24.2523C297.537 22.9031 295.798 21.8704 293.794 21.1772C291.7 20.4561 289.388 20.0886 286.926 20.0886C284.463 20.0886 282.185 20.484 280.091 21.2702C278.04 22.0378 276.239 23.1544 274.736 24.5919C273.237 26.0248 272.032 27.8252 271.158 29.9419C270.675 31.1143 270.321 32.3936 270.104 33.78H276.277C276.622 32.5332 277.16 31.184 277.912 29.9373C279.944 26.5551 283.064 24.6942 286.694 24.6942C293.108 24.6942 296.322 29.4674 297.362 33.78L297.353 33.7753Z" fill="#33BAFF"/>
<path d="M153.204 9.10474H147.707V17.5578H153.204V9.10474Z" fill="#FFD400"/>
<path d="M322.82 44.2614H317.252V52.733H322.82V44.2614Z" fill="#FFD400"/>
<path d="M347.772 44.2614H342.204V52.733H347.772V44.2614Z" fill="#FFD400"/>
<path d="M247.633 44.2614H242.065V52.733H247.633V44.2614Z" fill="#FFD400"/>
<path d="M195.242 44.2614H189.674V52.733H195.242V44.2614Z" fill="#FFD400"/>
<path d="M65.2545 62.4236H59.6865V70.8952H65.2545V62.4236Z" fill="#FFD400"/>
<path d="M137.053 34.208C137.053 24.2151 128.79 16.083 118.638 16.083C110.172 16.083 103.025 21.7354 100.884 29.4069C100.884 29.4069 100.875 29.4395 100.861 29.4953C100.567 30.5607 100.374 31.6632 100.289 32.7937C99.8065 36.669 99.6411 43.0332 102.713 47.4435C102.723 47.4574 102.732 47.4714 102.746 47.49C103.786 49.2532 105.067 50.7605 106.608 52.0026C108.56 53.5844 110.834 54.7567 113.429 55.515C116.024 56.278 118.765 56.6595 121.653 56.6595C124.863 56.6595 127.576 56.3943 129.797 55.8686C132.019 55.3429 133.848 54.7381 135.294 54.0542L133.129 46.0013C132.005 46.5828 130.615 47.0806 128.956 47.5039C127.297 47.9273 125.373 48.1367 123.18 48.1367C120.022 48.1367 117.404 47.5319 115.315 46.3223C113.23 45.1127 112.186 43.1914 112.186 40.5582V40.2419H137.062V35.2687C137.062 34.9616 137.057 34.6639 137.048 34.3661C137.053 34.315 137.062 34.2684 137.062 34.2173L137.053 34.208ZM111.774 33.1984C112.28 29.5418 115.48 27.4762 118.638 27.4762C121.795 27.4762 124.929 29.7558 125.458 33.1984H111.779H111.774Z" fill="#180063"/>
<path d="M32.2623 6.03894H19.264L0.886719 55.7942H14.7548L18.5077 45.1314H34.1104L37.5609 55.7942H50.4789L32.2623 6.03894ZM21.5611 36.4457L26.7038 21.8285C26.9259 22.5961 27.1575 23.3823 27.4033 24.2058C28.0698 26.4156 28.7268 28.4997 29.3696 30.4444L31.2934 36.4457H21.5564H21.5611Z" fill="#180063"/>
<path d="M21.4429 9.10474L5.33447 52.7284H12.5379L27.8854 9.10474H21.4429Z" fill="#33BAFF"/>
<path d="M118.637 19.1907C110.758 19.1907 104.259 25.6433 103.465 33.1938H108.674C109.425 28.8393 113.051 24.3639 118.637 24.3639C124.224 24.3639 127.812 28.8393 128.568 33.1938H133.81C133.016 25.6433 126.512 19.1907 118.637 19.1907Z" fill="#33BAFF"/>
</svg>