<svg width="236" height="190" viewBox="0 0 236 190" fill="none" xmlns="http://www.w3.org/2000/svg">
<g clip-path="url(#clip0_312_6817)">
<mask id="mask0_312_6817" style="mask-type:alpha" maskUnits="userSpaceOnUse" x="-34" y="-34" width="325" height="227">
<rect x="-33.6982" y="-33.6981" width="324.075" height="226.566" fill="#D9D9D9"/>
</mask>
<g mask="url(#mask0_312_6817)">
<path d="M151.012 79.0575H163.914V71.4837H147.043" fill="#FFD400"/>
<path d="M163.914 80.3009H151.012C150.327 80.3009 149.769 79.7432 149.769 79.0575C149.769 78.3719 150.327 77.8142 151.012 77.8142H162.671V72.7271H147.047C146.362 72.7271 145.805 72.1693 145.805 71.4837C145.805 70.7981 146.362 70.2404 147.047 70.2404H163.914C164.599 70.2404 165.156 70.7981 165.156 71.4837V79.0575C165.156 79.7432 164.599 80.3009 163.914 80.3009Z" fill="#180063"/>
<path d="M163.914 67.5441V83.0008C168.176 83.0008 171.633 79.5407 171.633 75.2742C171.633 71.0077 168.176 67.5476 163.914 67.5476V67.5441Z" fill="#180063"/>
<path d="M163.914 84.2441C163.229 84.2441 162.671 83.6864 162.671 83.0008V67.5441C162.671 66.8585 163.229 66.3007 163.914 66.3007C168.854 66.3007 172.876 70.3256 172.876 75.2707C172.876 80.2157 168.854 84.2406 163.914 84.2406V84.2441ZM165.156 68.9082V81.6366C168.137 81.054 170.391 78.4217 170.391 75.2707C170.391 72.1196 168.134 69.4873 165.156 68.9047V68.9082Z" fill="#180063"/>
<path d="M51.6573 79.0575H38.7554V71.4837H55.622" fill="#FFD400"/>
<path d="M51.6574 80.3009H38.7555C38.0704 80.3009 37.5132 79.7432 37.5132 79.0575V71.4837C37.5132 70.7981 38.0704 70.2404 38.7555 70.2404H55.6221C56.3071 70.2404 56.8644 70.7981 56.8644 71.4837C56.8644 72.1693 56.3071 72.7271 55.6221 72.7271H39.9977V77.8142H51.6574C52.3425 77.8142 52.8997 78.3719 52.8997 79.0575C52.8997 79.7432 52.3425 80.3009 51.6574 80.3009Z" fill="#180063"/>
<path d="M38.7555 67.5441V83.0008C34.4927 83.0008 31.0356 79.5407 31.0356 75.2742C31.0356 71.0077 34.4927 67.5476 38.7555 67.5476V67.5441Z" fill="#180063"/>
<path d="M38.7556 84.2441C33.8149 84.2441 29.7935 80.2192 29.7935 75.2742C29.7935 70.3292 33.8149 66.3043 38.7556 66.3043C39.4407 66.3043 39.9979 66.862 39.9979 67.5476V83.0043C39.9979 83.6899 39.4407 84.2477 38.7556 84.2477V84.2441ZM37.5133 68.9082C34.5319 69.4908 32.278 72.1232 32.278 75.2742C32.278 78.4252 34.5354 81.0576 37.5133 81.6402V68.9118V68.9082Z" fill="#180063"/>
<path d="M61.731 126.696C61.731 126.696 70.2353 123.463 101.335 123.463C132.434 123.463 140.797 126.341 140.797 126.341C140.797 126.341 132.569 131.74 101.335 131.74C70.1004 131.74 61.731 126.696 61.731 126.696Z" fill="#180063"/>
<path d="M126.198 117.84H76.4712V131.382H126.198V117.84Z" fill="#FFD400"/>
<path d="M76.1978 130.39C76.1978 130.39 82.1643 118.937 112.905 118.937C76.8295 118.937 76.1978 119.143 76.1978 119.143V130.387V130.39Z" fill="#180063"/>
<path d="M76.1978 131.63C76.0985 131.63 75.9955 131.62 75.8926 131.591C75.3425 131.453 74.9556 130.959 74.9556 130.39V119.147C74.9556 118.611 75.2999 118.134 75.811 117.964C76.0346 117.889 76.6309 117.694 112.905 117.694C113.591 117.694 114.148 118.252 114.148 118.937C114.148 119.623 113.591 120.181 112.905 120.181C104.401 120.181 92.4646 121.122 83.8822 125.616C78.8102 128.27 77.3124 130.948 77.2982 130.973C77.0781 131.382 76.6486 131.627 76.2014 131.627L76.1978 131.63ZM77.4401 120.344V127.03C79.6798 124.973 83.8148 122.206 91.0626 120.22C82.5761 120.255 78.9699 120.309 77.4401 120.344Z" fill="#180063"/>
<path d="M137.126 54.535C116.292 37.7781 86.3775 37.7781 65.5427 54.535C52.552 64.9828 41.0059 82.9368 41.0059 113.758C41.0059 118.071 93.7957 119.151 101.335 119.151C108.873 119.151 161.663 118.071 161.663 113.758C161.663 82.9368 150.117 64.9828 137.126 54.535Z" fill="#33BAFF"/>
<path d="M101.335 120.39C97.7001 120.39 82.5088 120.124 68.2722 119.31C41.943 117.804 39.7637 115.825 39.7637 113.758C39.7637 99.3562 42.2908 86.6456 47.2777 75.9811C51.4305 67.1 57.3118 59.5617 64.7655 53.5652C75.0622 45.2844 88.0494 40.7231 101.335 40.7231C114.62 40.7231 127.607 45.2844 137.904 53.5652C145.358 59.5582 151.239 67.1 155.392 75.9811C160.378 86.6456 162.906 99.3562 162.906 113.758C162.906 115.825 160.726 117.808 134.397 119.31C120.157 120.124 104.966 120.39 101.335 120.39ZM42.2482 113.477C42.9972 113.999 47.1606 115.68 70.015 116.92C83.7617 117.662 97.9805 117.907 101.335 117.907C104.689 117.907 118.911 117.666 132.654 116.92C155.509 115.683 159.672 113.999 160.421 113.477C160.364 87.8072 152.265 68.3043 136.346 55.5048C126.489 47.5758 114.056 43.2098 101.331 43.2098C88.6066 43.2098 76.1732 47.5758 66.3201 55.5048C50.4047 68.3078 42.305 87.8108 42.2447 113.477H42.2482Z" fill="#180063"/>
<path d="M76.1978 131.634C75.5128 131.634 74.9556 131.076 74.9556 130.39V119.147C74.9556 118.461 75.5128 117.904 76.1978 117.904C76.8829 117.904 77.4401 118.461 77.4401 119.147V130.39C77.4401 131.076 76.8829 131.634 76.1978 131.634Z" fill="#180063"/>
<path d="M126.471 131.634C125.786 131.634 125.229 131.076 125.229 130.39V119.147C125.229 118.461 125.786 117.904 126.471 117.904C127.156 117.904 127.714 118.461 127.714 119.147V130.39C127.714 131.076 127.156 131.634 126.471 131.634Z" fill="#180063"/>
<path d="M54.9197 134.238C54.9197 134.238 41.5669 133.151 40.0407 146.295C38.5145 159.439 48.9106 164.501 48.9106 164.501" fill="#180063"/>
<path d="M48.907 165.744C48.726 165.744 48.5415 165.705 48.364 165.62C48.2504 165.567 37.1906 160.011 38.802 146.153C40.4489 131.982 54.87 132.987 55.0155 133.001C55.7006 133.058 56.2081 133.655 56.1549 134.341C56.0981 135.026 55.4982 135.534 54.8168 135.481C54.2915 135.442 42.6353 134.689 41.2688 146.444C39.8668 158.512 49.0597 163.197 49.4537 163.393C50.0677 163.695 50.3232 164.441 50.0216 165.055C49.805 165.496 49.3649 165.751 48.907 165.751V165.744Z" fill="#180063"/>
<path d="M40.6258 143.382C40.6258 143.382 5.63965 150.597 5.63965 199.997H24.9802C24.9802 199.997 22.8399 174.356 45.6659 162.174" fill="#FFD400"/>
<path d="M24.9767 201.241H5.63974C4.95471 201.241 4.39746 200.683 4.39746 199.997C4.39746 188.558 6.27153 178.405 9.96643 169.819C12.9408 162.91 17.0865 156.998 22.297 152.245C31.1952 144.131 40.0048 142.241 40.3775 142.163C41.0483 142.021 41.7049 142.458 41.8434 143.13C41.9818 143.801 41.5488 144.458 40.8779 144.597C40.7927 144.614 32.2636 146.465 23.8658 154.174C12.9869 164.16 7.12693 179.553 6.88557 198.75H23.6812C23.6422 196.416 23.8125 191.301 25.5659 185.301C27.7488 177.833 32.9025 167.567 45.0768 161.073C45.6838 160.75 46.4363 160.981 46.7592 161.585C47.0822 162.188 46.8515 162.945 46.2481 163.268C37.1156 168.142 30.9681 175.759 27.9795 185.912C25.7328 193.546 26.2119 199.827 26.2155 199.891C26.2439 200.235 26.1267 200.58 25.8889 200.836C25.6547 201.091 25.321 201.237 24.9767 201.237V201.241Z" fill="#180063"/>
<path d="M25.2221 194.125H25.2043C15.1205 193.979 6.37844 191.141 6.01285 191.02C5.35977 190.807 5.00838 190.104 5.22134 189.45C5.43431 188.796 6.13708 188.445 6.79017 188.658C6.87535 188.686 15.55 191.5 25.2434 191.638C25.9284 191.649 26.4785 192.214 26.4679 192.899C26.4572 193.581 25.9035 194.125 25.2256 194.125H25.2221Z" fill="#180063"/>
<path d="M26.4358 186.118C26.3755 186.118 26.3116 186.114 26.2477 186.104C17.0406 184.715 9.09355 181.098 7.59216 180.388C6.97102 180.093 6.70837 179.354 6.99942 178.732C7.29401 178.111 8.03228 177.848 8.65342 178.139C10.098 178.825 17.754 182.306 26.6168 183.645C27.2947 183.748 27.7633 184.381 27.6603 185.059C27.568 185.674 27.0392 186.118 26.4322 186.118H26.4358Z" fill="#180063"/>
<path d="M29.7369 178.476C29.6233 178.476 29.5097 178.462 29.3961 178.43C19.5502 175.624 11.699 170.437 11.3689 170.217C10.7974 169.837 10.6448 169.066 11.0246 168.494C11.4044 167.922 12.1746 167.766 12.746 168.146C12.8241 168.199 20.6185 173.34 30.0776 176.036C30.7378 176.224 31.1211 176.913 30.933 177.574C30.7768 178.121 30.2799 178.476 29.7404 178.476H29.7369Z" fill="#180063"/>
<path d="M33.1264 172.061C32.9028 172.061 32.6792 172 32.4768 171.876C23.7631 166.501 17.6085 159.378 17.3494 159.077C16.9022 158.554 16.9625 157.773 17.4843 157.325C18.006 156.878 18.7905 156.938 19.2377 157.46C19.298 157.531 25.4065 164.597 33.783 169.759C34.3687 170.118 34.5497 170.885 34.1876 171.471C33.9534 171.851 33.5452 172.064 33.1299 172.064L33.1264 172.061Z" fill="#180063"/>
<path d="M39.8845 166.608C39.5722 166.608 39.2598 166.49 39.0185 166.256C31.8771 159.293 27.5185 151.389 27.3375 151.055C27.0074 150.451 27.2274 149.698 27.8308 149.368C28.4307 149.037 29.1867 149.258 29.5168 149.861C29.5594 149.94 33.8896 157.78 40.7541 164.473C41.2439 164.952 41.2546 165.737 40.7754 166.231C40.5305 166.48 40.2075 166.608 39.8845 166.608Z" fill="#180063"/>
<path d="M101.334 228.896C62.0712 228.896 46.5747 218.658 45.9322 218.221C45.5915 217.99 45.3892 217.603 45.3892 217.195C45.3892 194.686 47.1177 172.064 50.2589 153.499C51.5722 145.733 55.0754 127.463 59.2317 125.566C59.5725 125.41 59.9664 125.417 60.3036 125.584C60.3995 125.63 70.643 130.497 101.334 130.497C117.37 130.497 127.671 129.161 133.492 128.039C139.799 126.824 142.347 125.591 142.372 125.58C142.706 125.417 143.1 125.41 143.441 125.563C147.597 127.46 151.1 145.73 152.413 153.496C155.551 172.061 157.283 194.683 157.283 217.191C157.283 217.603 157.081 217.987 156.74 218.218C156.101 218.655 140.601 228.893 101.338 228.893L101.334 228.896ZM47.8737 216.495C50.9191 218.253 66.9161 226.41 101.334 226.41C121.395 226.41 135.014 223.621 142.908 221.283C149.641 219.287 153.46 217.273 154.795 216.498C154.76 194.37 153.049 172.185 149.968 153.95C146.93 135.964 143.962 129.545 142.748 128.128C139.916 129.264 128.565 132.987 101.334 132.987C74.1036 132.987 62.7492 129.264 59.9203 128.128C58.7064 129.545 55.7391 135.964 52.7009 153.95C49.62 172.185 47.9092 194.37 47.8737 216.495Z" fill="#180063"/>
<path d="M59.7465 127.939C59.1999 127.939 58.703 127.577 58.5504 127.026C58.3694 126.366 58.7563 125.68 59.4165 125.499C59.8069 125.392 69.0565 122.863 76.1979 122.863C76.8829 122.863 77.4402 123.421 77.4402 124.106C77.4402 124.792 76.8829 125.35 76.1979 125.35C69.3902 125.35 60.1654 127.868 60.0766 127.897C59.9666 127.929 59.8566 127.943 59.7465 127.943V127.939Z" fill="#180063"/>
<path d="M142.923 127.939C142.813 127.939 142.703 127.925 142.593 127.893C142.5 127.868 133.272 125.346 126.468 125.346C125.783 125.346 125.226 124.788 125.226 124.103C125.226 123.417 125.783 122.859 126.468 122.859C133.609 122.859 142.859 125.389 143.249 125.495C143.909 125.676 144.3 126.362 144.115 127.023C143.963 127.573 143.462 127.936 142.919 127.936L142.923 127.939Z" fill="#180063"/>
<path d="M101.335 43.2098C100.65 43.2098 100.092 42.6521 100.092 41.9665V32.9113C100.092 32.2256 100.65 31.6679 101.335 31.6679C102.02 31.6679 102.577 32.2256 102.577 32.9113V41.9665C102.577 42.6521 102.02 43.2098 101.335 43.2098Z" fill="#180063"/>
<path d="M101.335 32.9113C103.544 32.9113 105.335 31.1188 105.335 28.9077C105.335 26.6965 103.544 24.9041 101.335 24.9041C99.1254 24.9041 97.3345 26.6965 97.3345 28.9077C97.3345 31.1188 99.1254 32.9113 101.335 32.9113Z" fill="#180063"/>
<path d="M101.335 34.1546C98.4455 34.1546 96.0923 31.8029 96.0923 28.9077C96.0923 26.0124 98.442 23.6607 101.335 23.6607C104.227 23.6607 106.577 26.0124 106.577 28.9077C106.577 31.8029 104.227 34.1546 101.335 34.1546ZM101.335 26.151C99.8156 26.151 98.5768 27.3872 98.5768 28.9112C98.5768 30.4352 99.812 31.6715 101.335 31.6715C102.857 31.6715 104.093 30.4352 104.093 28.9112C104.093 27.3872 102.857 26.151 101.335 26.151Z" fill="#180063"/>
<path d="M101.334 227.653C140.665 227.653 156.037 217.195 156.037 217.195C156.037 166.48 147.473 128.774 142.922 126.699C142.922 126.699 132.853 131.744 101.334 131.744C69.8159 131.744 59.7463 126.699 59.7463 126.699C55.196 128.774 46.6313 166.483 46.6313 217.195C46.6313 217.195 62.0001 227.653 101.334 227.653Z" fill="#33BAFF"/>
<path d="M101.334 228.896C62.0712 228.896 46.5747 218.658 45.9322 218.221C45.5915 217.99 45.3892 217.603 45.3892 217.195C45.3892 194.686 47.1177 172.064 50.2589 153.499C51.5722 145.733 55.0754 127.463 59.2317 125.566C59.5725 125.41 59.9664 125.417 60.3036 125.584C60.3995 125.63 70.643 130.497 101.334 130.497C117.37 130.497 127.671 129.161 133.492 128.039C139.799 126.824 142.347 125.591 142.372 125.58C142.706 125.417 143.1 125.41 143.441 125.563C147.597 127.46 151.1 145.73 152.413 153.496C155.551 172.061 157.283 194.683 157.283 217.191C157.283 217.603 157.081 217.987 156.74 218.218C156.101 218.655 140.601 228.893 101.338 228.893L101.334 228.896ZM47.8737 216.495C50.9191 218.253 66.9161 226.41 101.334 226.41C121.395 226.41 135.014 223.621 142.908 221.283C149.641 219.287 153.46 217.273 154.795 216.498C154.76 194.37 153.049 172.185 149.968 153.95C146.93 135.964 143.962 129.545 142.748 128.128C139.916 129.264 128.565 132.987 101.334 132.987C74.1036 132.987 62.7492 129.264 59.9203 128.128C58.7064 129.545 55.7391 135.964 52.7009 153.95C49.62 172.185 47.9092 194.37 47.8737 216.495Z" fill="#180063"/>
<path d="M101.334 216.992C83.1756 216.992 70.8274 214.608 63.6683 212.608C61.095 211.891 58.9902 211.17 57.3291 210.527C57.6627 188.338 59.5936 171.062 61.2405 160.124C62.7064 150.369 64.2433 143.666 65.4501 139.428C72.6872 140.945 84.1162 142.398 101.334 142.398C118.552 142.398 129.981 140.945 137.218 139.428C138.422 143.666 139.959 150.369 141.428 160.124C143.075 171.062 145.006 188.334 145.339 210.527C143.678 211.17 141.577 211.891 139 212.608C131.838 214.608 119.489 216.992 101.334 216.992Z" fill="white"/>
<path d="M101.334 218.235C83.0374 218.235 70.5685 215.827 63.3349 213.805C61.0207 213.159 58.8484 212.445 56.8821 211.685C56.3958 211.496 56.0799 211.027 56.087 210.505C56.4242 188.036 58.4083 170.604 60.0126 159.936C61.5779 149.531 63.1822 142.856 64.2541 139.087C64.4316 138.458 65.0669 138.074 65.7023 138.209C75.0265 140.163 87.0127 141.151 101.334 141.151C115.656 141.151 127.642 140.16 136.967 138.209C137.606 138.074 138.237 138.458 138.415 139.087C139.487 142.856 141.091 149.531 142.656 159.936C144.261 170.604 146.245 188.036 146.582 210.505C146.589 211.027 146.273 211.496 145.787 211.685C143.82 212.445 141.652 213.159 139.334 213.805C132.097 215.827 119.631 218.235 101.334 218.235ZM58.5858 209.67C60.2575 210.289 62.0784 210.871 64.0021 211.411C71.0902 213.39 83.3178 215.749 101.334 215.749C119.351 215.749 131.582 213.39 138.667 211.411C140.591 210.875 142.408 210.289 144.083 209.67C143.71 187.762 141.772 170.76 140.2 160.309C138.798 150.991 137.371 144.721 136.331 140.877C127.014 142.71 115.248 143.641 101.334 143.641C87.4209 143.641 75.6547 142.71 66.3376 140.877C65.3012 144.725 63.8708 150.991 62.4688 160.309C60.8964 170.76 58.9585 187.762 58.5858 209.67Z" fill="#180063"/>
<path d="M79.751 70.3754C73.7206 70.3754 68.8296 75.2706 68.8296 81.3063H90.6724C90.6724 75.2706 85.7814 70.3754 79.751 70.3754Z" fill="white"/>
<path d="M90.6725 82.5532H68.8297C68.1447 82.5532 67.5874 81.9954 67.5874 81.3098C67.5874 74.5957 73.0428 69.1356 79.7511 69.1356C86.4594 69.1356 91.9148 74.5957 91.9148 81.3098C91.9148 81.9954 91.3576 82.5532 90.6725 82.5532ZM70.1501 80.0664H89.3522C88.7417 75.3097 84.667 71.6223 79.7511 71.6223C74.8352 71.6223 70.7641 75.3097 70.1501 80.0664Z" fill="#180063"/>
<path d="M122.918 70.3754C116.888 70.3754 111.997 75.2706 111.997 81.3063H133.84C133.84 75.2706 128.949 70.3754 122.918 70.3754Z" fill="white"/>
<path d="M133.84 82.5532H111.997C111.312 82.5532 110.755 81.9954 110.755 81.3098C110.755 74.5957 116.21 69.1356 122.919 69.1356C129.627 69.1356 135.082 74.5957 135.082 81.3098C135.082 81.9954 134.525 82.5532 133.84 82.5532ZM113.318 80.0664H132.52C131.909 75.3097 127.834 71.6223 122.919 71.6223C118.003 71.6223 113.932 75.3097 113.318 80.0664Z" fill="#180063"/>
<path d="M79.7511 74.7591C76.1378 74.7591 73.2061 77.6899 73.2061 81.3098H86.2926C86.2926 77.6934 83.3644 74.7591 79.7475 74.7591H79.7511Z" fill="#180063"/>
<path d="M86.2961 82.5532H73.2096C72.5245 82.5532 71.9673 81.9954 71.9673 81.3098C71.9673 77.0114 75.4599 73.5157 79.7546 73.5157C84.0494 73.5157 87.5419 77.0114 87.5419 81.3098C87.5419 81.9954 86.9847 82.5532 86.2997 82.5532H86.2961ZM74.5974 80.0665H84.9048C84.344 77.7396 82.2463 76.0025 79.7511 76.0025C77.2559 76.0025 75.1582 77.7361 74.5974 80.0665Z" fill="#180063"/>
<path d="M122.918 74.7591C119.305 74.7591 116.373 77.6899 116.373 81.3098H129.46C129.46 77.6934 126.531 74.7591 122.915 74.7591H122.918Z" fill="#180063"/>
<path d="M129.46 82.5532H116.373C115.688 82.5532 115.131 81.9954 115.131 81.3098C115.131 77.0114 118.623 73.5157 122.918 73.5157C127.213 73.5157 130.706 77.0114 130.706 81.3098C130.706 81.9954 130.148 82.5532 129.463 82.5532H129.46ZM117.761 80.0665H128.068C127.508 77.7396 125.41 76.0025 122.915 76.0025C120.419 76.0025 118.322 77.7361 117.761 80.0665Z" fill="#180063"/>
<path d="M101.335 105.786C95.244 105.786 90.2891 100.827 90.2891 94.731V92.8198C90.2891 92.1342 90.8463 91.5764 91.5313 91.5764C92.2164 91.5764 92.7736 92.1342 92.7736 92.8198V94.731C92.7736 99.4557 96.614 103.299 101.335 103.299C106.055 103.299 109.896 99.4557 109.896 94.731V92.8198C109.896 92.1342 110.453 91.5764 111.138 91.5764C111.823 91.5764 112.38 92.1342 112.38 92.8198V94.731C112.38 100.827 107.425 105.786 101.335 105.786Z" fill="#180063"/>
<path d="M101.438 124.707C94.0691 124.707 86.7077 124.326 79.3853 123.566L76.0702 123.222C75.3887 123.151 74.8918 122.54 74.9628 121.857C75.0338 121.175 75.6407 120.678 76.3258 120.749L79.6409 121.094C95.141 122.703 110.847 122.589 126.322 120.753C127 120.671 127.621 121.158 127.703 121.84C127.785 122.522 127.298 123.14 126.617 123.222C118.269 124.213 109.853 124.71 101.441 124.71L101.438 124.707Z" fill="#180063"/>
<path d="M101.438 129.062C94.0691 129.062 86.7077 128.682 79.3853 127.922L76.0702 127.577C75.3887 127.506 74.8918 126.895 74.9628 126.213C75.0338 125.531 75.6407 125.033 76.3258 125.104L79.6409 125.449C95.141 127.058 110.847 126.945 126.322 125.108C127 125.026 127.621 125.513 127.703 126.195C127.785 126.877 127.298 127.495 126.617 127.577C118.269 128.568 109.853 129.065 101.441 129.065L101.438 129.062Z" fill="#180063"/>
<path d="M98.1617 204.42C97.4767 204.42 96.9194 203.862 96.9194 203.177V155.446H86.9493C82.6581 155.446 78.626 153.773 75.5913 150.739C75.105 150.252 75.105 149.467 75.5913 148.98C76.0775 148.494 76.8619 148.494 77.3482 148.98C79.9108 151.545 83.3218 152.959 86.9493 152.959H98.1617C98.8468 152.959 99.404 153.517 99.404 154.203V203.177C99.404 203.862 98.8468 204.42 98.1617 204.42Z" fill="#180063"/>
<path d="M74.1786 172.263C74.0295 172.263 73.8769 172.235 73.7278 172.178C73.0889 171.929 72.7695 171.208 73.0179 170.569L79.5452 153.751C79.7937 153.112 80.5142 152.796 81.1531 153.041C81.792 153.29 82.1114 154.011 81.863 154.65L75.3357 171.467C75.144 171.958 74.6755 172.26 74.1786 172.26V172.263Z" fill="#180063"/>
<path d="M87.2369 172.263C86.74 172.263 86.268 171.961 86.0798 171.471L79.5525 154.654C79.3041 154.014 79.62 153.293 80.2624 153.044C80.9049 152.796 81.6218 153.112 81.8703 153.755L88.3976 170.572C88.646 171.212 88.3301 171.933 87.6877 172.181C87.5386 172.238 87.386 172.267 87.2369 172.267V172.263Z" fill="#180063"/>
<path d="M71.0197 171.02C72.4678 174.97 76.2585 177.791 80.7059 177.791C85.1533 177.791 88.9476 174.97 90.3922 171.02H71.0161H71.0197Z" fill="#FFD400"/>
<path d="M80.7058 179.034C75.8751 179.034 71.513 175.986 69.8519 171.45C69.7134 171.07 69.7667 170.643 70.0009 170.309C70.2316 169.975 70.615 169.776 71.0196 169.776H90.3956C90.8003 169.776 91.18 169.975 91.4143 170.309C91.6486 170.643 91.7018 171.066 91.5634 171.45C89.9023 175.986 85.5401 179.034 80.7094 179.034H80.7058ZM73.0002 172.263C74.6364 174.881 77.5434 176.547 80.7058 176.547C83.8683 176.547 86.7753 174.881 88.4115 172.263H73.0037H73.0002Z" fill="#180063"/>
<path d="M104.508 204.42C103.823 204.42 103.266 203.862 103.266 203.177V154.203C103.266 153.517 103.823 152.959 104.508 152.959H115.72C119.348 152.959 122.755 151.545 125.321 148.98C125.808 148.494 126.592 148.494 127.078 148.98C127.565 149.467 127.565 150.252 127.078 150.739C124.047 153.776 120.012 155.446 115.72 155.446H105.75V203.177C105.75 203.862 105.193 204.42 104.508 204.42Z" fill="#180063"/>
<path d="M128.491 172.263C127.994 172.263 127.522 171.961 127.334 171.471L120.806 154.654C120.558 154.014 120.874 153.293 121.516 153.044C122.159 152.796 122.876 153.112 123.124 153.755L129.651 170.572C129.9 171.212 129.584 171.933 128.942 172.181C128.793 172.238 128.64 172.267 128.491 172.267V172.263Z" fill="#180063"/>
<path d="M115.433 172.263C115.284 172.263 115.131 172.235 114.982 172.178C114.343 171.929 114.024 171.208 114.272 170.569L120.8 153.751C121.048 153.112 121.769 152.796 122.407 153.041C123.046 153.29 123.366 154.011 123.117 154.65L116.59 171.467C116.398 171.958 115.93 172.26 115.433 172.26V172.263Z" fill="#180063"/>
<path d="M131.65 171.02C130.202 174.97 126.411 177.791 121.964 177.791C117.516 177.791 113.722 174.97 112.277 171.02H131.653H131.65Z" fill="#FFD400"/>
<path d="M121.964 179.034C117.133 179.034 112.771 175.986 111.11 171.45C110.971 171.07 111.024 170.643 111.259 170.309C111.489 169.975 111.873 169.776 112.277 169.776H131.653C132.058 169.776 132.438 169.975 132.672 170.309C132.906 170.643 132.96 171.066 132.821 171.45C131.16 175.986 126.798 179.034 121.967 179.034H121.964ZM114.258 172.263C115.894 174.881 118.798 176.547 121.964 176.547C125.13 176.547 128.033 174.881 129.669 172.263H114.262H114.258Z" fill="#180063"/>
<path d="M48.0444 103.054C48.9697 103.054 49.7198 102.304 49.7198 101.378C49.7198 100.452 48.9697 99.7009 48.0444 99.7009C47.1192 99.7009 46.3691 100.452 46.3691 101.378C46.3691 102.304 47.1192 103.054 48.0444 103.054Z" fill="#180063"/>
<path d="M47.0186 111.74C47.9438 111.74 48.6939 110.989 48.6939 110.063C48.6939 109.137 47.9438 108.387 47.0186 108.387C46.0933 108.387 45.3433 109.137 45.3433 110.063C45.3433 110.989 46.0933 111.74 47.0186 111.74Z" fill="#180063"/>
<path d="M55.6968 112.955C56.622 112.955 57.3721 112.204 57.3721 111.278C57.3721 110.352 56.622 109.602 55.6968 109.602C54.7715 109.602 54.0215 110.352 54.0215 111.278C54.0215 112.204 54.7715 112.955 55.6968 112.955Z" fill="#180063"/>
<path d="M154.625 103.054C155.55 103.054 156.3 102.304 156.3 101.378C156.3 100.452 155.55 99.7009 154.625 99.7009C153.7 99.7009 152.95 100.452 152.95 101.378C152.95 102.304 153.7 103.054 154.625 103.054Z" fill="#180063"/>
<path d="M155.651 111.74C156.576 111.74 157.326 110.989 157.326 110.063C157.326 109.137 156.576 108.387 155.651 108.387C154.726 108.387 153.976 109.137 153.976 110.063C153.976 110.989 154.726 111.74 155.651 111.74Z" fill="#180063"/>
<path d="M146.973 112.955C147.898 112.955 148.648 112.204 148.648 111.278C148.648 110.352 147.898 109.602 146.973 109.602C146.047 109.602 145.297 110.352 145.297 111.278C145.297 112.204 146.047 112.955 146.973 112.955Z" fill="#180063"/>
<path d="M154.139 158.75C154.139 158.75 185.817 175.272 216.991 136.973L201.998 124.749C201.998 124.749 187.478 145.982 162.093 140.998" fill="#FFD400"/>
<path d="M171.307 163.538C160.765 163.538 153.876 160.014 153.567 159.851C152.96 159.535 152.722 158.782 153.038 158.174C153.354 157.567 154.103 157.329 154.714 157.645C154.813 157.698 162.59 161.641 173.944 160.973C188.681 160.11 202.935 151.876 215.237 137.147L202.215 126.532C200.77 128.366 197.413 132.223 192.266 135.769C185.863 140.177 175.385 144.877 161.851 142.22C161.177 142.089 160.74 141.435 160.872 140.76C161.003 140.085 161.656 139.648 162.33 139.78C172.485 141.776 182.061 139.755 190.786 133.772C197.345 129.275 200.937 124.099 200.973 124.049C201.168 123.762 201.477 123.573 201.821 123.524C202.165 123.474 202.513 123.57 202.783 123.79L217.775 136.014C218.031 136.224 218.194 136.522 218.226 136.852C218.258 137.179 218.162 137.51 217.953 137.765C210.737 146.632 202.875 153.321 194.591 157.641C187.929 161.119 180.979 163.08 173.94 163.471C173.039 163.521 172.155 163.545 171.3 163.545L171.307 163.538Z" fill="#180063"/>
<path d="M209.992 145.609C209.583 145.609 209.182 145.407 208.945 145.037C208.895 144.959 203.944 137.296 196.518 131.062C195.993 130.621 195.925 129.836 196.366 129.31C196.806 128.785 197.59 128.717 198.115 129.158C205.842 135.645 210.826 143.371 211.035 143.698C211.404 144.277 211.237 145.044 210.659 145.414C210.453 145.549 210.219 145.609 209.988 145.609H209.992Z" fill="#180063"/>
<path d="M201.981 152.721C201.516 152.721 201.072 152.458 200.859 152.014C200.171 150.568 196.43 143.026 190.406 136.391C189.945 135.883 189.984 135.097 190.491 134.636C190.999 134.174 191.783 134.213 192.245 134.721C198.502 141.613 202.385 149.446 203.099 150.945C203.393 151.563 203.131 152.305 202.513 152.604C202.339 152.686 202.158 152.725 201.981 152.725V152.721Z" fill="#180063"/>
<path d="M192.571 158.05C192.042 158.05 191.549 157.709 191.386 157.176C191.357 157.087 188.561 148.17 182.928 140.103C182.534 139.542 182.672 138.764 183.233 138.373C183.794 137.978 184.571 138.117 184.961 138.678C190.825 147.076 193.64 156.064 193.757 156.441C193.959 157.098 193.594 157.794 192.937 157.997C192.816 158.036 192.692 158.053 192.568 158.053L192.571 158.05Z" fill="#180063"/>
<path d="M180.848 162.572C180.177 162.572 179.623 162.036 179.605 161.361C179.605 161.268 179.325 151.925 176.091 142.632C175.864 141.982 176.209 141.275 176.855 141.048C177.504 140.824 178.21 141.165 178.438 141.812C181.802 151.488 182.079 160.899 182.09 161.297C182.108 161.982 181.565 162.554 180.88 162.572C180.869 162.572 180.858 162.572 180.848 162.572Z" fill="#180063"/>
<path d="M168.067 162.22C167.992 162.22 167.917 162.213 167.839 162.199C167.165 162.075 166.718 161.425 166.842 160.75C166.856 160.661 168.45 151.847 167.353 142.32C167.275 141.638 167.765 141.019 168.446 140.941C169.131 140.863 169.745 141.35 169.823 142.035C170.966 151.947 169.359 160.831 169.288 161.204C169.178 161.805 168.656 162.22 168.067 162.22Z" fill="#180063"/>
<path d="M213.09 133.79L218.975 126.561L213.065 121.744L207.18 128.973" fill="#180063"/>
<path d="M213.09 135.034C212.813 135.034 212.536 134.941 212.306 134.753C211.773 134.319 211.695 133.534 212.128 133.005L217.229 126.739L213.246 123.492L208.146 129.758C207.713 130.291 206.928 130.369 206.399 129.936C205.867 129.502 205.789 128.717 206.222 128.188L212.107 120.959C212.316 120.703 212.614 120.54 212.945 120.508C213.271 120.472 213.601 120.571 213.857 120.781L219.766 125.598C220.299 126.032 220.377 126.817 219.944 127.346L214.059 134.575C213.814 134.877 213.456 135.034 213.094 135.034H213.09Z" fill="#180063"/>
<path d="M216.022 124.152C221.69 128.774 230.027 127.921 234.645 122.248L229.14 117.761C227.003 120.387 223.127 120.785 220.505 118.646C217.882 116.507 217.484 112.628 219.621 110.003L214.116 105.516C209.498 111.189 210.35 119.534 216.018 124.156L216.022 124.152Z" fill="#33BAFF"/>
<path d="M224.356 128.376C221.037 128.376 217.846 127.243 215.237 125.119C212.238 122.675 210.371 119.207 209.977 115.356C209.583 111.506 210.712 107.733 213.158 104.731C213.591 104.198 214.375 104.12 214.904 104.553L220.409 109.04C220.664 109.25 220.828 109.548 220.86 109.879C220.892 110.205 220.796 110.536 220.586 110.792C218.883 112.888 219.195 115.978 221.289 117.687C222.301 118.511 223.575 118.891 224.878 118.76C226.18 118.625 227.351 117.996 228.175 116.983C228.384 116.728 228.682 116.564 229.013 116.532C229.339 116.497 229.669 116.596 229.925 116.806L235.43 121.293C235.685 121.502 235.849 121.801 235.881 122.131C235.913 122.458 235.817 122.788 235.607 123.044C233.165 126.046 229.701 127.914 225.854 128.309C225.353 128.358 224.853 128.387 224.356 128.387V128.376ZM214.347 107.303C212.835 109.602 212.167 112.326 212.448 115.101C212.774 118.291 214.322 121.165 216.806 123.19C219.291 125.215 222.414 126.152 225.602 125.826C228.374 125.541 230.904 124.334 232.849 122.39L229.24 119.449C228.097 120.451 226.677 121.072 225.133 121.232C223.167 121.431 221.247 120.859 219.72 119.612C216.891 117.307 216.217 113.324 217.956 110.248L214.347 107.303Z" fill="#180063"/>
<path d="M147.75 134.238C147.75 134.238 161.102 133.151 162.629 146.295C164.155 159.439 153.759 164.501 153.759 164.501" fill="#180063"/>
<path d="M153.762 165.744C153.301 165.744 152.861 165.489 152.644 165.045C152.343 164.426 152.602 163.684 153.219 163.382C153.61 163.19 162.803 158.505 161.401 146.437C160.034 134.671 148.353 135.438 147.853 135.478C147.168 135.527 146.571 135.019 146.518 134.337C146.465 133.655 146.972 133.055 147.654 133.001C147.799 132.987 162.22 131.982 163.867 146.153C164.709 153.378 162.078 158.281 159.725 161.123C157.173 164.203 154.419 165.567 154.305 165.624C154.131 165.709 153.947 165.748 153.762 165.748V165.744Z" fill="#180063"/>
<path d="M124.799 50.6096C128.455 50.6096 132.111 54.4355 132.111 60.0449C132.111 54.4355 135.767 50.6096 139.423 50.6096C135.767 50.6096 132.111 46.7836 132.111 41.1743C132.111 46.7836 128.455 50.6096 124.799 50.6096Z" fill="#FFD400"/>
<path d="M132.111 61.2882C131.426 61.2882 130.869 60.7305 130.869 60.0449C130.869 56.0874 128.43 51.8529 124.799 51.8529C124.114 51.8529 123.557 51.2952 123.557 50.6096C123.557 49.9239 124.114 49.3662 124.799 49.3662C128.43 49.3662 130.869 45.1317 130.869 41.1743C130.869 40.4886 131.426 39.9309 132.111 39.9309C132.796 39.9309 133.353 40.4886 133.353 41.1743C133.353 45.1317 135.792 49.3662 139.423 49.3662C140.108 49.3662 140.665 49.9239 140.665 50.6096C140.665 51.2952 140.108 51.8529 139.423 51.8529C135.792 51.8529 133.353 56.0874 133.353 60.0449C133.353 60.7305 132.796 61.2882 132.111 61.2882ZM128.757 50.6096C130.092 51.4799 131.281 52.7872 132.111 54.464C132.945 52.7872 134.131 51.4799 135.465 50.6096C134.131 49.7392 132.942 48.4319 132.111 46.7552C131.277 48.4319 130.092 49.7392 128.757 50.6096Z" fill="#180063"/>
<path d="M92.3829 30.151C91.6979 30.151 91.1406 29.5933 91.1406 28.9076C91.1406 23.2806 95.7122 18.705 101.334 18.705C102.027 18.705 102.715 18.7761 103.39 18.9111C104.06 19.0496 104.493 19.7068 104.358 20.3782C104.224 21.0496 103.563 21.483 102.893 21.348C102.385 21.245 101.86 21.1917 101.338 21.1917C97.0858 21.1917 93.6287 24.6518 93.6287 28.9076C93.6287 29.5933 93.0715 30.151 92.3865 30.151H92.3829Z" fill="#180063"/>
<path d="M87.5132 32.5986C86.9205 32.5986 86.3952 32.1723 86.2922 31.5684C86.1396 30.6945 86.0615 29.7993 86.0615 28.9076C86.0615 20.4777 92.9118 13.6215 101.334 13.6215C102.371 13.6215 103.404 13.7245 104.412 13.9305C105.083 14.0691 105.519 14.7263 105.381 15.3977C105.242 16.0691 104.586 16.506 103.915 16.3675C103.07 16.1934 102.204 16.1082 101.334 16.1082C94.2819 16.1082 88.5461 21.8489 88.5461 28.9076C88.5461 29.6572 88.61 30.4068 88.7377 31.1386C88.8549 31.8135 88.4041 32.4601 87.7297 32.5773C87.6552 32.5915 87.5842 32.5951 87.5132 32.5951V32.5986Z" fill="#180063"/>
</g>
</g>
<defs>
<clipPath id="clip0_312_6817">
<rect width="235.887" height="190" fill="white"/>
</clipPath>
</defs>
</svg>
