<svg width="308" height="140" viewBox="0 0 308 140" fill="none" xmlns="http://www.w3.org/2000/svg">
<path d="M70.5 140C109.121 140 140.43 108.66 140.43 70C140.43 31.3401 109.121 0 70.5 0C31.8789 0 0.570312 31.3401 0.570312 70C0.570312 108.66 31.8789 140 70.5 140Z" fill="#FFD400"/>
<mask id="mask0_312_6831" style="mask-type:luminance" maskUnits="userSpaceOnUse" x="0" y="0" width="141" height="140">
<path d="M70.5 140C109.121 140 140.43 108.66 140.43 70C140.43 31.3401 109.121 0 70.5 0C31.8789 0 0.570312 31.3401 0.570312 70C0.570312 108.66 31.8789 140 70.5 140Z" fill="white"/>
</mask>
<g mask="url(#mask0_312_6831)">
<path d="M106.6 54.9966H115.976V49.4921H103.716" fill="#FFD400"/>
<path d="M115.975 55.9003H106.6C106.102 55.9003 105.697 55.4949 105.697 54.9966C105.697 54.4983 106.102 54.093 106.6 54.093H115.073V50.3957H103.719C103.221 50.3957 102.816 49.9903 102.816 49.492C102.816 48.9937 103.221 48.5884 103.719 48.5884H115.975C116.473 48.5884 116.878 48.9937 116.878 49.492V54.9966C116.878 55.4949 116.473 55.9003 115.975 55.9003Z" fill="#180063"/>
<path d="M115.976 46.6288V57.8626C119.073 57.8626 121.586 55.3478 121.586 52.247C121.586 49.1461 119.073 46.6314 115.976 46.6314V46.6288Z" fill="#180063"/>
<path d="M115.976 58.7662C115.478 58.7662 115.073 58.3608 115.073 57.8625V46.6288C115.073 46.1305 115.478 45.7251 115.976 45.7251C119.566 45.7251 122.488 48.6504 122.488 52.2444C122.488 55.8383 119.566 58.7636 115.976 58.7636V58.7662ZM116.878 47.6202V56.8711C119.045 56.4477 120.683 54.5345 120.683 52.2444C120.683 49.9542 119.042 48.041 116.878 47.6176V47.6202Z" fill="#180063"/>
<path d="M34.4006 54.9966H25.0249V49.4921H37.2817" fill="#FFD400"/>
<path d="M34.4005 55.9003H25.0248C24.527 55.9003 24.1221 55.4949 24.1221 54.9966V49.492C24.1221 48.9937 24.527 48.5884 25.0248 48.5884H37.2816C37.7794 48.5884 38.1844 48.9937 38.1844 49.492C38.1844 49.9903 37.7794 50.3957 37.2816 50.3957H25.9276V54.093H34.4005C34.8983 54.093 35.3033 54.4983 35.3033 54.9966C35.3033 55.4949 34.8983 55.9003 34.4005 55.9003Z" fill="#180063"/>
<path d="M25.0245 46.6288V57.8626C21.9268 57.8626 19.4146 55.3478 19.4146 52.247C19.4146 49.1461 21.9268 46.6314 25.0245 46.6314V46.6288Z" fill="#180063"/>
<path d="M25.0244 58.7662C21.4341 58.7662 18.5117 55.8409 18.5117 52.2469C18.5117 48.6529 21.4341 45.7277 25.0244 45.7277C25.5222 45.7277 25.9272 46.133 25.9272 46.6313V57.8651C25.9272 58.3634 25.5222 58.7687 25.0244 58.7687V58.7662ZM24.1217 47.6202C21.9551 48.0436 20.3172 49.9568 20.3172 52.2469C20.3172 54.537 21.9576 56.4502 24.1217 56.8736V47.6228V47.6202Z" fill="#180063"/>
<path d="M41.7202 89.6196C41.7202 89.6196 47.9002 87.2701 70.4999 87.2701C93.0996 87.2701 99.1764 89.3615 99.1764 89.3615C99.1764 89.3615 93.1976 93.2859 70.4999 93.2859C47.8022 93.2859 41.7202 89.6196 41.7202 89.6196Z" fill="#180063"/>
<path d="M88.568 83.1831H52.4321V93.0252H88.568V83.1831Z" fill="#FFD400"/>
<path d="M52.2334 92.3048C52.2334 92.3048 56.5692 83.9808 78.9084 83.9808C52.6925 83.9808 52.2334 84.1306 52.2334 84.1306V92.3022V92.3048Z" fill="#180063"/>
<path d="M52.2333 93.2085C52.1611 93.2085 52.0889 93.2007 52.0192 93.1826C51.6143 93.0845 51.3306 92.7205 51.3306 92.3048V84.1331C51.3306 83.7433 51.5808 83.3973 51.9522 83.2734C52.1147 83.2192 52.548 83.0771 78.9083 83.0771C79.4061 83.0771 79.8111 83.4825 79.8111 83.9808C79.8111 84.4791 79.4061 84.8845 78.9083 84.8845C57.3661 84.8845 53.0767 92.643 53.0355 92.7205C52.8781 93.0251 52.566 93.2059 52.2359 93.2059L52.2333 93.2085ZM53.1361 85.0007V89.8598C54.7636 88.3649 57.7659 86.3561 63.0354 84.9103C56.8683 84.9361 54.2477 84.9723 53.1361 85.0007Z" fill="#180063"/>
<path d="M96.5098 37.1738C81.3694 24.9951 59.6312 24.9951 44.4908 37.1738C35.0506 44.7672 26.6602 57.816 26.6602 80.2164C26.6602 83.3508 65.0219 84.1357 70.5003 84.1357C75.9787 84.1357 114.34 83.3508 114.34 80.2164C114.34 57.816 105.95 44.7672 96.5098 37.1738Z" fill="#33BAFF"/>
<path d="M70.5002 85.0368C67.859 85.0368 56.8197 84.8432 46.4742 84.2519C27.341 83.1572 25.7573 81.7191 25.7573 80.2164C25.7573 69.7495 27.5938 60.5115 31.2177 52.7607C34.2354 46.306 38.5093 40.8272 43.9258 36.469C51.4083 30.4506 60.846 27.1355 70.5002 27.1355C80.1545 27.1355 89.5921 30.4506 97.0746 36.469C102.491 40.8246 106.765 46.306 109.783 52.7607C113.407 60.5115 115.243 69.7495 115.243 80.2164C115.243 81.7191 113.659 83.1598 94.5263 84.2519C84.1808 84.8432 73.1388 85.0368 70.5002 85.0368ZM27.5628 80.0099C28.1071 80.3894 31.1326 81.6106 47.7406 82.5117C57.7302 83.0513 68.0628 83.2295 70.5002 83.2295C72.9377 83.2295 83.2729 83.0539 93.2599 82.5117C109.868 81.6132 112.893 80.3894 113.438 80.0099C113.396 61.3558 107.508 47.1787 95.9423 37.8761C88.7796 32.1159 79.7444 28.9428 70.4977 28.9428C61.2509 28.9428 52.2157 32.116 45.053 37.8787C33.4874 47.1838 27.6015 61.3558 27.5577 80.0124L27.5628 80.0099Z" fill="#180063"/>
<path d="M52.2333 93.2085C51.7355 93.2085 51.3306 92.8031 51.3306 92.3048V84.1332C51.3306 83.6348 51.7355 83.2295 52.2333 83.2295C52.7311 83.2295 53.1361 83.6348 53.1361 84.1332V92.3048C53.1361 92.8031 52.7311 93.2085 52.2333 93.2085Z" fill="#180063"/>
<path d="M88.7641 93.2085C88.2663 93.2085 87.8613 92.8031 87.8613 92.3048V84.1332C87.8613 83.6348 88.2663 83.2295 88.7641 83.2295C89.2619 83.2295 89.6668 83.6348 89.6668 84.1332V92.3048C89.6668 92.8031 89.2619 93.2085 88.7641 93.2085Z" fill="#180063"/>
<path d="M36.7707 95.101C36.7707 95.101 27.0674 94.3109 25.9583 103.864C24.8492 113.417 32.404 117.096 32.404 117.096" fill="#180063"/>
<path d="M32.4012 118C32.2696 118 32.1355 117.971 32.0066 117.909C31.924 117.871 23.887 113.833 25.058 103.761C26.2547 93.4615 36.737 94.1922 36.8401 94.2025C37.3379 94.2438 37.7068 94.6801 37.6681 95.1759C37.6268 95.6716 37.1961 96.0408 36.6957 96.0046C36.3346 95.9762 27.8436 95.4186 26.8506 103.97C25.8317 112.74 32.5121 116.146 32.7984 116.288C33.2446 116.507 33.4303 117.05 33.2111 117.496C33.0537 117.816 32.7339 118.002 32.4012 118.002V118Z" fill="#180063"/>
<path d="M26.384 101.747C26.384 101.747 0.959961 106.993 0.959961 142.894H15.0145C15.0145 142.894 13.4592 124.258 30.0466 115.405" fill="#FFD400"/>
<path d="M15.012 143.798H0.957438C0.459636 143.798 0.0546875 143.393 0.0546875 142.894C0.0546875 134.581 1.41655 127.202 4.10159 120.961C6.26303 115.939 9.27564 111.643 13.062 108.189C19.5283 102.292 25.9301 100.918 26.2009 100.861C26.6884 100.76 27.1656 101.075 27.2662 101.563C27.3668 102.051 27.0521 102.529 26.5646 102.63C26.5027 102.643 20.3047 103.988 14.2021 109.591C6.29657 116.848 2.03816 128.035 1.86277 141.988H14.068C14.0396 140.292 14.1634 136.574 15.4376 132.213C17.0238 126.786 20.7715 119.327 29.6159 114.605C30.057 114.37 30.6038 114.537 30.8385 114.976C31.0732 115.415 30.9056 115.965 30.4671 116.2C23.8306 119.742 19.3632 125.278 17.1915 132.657C15.5588 138.206 15.907 142.77 15.9096 142.817C15.9302 143.067 15.8451 143.318 15.6723 143.504C15.502 143.689 15.2596 143.795 15.0094 143.795L15.012 143.798Z" fill="#180063"/>
<path d="M15.1898 138.626H15.1769C7.84916 138.521 1.49637 136.458 1.23071 136.37C0.756118 136.215 0.500768 135.704 0.655526 135.229C0.810283 134.756 1.32098 134.495 1.79557 134.653C1.85747 134.674 8.16125 136.718 15.2053 136.819C15.7031 136.827 16.1029 137.237 16.0951 137.736C16.0874 138.231 15.685 138.626 15.1924 138.626H15.1898Z" fill="#180063"/>
<path d="M16.0717 132.807C16.0278 132.807 15.9814 132.804 15.935 132.796C9.24687 131.787 3.46926 129.159 2.37822 128.642C1.92685 128.428 1.73598 127.891 1.94748 127.439C2.15898 126.987 2.70063 126.796 3.14943 127.008C4.1992 127.506 9.7653 130.036 16.2032 131.01C16.6959 131.085 17.0363 131.544 16.9615 132.037C16.8945 132.487 16.5101 132.807 16.0691 132.807H16.0717Z" fill="#180063"/>
<path d="M18.4708 127.253C18.3883 127.253 18.3057 127.243 18.2232 127.22C11.0683 125.18 5.36288 121.41 5.12301 121.25C4.70774 120.974 4.59684 120.414 4.87282 119.998C5.1488 119.582 5.70851 119.469 6.12377 119.745C6.18052 119.784 11.8446 123.52 18.7184 125.479C19.1982 125.616 19.4767 126.117 19.34 126.597C19.2266 126.995 18.8655 127.253 18.4734 127.253H18.4708Z" fill="#180063"/>
<path d="M20.9336 122.59C20.7711 122.59 20.6086 122.546 20.4616 122.456C14.1295 118.55 9.65699 113.373 9.4687 113.154C9.14371 112.774 9.18756 112.206 9.56671 111.881C9.94587 111.555 10.5159 111.599 10.8409 111.979C10.8847 112.03 15.3237 117.166 21.4108 120.917C21.8364 121.178 21.9679 121.736 21.7048 122.162C21.5346 122.438 21.238 122.593 20.9362 122.593L20.9336 122.59Z" fill="#180063"/>
<path d="M25.845 118.627C25.618 118.627 25.391 118.542 25.2156 118.372C20.0261 113.311 16.8587 107.566 16.7272 107.324C16.4873 106.885 16.6472 106.337 17.0857 106.097C17.5216 105.857 18.071 106.017 18.3109 106.456C18.3418 106.513 21.4886 112.211 26.4769 117.075C26.8328 117.424 26.8406 117.995 26.4924 118.353C26.3144 118.534 26.0797 118.627 25.845 118.627Z" fill="#180063"/>
<path d="M70.5 163.898C41.9679 163.898 30.7067 156.457 30.2398 156.139C29.9922 155.972 29.8452 155.69 29.8452 155.393C29.8452 139.034 31.1013 122.593 33.384 109.1C34.3383 103.456 36.8841 90.1774 39.9044 88.7987C40.1521 88.6851 40.4384 88.6902 40.6834 88.8142C40.753 88.8477 48.1968 92.3849 70.5 92.3849C82.1532 92.3849 89.6383 91.4141 93.8683 90.5982C98.4517 89.7152 100.304 88.8193 100.322 88.8116C100.564 88.6928 100.85 88.6876 101.098 88.7987C104.118 90.1774 106.664 103.456 107.618 109.1C109.899 122.593 111.157 139.034 111.157 155.393C111.157 155.693 111.01 155.972 110.763 156.139C110.298 156.457 99.0346 163.898 70.5025 163.898H70.5ZM31.6507 154.885C33.8637 156.163 45.4886 162.091 70.5 162.091C85.0781 162.091 94.9748 160.064 100.711 158.365C105.604 156.914 108.379 155.45 109.349 154.887C109.323 138.805 108.08 122.681 105.841 109.428C103.633 96.3558 101.477 91.6904 100.595 90.6602C98.5368 91.4864 90.2883 94.1922 70.5 94.1922C50.7117 94.1922 42.4605 91.4864 40.4048 90.6602C39.5227 91.6904 37.3664 96.3558 35.1585 109.428C32.9197 122.681 31.6765 138.805 31.6507 154.885Z" fill="#180063"/>
<path d="M40.2785 90.5234C39.8813 90.5234 39.5177 90.26 39.4093 89.8598C39.2778 89.3796 39.5589 88.8813 40.0387 88.7496C40.3224 88.6722 47.0466 86.8339 52.2335 86.8339C52.7313 86.8339 53.1363 87.2392 53.1363 87.7375C53.1363 88.2358 52.7313 88.6412 52.2335 88.6412C47.2916 88.6412 40.5829 90.4743 40.5158 90.4924C40.4359 90.5156 40.3559 90.5259 40.276 90.5259L40.2785 90.5234Z" fill="#180063"/>
<path d="M100.722 90.5234C100.642 90.5234 100.562 90.5131 100.482 90.4898C100.415 90.4718 93.7086 88.6386 88.7641 88.6386C88.2663 88.6386 87.8613 88.2333 87.8613 87.735C87.8613 87.2367 88.2663 86.8313 88.7641 86.8313C93.9536 86.8313 100.675 88.6696 100.959 88.7471C101.439 88.8787 101.722 89.377 101.588 89.8573C101.477 90.2575 101.114 90.5208 100.719 90.5208L100.722 90.5234Z" fill="#180063"/>
<path d="M70.4999 28.9429C70.0021 28.9429 69.5972 28.5375 69.5972 28.0392V21.458C69.5972 20.9597 70.0021 20.5543 70.4999 20.5543C70.9977 20.5543 71.4027 20.9597 71.4027 21.458V28.0392C71.4027 28.5375 70.9977 28.9429 70.4999 28.9429Z" fill="#180063"/>
<path d="M70.5001 21.458C72.1055 21.458 73.407 20.1552 73.407 18.5482C73.407 16.9412 72.1055 15.6384 70.5001 15.6384C68.8947 15.6384 67.5933 16.9412 67.5933 18.5482C67.5933 20.1552 68.8947 21.458 70.5001 21.458Z" fill="#180063"/>
<path d="M70.5 22.3616C68.4005 22.3616 66.6904 20.6524 66.6904 18.5482C66.6904 16.4439 68.3979 14.7347 70.5 14.7347C72.6022 14.7347 74.3096 16.4439 74.3096 18.5482C74.3096 20.6524 72.6022 22.3616 70.5 22.3616ZM70.5 16.5446C69.3961 16.5446 68.4959 17.4431 68.4959 18.5508C68.4959 19.6584 69.3935 20.5569 70.5 20.5569C71.6065 20.5569 72.5041 19.6584 72.5041 18.5508C72.5041 17.4431 71.6065 16.5446 70.5 16.5446Z" fill="#180063"/>
<path d="M70.5 162.994C99.0811 162.994 110.252 155.393 110.252 155.393C110.252 118.534 104.028 91.1301 100.722 89.6223C100.722 89.6223 93.4041 93.2886 70.5 93.2886C47.596 93.2886 40.2785 89.6223 40.2785 89.6223C36.9719 91.1301 30.748 118.537 30.748 155.393C30.748 155.393 41.9164 162.994 70.5 162.994Z" fill="#33BAFF"/>
<path d="M70.5 163.898C41.9679 163.898 30.7067 156.457 30.2398 156.139C29.9922 155.972 29.8452 155.69 29.8452 155.393C29.8452 139.034 31.1013 122.593 33.384 109.1C34.3383 103.456 36.8841 90.1774 39.9044 88.7987C40.1521 88.6851 40.4384 88.6902 40.6834 88.8142C40.753 88.8477 48.1968 92.3849 70.5 92.3849C82.1532 92.3849 89.6383 91.4141 93.8683 90.5982C98.4517 89.7152 100.304 88.8193 100.322 88.8116C100.564 88.6928 100.85 88.6876 101.098 88.7987C104.118 90.1774 106.664 103.456 107.618 109.1C109.899 122.593 111.157 139.034 111.157 155.393C111.157 155.693 111.01 155.972 110.763 156.139C110.298 156.457 99.0346 163.898 70.5025 163.898H70.5ZM31.6507 154.885C33.8637 156.163 45.4886 162.091 70.5 162.091C85.0781 162.091 94.9748 160.064 100.711 158.365C105.604 156.914 108.379 155.45 109.349 154.887C109.323 138.805 108.08 122.681 105.841 109.428C103.633 96.3558 101.477 91.6904 100.595 90.6602C98.5368 91.4864 90.2883 94.1922 70.5 94.1922C50.7117 94.1922 42.4605 91.4864 40.4048 90.6602C39.5227 91.6904 37.3664 96.3558 35.1585 109.428C32.9197 122.681 31.6765 138.805 31.6507 154.885Z" fill="#180063"/>
<path d="M70.5 155.249C57.3043 155.249 48.331 153.516 43.1286 152.063C41.2586 151.541 39.7291 151.017 38.522 150.55C38.7644 134.423 40.1676 121.867 41.3643 113.918C42.4296 106.828 43.5464 101.956 44.4234 98.8757C49.6825 99.9782 57.9879 101.034 70.5 101.034C83.0121 101.034 91.3174 99.9782 96.5766 98.8757C97.451 101.956 98.5678 106.828 99.6356 113.918C100.832 121.867 102.236 134.421 102.478 150.55C101.271 151.017 99.7439 151.541 97.8714 152.063C92.6664 153.516 83.693 155.249 70.5 155.249Z" fill="white"/>
<path d="M70.5 156.152C57.2038 156.152 48.1427 154.402 42.8861 152.933C41.2044 152.463 39.6259 151.944 38.197 151.391C37.8436 151.254 37.6141 150.914 37.6192 150.534C37.8643 134.204 39.3061 121.534 40.4719 113.781C41.6094 106.219 42.7752 101.367 43.5542 98.6279C43.6831 98.1709 44.1448 97.8947 44.6065 97.9902C51.3797 99.4102 60.0926 100.128 70.5 100.128C80.9074 100.128 89.6177 99.4076 96.3935 97.9902C96.8577 97.8921 97.3168 98.1709 97.4458 98.6279C98.2247 101.367 99.3906 106.219 100.528 113.781C101.694 121.534 103.136 134.204 103.381 150.534C103.386 150.914 103.156 151.254 102.803 151.391C101.374 151.944 99.7981 152.463 98.1138 152.933C92.8547 154.402 83.7962 156.152 70.5 156.152ZM39.435 149.927C40.6499 150.377 41.9731 150.8 43.371 151.192C48.5219 152.631 57.4075 154.345 70.5 154.345C83.5924 154.345 92.4807 152.631 97.6289 151.192C99.0269 150.803 100.347 150.377 101.565 149.927C101.294 134.005 99.8858 121.648 98.7432 114.052C97.7244 107.28 96.6875 102.723 95.9318 99.9292C89.1611 101.261 80.6134 101.938 70.5 101.938C60.3866 101.938 51.8363 101.261 45.0682 99.9292C44.3151 102.725 43.2756 107.28 42.2568 114.052C41.1142 121.648 39.7059 134.005 39.435 149.927Z" fill="#180063"/>
<path d="M54.8154 48.6865C50.4332 48.6865 46.8789 52.2444 46.8789 56.631H62.7518C62.7518 52.2444 59.1976 48.6865 54.8154 48.6865Z" fill="white"/>
<path d="M62.7518 57.5372H46.8788C46.381 57.5372 45.9761 57.1318 45.9761 56.6335C45.9761 51.7538 49.9404 47.7854 54.8153 47.7854C59.6902 47.7854 63.6545 51.7538 63.6545 56.6335C63.6545 57.1318 63.2496 57.5372 62.7518 57.5372ZM47.8383 55.7299H61.7923C61.3486 52.2727 58.3876 49.5927 54.8153 49.5927C51.243 49.5927 48.2845 52.2727 47.8383 55.7299Z" fill="#180063"/>
<path d="M86.1821 48.6865C81.7999 48.6865 78.2456 52.2444 78.2456 56.631H94.1185C94.1185 52.2444 90.5643 48.6865 86.1821 48.6865Z" fill="white"/>
<path d="M94.1209 57.5372H78.248C77.7502 57.5372 77.3452 57.1318 77.3452 56.6335C77.3452 51.7538 81.3096 47.7854 86.1844 47.7854C91.0593 47.7854 95.0237 51.7538 95.0237 56.6335C95.0237 57.1318 94.6187 57.5372 94.1209 57.5372ZM79.2075 55.7299H93.1614C92.7178 52.2727 89.7567 49.5927 86.1844 49.5927C82.6121 49.5927 79.6537 52.2727 79.2075 55.7299Z" fill="#180063"/>
<path d="M54.8158 51.8726C52.1901 51.8726 50.0596 54.0026 50.0596 56.6335H59.5694C59.5694 54.0052 57.4415 51.8726 54.8132 51.8726H54.8158Z" fill="#180063"/>
<path d="M59.5718 57.5372H50.0619C49.5641 57.5372 49.1592 57.1318 49.1592 56.6335C49.1592 53.5094 51.6972 50.9689 54.8181 50.9689C57.9391 50.9689 60.4771 53.5094 60.4771 56.6335C60.4771 57.1318 60.0721 57.5372 59.5743 57.5372H59.5718ZM51.0704 55.7299H58.5607C58.1532 54.0387 56.6288 52.7762 54.8156 52.7762C53.0023 52.7762 51.478 54.0361 51.0704 55.7299Z" fill="#180063"/>
<path d="M86.1825 51.8726C83.5568 51.8726 81.4263 54.0026 81.4263 56.6335H90.9361C90.9361 54.0052 88.8082 51.8726 86.1799 51.8726H86.1825Z" fill="#180063"/>
<path d="M90.9385 57.5372H81.4286C80.9308 57.5372 80.5259 57.1318 80.5259 56.6335C80.5259 53.5094 83.0639 50.9689 86.1848 50.9689C89.3058 50.9689 91.8438 53.5094 91.8438 56.6335C91.8438 57.1318 91.4388 57.5372 90.941 57.5372H90.9385ZM82.4371 55.7299H89.9274C89.5199 54.0387 87.9955 52.7762 86.1823 52.7762C84.369 52.7762 82.8447 54.0361 82.4371 55.7299Z" fill="#180063"/>
<path d="M70.4999 74.4227C66.0738 74.4227 62.4731 70.8184 62.4731 66.3879V64.9989C62.4731 64.5006 62.8781 64.0952 63.3759 64.0952C63.8737 64.0952 64.2786 64.5006 64.2786 64.9989V66.3879C64.2786 69.8218 67.0694 72.6154 70.4999 72.6154C73.9303 72.6154 76.7211 69.8218 76.7211 66.3879V64.9989C76.7211 64.5006 77.1261 64.0952 77.6239 64.0952C78.1217 64.0952 78.5266 64.5006 78.5266 64.9989V66.3879C78.5266 70.8184 74.9259 74.4227 70.4999 74.4227Z" fill="#180063"/>
<path d="M70.5774 88.1739C65.2228 88.1739 59.8708 87.8976 54.5498 87.3451L52.1407 87.0946C51.6455 87.043 51.2844 86.5989 51.336 86.1032C51.3875 85.6075 51.826 85.246 52.3264 85.2976L54.7355 85.5481C65.9992 86.7177 77.4126 86.6351 88.6583 85.3002C89.1561 85.2408 89.6023 85.5971 89.6616 86.0903C89.7209 86.586 89.3676 87.0352 88.8723 87.0946C82.8059 87.815 76.6904 88.1739 70.5774 88.1739Z" fill="#180063"/>
<path d="M70.5774 91.3393C65.2228 91.3393 59.8708 91.063 54.5498 90.5105L52.1407 90.26C51.6455 90.2084 51.2844 89.7643 51.336 89.2686C51.3875 88.7729 51.826 88.4114 52.3264 88.463L54.7355 88.7135C65.9992 89.8831 77.4126 89.8005 88.6583 88.4656C89.1561 88.4062 89.6023 88.76 89.6616 89.2557C89.7209 89.7514 89.3676 90.2006 88.8723 90.26C82.8059 90.9804 76.6904 91.3393 70.5774 91.3393Z" fill="#180063"/>
<path d="M68.1941 146.109C67.6963 146.109 67.2913 145.703 67.2913 145.205V110.515H60.0461C56.9277 110.515 53.9977 109.299 51.7924 107.094C51.439 106.74 51.439 106.17 51.7924 105.816C52.1457 105.462 52.7157 105.462 53.0691 105.816C54.9314 107.68 57.4101 108.708 60.0461 108.708H68.1941C68.6919 108.708 69.0968 109.113 69.0968 109.611V145.205C69.0968 145.703 68.6919 146.109 68.1941 146.109Z" fill="#180063"/>
<path d="M50.766 122.738C50.6577 122.738 50.5468 122.717 50.4385 122.676C49.9742 122.495 49.7421 121.971 49.9226 121.506L54.6659 109.283C54.8465 108.819 55.3701 108.589 55.8343 108.767C56.2986 108.948 56.5307 109.472 56.3502 109.937L51.6069 122.159C51.4676 122.515 51.1271 122.735 50.766 122.735V122.738Z" fill="#180063"/>
<path d="M60.2527 122.737C59.8916 122.737 59.5485 122.518 59.4118 122.162L54.6685 109.939C54.488 109.474 54.7175 108.95 55.1844 108.769C55.6512 108.589 56.1723 108.821 56.3528 109.286L61.0961 121.508C61.2767 121.973 61.0471 122.497 60.5803 122.678C60.4719 122.719 60.361 122.74 60.2527 122.74V122.737Z" fill="#180063"/>
<path d="M48.4704 121.834C49.5227 124.705 52.2774 126.755 55.5092 126.755C58.7411 126.755 61.4983 124.705 62.5481 121.834H48.4678H48.4704Z" fill="#FFD400"/>
<path d="M55.5092 127.659C51.9988 127.659 48.8289 125.443 47.6218 122.146C47.5212 121.87 47.5598 121.56 47.7301 121.317C47.8977 121.075 48.1763 120.93 48.4703 120.93H62.5507C62.8447 120.93 63.1207 121.075 63.2909 121.317C63.4612 121.56 63.4998 121.867 63.3993 122.146C62.1922 125.443 59.0222 127.659 55.5118 127.659H55.5092ZM49.9096 122.737C51.0986 124.64 53.2085 125.851 55.5092 125.851C57.8099 125.851 59.9198 124.64 61.1088 122.737H49.9122H49.9096Z" fill="#180063"/>
<path d="M72.8031 146.109C72.3053 146.109 71.9004 145.703 71.9004 145.205V109.611C71.9004 109.113 72.3053 108.708 72.8031 108.708H80.9511C83.5871 108.708 86.0633 107.68 87.9281 105.816C88.2815 105.462 88.8515 105.462 89.2048 105.816C89.5582 106.17 89.5582 106.74 89.2048 107.094C86.9995 109.301 84.0695 110.515 80.9511 110.515H73.7059V145.205C73.7059 145.703 73.3009 146.109 72.8031 146.109Z" fill="#180063"/>
<path d="M90.2341 122.737C89.873 122.737 89.53 122.518 89.3933 122.162L84.65 109.939C84.4694 109.474 84.699 108.95 85.1658 108.769C85.6327 108.589 86.1537 108.821 86.3343 109.286L91.0776 121.508C91.2581 121.973 91.0286 122.497 90.5617 122.678C90.4534 122.719 90.3425 122.74 90.2341 122.74V122.737Z" fill="#180063"/>
<path d="M80.745 122.738C80.6367 122.738 80.5258 122.717 80.4175 122.676C79.9532 122.495 79.7211 121.971 79.9016 121.506L84.6449 109.283C84.8255 108.819 85.3491 108.589 85.8133 108.767C86.2776 108.948 86.5097 109.472 86.3292 109.937L81.5859 122.159C81.4466 122.515 81.1061 122.735 80.745 122.735V122.738Z" fill="#180063"/>
<path d="M92.5299 121.834C91.4776 124.705 88.7229 126.755 85.491 126.755C82.2592 126.755 79.5019 124.705 78.4521 121.834H92.5325H92.5299Z" fill="#FFD400"/>
<path d="M85.4882 127.659C81.9778 127.659 78.8079 125.443 77.6008 122.146C77.5002 121.87 77.5389 121.56 77.7091 121.317C77.8767 121.075 78.1553 120.93 78.4493 120.93H92.5297C92.8237 120.93 93.0997 121.075 93.2699 121.317C93.4402 121.56 93.4789 121.867 93.3783 122.146C92.1712 125.443 89.0012 127.659 85.4908 127.659H85.4882ZM79.8886 122.737C81.0776 124.64 83.1875 125.851 85.4882 125.851C87.7889 125.851 89.8988 124.64 91.0879 122.737H79.8912H79.8886Z" fill="#180063"/>
<path d="M31.7746 72.4373C32.4469 72.4373 32.992 71.8917 32.992 71.2186C32.992 70.5456 32.4469 70 31.7746 70C31.1022 70 30.5571 70.5456 30.5571 71.2186C30.5571 71.8917 31.1022 72.4373 31.7746 72.4373Z" fill="#180063"/>
<path d="M31.0289 78.7499C31.7013 78.7499 32.2464 78.2043 32.2464 77.5313C32.2464 76.8582 31.7013 76.3126 31.0289 76.3126C30.3566 76.3126 29.8115 76.8582 29.8115 77.5313C29.8115 78.2043 30.3566 78.7499 31.0289 78.7499Z" fill="#180063"/>
<path d="M37.3356 79.633C38.008 79.633 38.553 79.0874 38.553 78.4143C38.553 77.7413 38.008 77.1957 37.3356 77.1957C36.6632 77.1957 36.1182 77.7413 36.1182 78.4143C36.1182 79.0874 36.6632 79.633 37.3356 79.633Z" fill="#180063"/>
<path d="M109.225 72.4373C109.898 72.4373 110.443 71.8917 110.443 71.2186C110.443 70.5456 109.898 70 109.225 70C108.553 70 108.008 70.5456 108.008 71.2186C108.008 71.8917 108.553 72.4373 109.225 72.4373Z" fill="#180063"/>
<path d="M109.971 78.7499C110.643 78.7499 111.188 78.2043 111.188 77.5313C111.188 76.8582 110.643 76.3126 109.971 76.3126C109.298 76.3126 108.753 76.8582 108.753 77.5313C108.753 78.2043 109.298 78.7499 109.971 78.7499Z" fill="#180063"/>
<path d="M103.665 79.633C104.337 79.633 104.882 79.0874 104.882 78.4143C104.882 77.7413 104.337 77.1957 103.665 77.1957C102.992 77.1957 102.447 77.7413 102.447 78.4143C102.447 79.0874 102.992 79.633 103.665 79.633Z" fill="#180063"/>
<path d="M108.872 112.916C108.872 112.916 131.892 124.924 154.546 97.0891L143.651 88.2048C143.651 88.2048 133.099 103.637 114.652 100.014" fill="#FFD400"/>
<path d="M121.348 116.396C113.687 116.396 108.681 113.835 108.457 113.716C108.016 113.487 107.843 112.939 108.072 112.498C108.302 112.056 108.846 111.883 109.29 112.113C109.365 112.152 115.013 115.015 123.264 114.532C133.973 113.905 144.332 107.92 153.272 97.2156L143.808 89.4983C142.759 90.8306 140.319 93.6345 136.579 96.2112C131.926 99.4179 124.314 102.831 114.477 100.9C113.987 100.804 113.669 100.329 113.765 99.8388C113.86 99.3482 114.335 99.028 114.825 99.1261C122.204 100.577 129.163 99.1081 135.503 94.7602C140.27 91.4915 142.88 87.7297 142.906 87.6936C143.047 87.4844 143.272 87.3476 143.522 87.3115C143.772 87.2753 144.025 87.345 144.221 87.5051L155.116 96.3894C155.302 96.5417 155.42 96.7586 155.443 96.9987C155.467 97.2362 155.397 97.4763 155.245 97.6622C150.001 104.107 144.288 108.968 138.268 112.108C133.427 114.636 128.376 116.061 123.262 116.345C122.607 116.381 121.967 116.399 121.343 116.399L121.348 116.396Z" fill="#180063"/>
<path d="M149.46 103.366C149.163 103.366 148.872 103.218 148.699 102.95C148.663 102.893 145.064 97.324 139.669 92.7928C139.287 92.4726 139.238 91.902 139.558 91.5199C139.878 91.1378 140.448 91.0887 140.829 91.4089C146.444 96.1234 150.066 101.739 150.218 101.977C150.486 102.397 150.365 102.955 149.945 103.224C149.795 103.322 149.625 103.366 149.457 103.366H149.46Z" fill="#180063"/>
<path d="M143.638 108.535C143.301 108.535 142.978 108.343 142.823 108.021C142.323 106.97 139.607 101.491 135.227 96.6656C134.892 96.2964 134.92 95.7258 135.289 95.3902C135.658 95.0545 136.228 95.0829 136.563 95.4522C141.113 100.466 143.932 106.154 144.451 107.244C144.665 107.695 144.474 108.232 144.025 108.449C143.899 108.509 143.767 108.537 143.638 108.537V108.535Z" fill="#180063"/>
<path d="M136.8 112.407C136.416 112.407 136.058 112.16 135.939 111.772C135.918 111.708 133.886 105.227 129.792 99.3637C129.506 98.9558 129.607 98.3903 130.017 98.1063C130.424 97.8197 130.989 97.9204 131.273 98.331C135.534 104.435 137.579 110.967 137.664 111.24C137.811 111.718 137.546 112.224 137.069 112.371C136.981 112.4 136.891 112.413 136.8 112.413V112.407Z" fill="#180063"/>
<path d="M128.281 115.694C127.794 115.694 127.391 115.304 127.378 114.814C127.378 114.747 127.175 107.956 124.825 101.202C124.66 100.73 124.91 100.216 125.379 100.051C125.851 99.8879 126.365 100.136 126.53 100.606C128.975 107.639 129.176 114.478 129.184 114.767C129.197 115.266 128.802 115.681 128.304 115.694C128.297 115.694 128.289 115.694 128.281 115.694Z" fill="#180063"/>
<path d="M118.993 115.438C118.939 115.438 118.885 115.433 118.828 115.423C118.338 115.333 118.013 114.86 118.103 114.37C118.114 114.305 119.272 107.897 118.472 100.972C118.416 100.476 118.771 100.027 119.267 99.9704C119.762 99.9136 120.211 100.27 120.267 100.766C121.098 107.969 119.93 114.426 119.881 114.697C119.801 115.134 119.421 115.436 118.993 115.436V115.438Z" fill="#180063"/>
<path d="M104.229 95.101C104.229 95.101 113.933 94.3109 115.042 103.864C116.151 113.417 108.596 117.096 108.596 117.096" fill="#180063"/>
<path d="M108.599 118C108.263 118 107.944 117.814 107.786 117.491C107.567 117.042 107.755 116.502 108.204 116.283C108.488 116.143 115.168 112.738 114.149 103.967C113.156 95.4159 104.665 95.971 104.304 96.002C103.806 96.0382 103.373 95.669 103.334 95.1732C103.296 94.6775 103.664 94.2412 104.16 94.2025C104.265 94.1947 114.745 93.4615 115.942 103.761C116.553 109.012 114.642 112.575 112.932 114.641C111.077 116.879 109.076 117.871 108.991 117.912C108.864 117.974 108.73 118.002 108.596 118.002L108.599 118Z" fill="#180063"/>
<path d="M87.5518 34.321C90.2084 34.321 92.8651 37.1017 92.8651 41.1785C92.8651 37.1017 95.5218 34.321 98.1784 34.321C95.5218 34.321 92.8651 31.5403 92.8651 27.4635C92.8651 31.5403 90.2084 34.321 87.5518 34.321Z" fill="#FFD400"/>
<path d="M92.865 42.0821C92.3672 42.0821 91.9623 41.6767 91.9623 41.1784C91.9623 38.3022 90.1903 35.2246 87.5517 35.2246C87.0539 35.2246 86.6489 34.8193 86.6489 34.321C86.6489 33.8226 87.0539 33.4173 87.5517 33.4173C90.1903 33.4173 91.9623 30.3397 91.9623 27.4635C91.9623 26.9652 92.3672 26.5598 92.865 26.5598C93.3628 26.5598 93.7678 26.9652 93.7678 27.4635C93.7678 30.3397 95.5397 33.4173 98.1783 33.4173C98.6762 33.4173 99.0811 33.8226 99.0811 34.321C99.0811 34.8193 98.6762 35.2246 98.1783 35.2246C95.5397 35.2246 93.7678 38.3022 93.7678 41.1784C93.7678 41.6767 93.3628 42.0821 92.865 42.0821ZM90.4276 34.321C91.3974 34.9535 92.2615 35.9036 92.865 37.1223C93.4711 35.9036 94.3326 34.9535 95.3024 34.321C94.3326 33.6884 93.4686 32.7383 92.865 31.5196C92.2589 32.7383 91.3974 33.6884 90.4276 34.321Z" fill="#180063"/>
<path d="M63.995 19.4519C63.4972 19.4519 63.0923 19.0465 63.0923 18.5482C63.0923 14.4585 66.4144 11.1331 70.5 11.1331C71.003 11.1331 71.5033 11.1847 71.9908 11.2828C72.4783 11.3835 72.7956 11.8611 72.695 12.3491C72.5944 12.8371 72.1172 13.1521 71.6297 13.054C71.2609 12.9791 70.8792 12.9404 70.5 12.9404C67.41 12.9404 64.8978 15.4551 64.8978 18.5482C64.8978 19.0465 64.4928 19.4519 63.995 19.4519Z" fill="#180063"/>
<path d="M60.4563 21.2308C60.0256 21.2308 59.6438 20.9209 59.569 20.482C59.4581 19.8469 59.4014 19.1962 59.4014 18.5482C59.4014 12.4214 64.3794 7.43835 70.5 7.43835C71.2532 7.43835 72.0038 7.51323 72.7363 7.66298C73.2238 7.76367 73.541 8.24132 73.4404 8.7293C73.3398 9.21727 72.8652 9.53226 72.3752 9.43415C71.7639 9.30764 71.132 9.24567 70.5 9.24567C65.375 9.24567 61.2069 13.418 61.2069 18.5482C61.2069 19.093 61.2533 19.6378 61.3461 20.1696C61.4313 20.6602 61.1037 21.1301 60.6136 21.2153C60.5595 21.2256 60.5079 21.2282 60.4563 21.2282V21.2308Z" fill="#180063"/>
<path d="M70.4998 146.109C57.4151 146.109 48.4985 144.387 43.3219 142.941C41.666 142.479 40.1132 141.967 38.7075 141.425C38.2432 141.244 38.0111 140.723 38.1917 140.256C38.3722 139.791 38.8932 139.558 39.3601 139.739C40.7116 140.263 42.2076 140.754 43.8093 141.201C48.8776 142.615 57.6214 144.301 70.5024 144.301C83.3834 144.301 92.1271 142.615 97.1954 141.201C98.7972 140.754 100.293 140.263 101.645 139.739C102.109 139.558 102.633 139.791 102.813 140.256C102.994 140.72 102.762 141.244 102.297 141.425C100.892 141.97 99.3388 142.479 97.6829 142.941C92.5089 144.387 83.5923 146.109 70.505 146.109H70.4998Z" fill="#180063"/>
</g>
<g clip-path="url(#clip0_312_6831)">
<path d="M304.774 52.8857L292.158 108.784C290.619 115.601 283.74 119.78 276.923 118.241L227.508 107.088L199.074 119.706C197.252 120.523 195.329 119.066 195.769 117.118L199.461 100.758L180.763 96.5375C173.752 94.955 169.573 88.0759 171.068 81.4538L183.684 25.5555C185.267 18.5438 191.951 14.3212 198.963 15.9037L295.122 37.6072C302.134 39.1897 306.313 46.0688 304.774 52.8857Z" fill="#2D3473"/>
<path d="M194.11 52.3038L192.233 51.8802L193.971 44.9027L195.533 45.2552L194.11 52.3038ZM195.435 42.0528C195.723 42.1178 195.948 42.279 196.111 42.5366C196.277 42.7917 196.328 43.0663 196.261 43.3605C196.196 43.6515 196.033 43.8764 195.773 44.0351C195.516 44.1946 195.243 44.2419 194.956 44.1769C194.661 44.1105 194.433 43.9502 194.269 43.6958C194.109 43.4422 194.062 43.1699 194.127 42.8789C194.172 42.6817 194.261 42.5132 194.394 42.3734C194.528 42.2337 194.686 42.1352 194.869 42.0779C195.052 42.0174 195.241 42.009 195.435 42.0528ZM205 45.0169C204.978 44.7368 204.92 44.4772 204.824 44.2382C204.733 43.9967 204.605 43.7793 204.441 43.5861C204.281 43.3936 204.083 43.2317 203.848 43.1004C203.613 42.9659 203.347 42.8651 203.049 42.7979C202.516 42.6775 202.01 42.7044 201.533 42.8787C201.055 43.0529 200.638 43.3732 200.281 43.8398C199.929 44.3038 199.668 44.9076 199.5 45.6512C199.331 46.4013 199.306 47.0632 199.424 47.637C199.543 48.2108 199.782 48.6809 200.141 49.0473C200.5 49.4106 200.958 49.6549 201.514 49.7804C202.019 49.8943 202.477 49.8958 202.889 49.785C203.305 49.6749 203.653 49.4647 203.934 49.1543C204.215 48.8407 204.41 48.443 204.519 47.9613L204.912 48.1162L202.216 47.5077L202.533 46.1013L206.563 47.0109L206.294 48.2039C206.102 49.0542 205.755 49.7488 205.253 50.2878C204.751 50.8269 204.145 51.193 203.435 51.3862C202.726 51.5762 201.961 51.5785 201.14 51.3932C200.225 51.1866 199.468 50.8 198.869 50.2333C198.274 49.664 197.868 48.9557 197.651 48.1084C197.439 47.2585 197.451 46.3098 197.687 45.2623C197.868 44.4605 198.143 43.7699 198.511 43.1906C198.883 42.6119 199.324 42.1491 199.834 41.8021C200.345 41.4518 200.902 41.2243 201.507 41.1195C202.112 41.0115 202.74 41.0309 203.39 41.1775C203.939 41.3016 204.434 41.4981 204.872 41.767C205.312 42.0327 205.683 42.3542 205.985 42.7316C206.29 43.1098 206.517 43.5279 206.665 43.986C206.813 44.4442 206.869 44.9257 206.833 45.4307L205 45.0169ZM207.052 52.5848L208.733 45.1358L210.436 45.52L210.155 46.7615L210.233 46.779C210.466 46.3797 210.773 46.1008 211.156 45.9425C211.542 45.7816 211.948 45.7493 212.375 45.8457C212.472 45.8676 212.579 45.8968 212.697 45.9335C212.818 45.9677 212.918 46.002 212.995 46.0365L212.63 47.6514C212.562 47.6087 212.449 47.5595 212.292 47.5036C212.138 47.4452 211.987 47.3992 211.839 47.3656C211.518 47.2934 211.215 47.298 210.928 47.3793C210.645 47.4582 210.404 47.6025 210.204 47.8121C210.003 48.0218 209.868 48.285 209.796 48.6018L208.808 52.981L207.052 52.5848ZM214.443 54.4109C213.971 54.3044 213.565 54.1244 213.224 53.8709C212.888 53.6149 212.648 53.2956 212.503 52.9129C212.361 52.531 212.346 52.096 212.456 51.6078C212.551 51.1875 212.707 50.8575 212.924 50.6177C213.141 50.3779 213.403 50.2058 213.708 50.1015C214.014 49.9972 214.344 49.9409 214.699 49.9328C215.059 49.9221 215.424 49.9382 215.794 49.9812C216.241 50.0344 216.604 50.0739 216.884 50.0996C217.164 50.1221 217.375 50.1084 217.515 50.0586C217.659 50.0062 217.75 49.896 217.788 49.7278L217.795 49.6988C217.877 49.3334 217.833 49.0261 217.661 48.7767C217.49 48.5274 217.201 48.3568 216.793 48.2648C216.363 48.1678 216.001 48.1845 215.707 48.3151C215.415 48.4465 215.197 48.63 215.052 48.8657L213.466 48.2629C213.697 47.8395 213.996 47.5094 214.362 47.2726C214.729 47.0326 215.144 46.8852 215.609 46.8303C216.074 46.7721 216.566 46.8018 217.087 46.9193C217.446 47.0003 217.794 47.1229 218.13 47.2873C218.467 47.4516 218.76 47.664 219.011 47.9243C219.262 48.1815 219.439 48.495 219.543 48.8649C219.649 49.2356 219.647 49.6682 219.535 50.1629L218.41 55.1483L216.722 54.7674L216.953 53.7441L216.895 53.731C216.742 53.9138 216.547 54.0738 216.313 54.2111C216.082 54.3459 215.808 54.4354 215.493 54.4796C215.181 54.5214 214.831 54.4985 214.443 54.4109ZM215.19 53.2238C215.542 53.3033 215.864 53.3028 216.154 53.2222C216.444 53.1383 216.685 52.9956 216.877 52.7942C217.072 52.5936 217.2 52.3558 217.262 52.081L217.46 51.2032C217.395 51.2361 217.292 51.2569 217.151 51.2658C217.013 51.2754 216.859 51.2765 216.691 51.2692C216.523 51.2618 216.357 51.2515 216.194 51.2384C216.03 51.2253 215.888 51.2137 215.768 51.2035C215.498 51.18 215.251 51.1853 215.026 51.2194C214.8 51.2535 214.612 51.3299 214.459 51.4483C214.307 51.5636 214.206 51.7344 214.155 51.9607C214.082 52.284 214.145 52.5547 214.344 52.7729C214.543 52.991 214.825 53.1414 215.19 53.2238ZM223.392 56.4255C222.648 56.2577 222.046 55.9503 221.586 55.5034C221.13 55.0572 220.823 54.5138 220.665 53.8734C220.511 53.2305 220.519 52.5324 220.689 51.7791C220.86 51.0225 221.156 50.3877 221.578 49.8747C222 49.3584 222.513 48.9984 223.116 48.7948C223.723 48.5887 224.39 48.5677 225.118 48.7319C225.722 48.8683 226.232 49.1006 226.648 49.4288C227.067 49.7545 227.37 50.1507 227.557 50.6176C227.744 51.0813 227.797 51.5858 227.714 52.1313L226.036 51.7526C226.049 51.3784 225.955 51.0428 225.754 50.7459C225.556 50.4465 225.246 50.249 224.822 50.1534C224.464 50.0724 224.126 50.0983 223.811 50.231C223.496 50.3604 223.223 50.5874 222.99 50.912C222.76 51.2373 222.589 51.6505 222.475 52.1517C222.361 52.6593 222.337 53.1125 222.403 53.5114C222.47 53.9071 222.615 54.2338 222.839 54.4916C223.067 54.7469 223.364 54.9157 223.729 54.9982C223.988 55.0566 224.23 55.0602 224.455 55.0092C224.685 54.9557 224.89 54.8509 225.072 54.6947C225.253 54.5386 225.4 54.3322 225.512 54.0755L227.19 54.4542C227.029 54.9717 226.768 55.4039 226.408 55.7507C226.049 56.0943 225.612 56.3286 225.098 56.4538C224.584 56.5758 224.016 56.5664 223.392 56.4255ZM228.057 57.3256L229.738 49.8766L231.494 50.2729L229.813 57.7219L228.057 57.3256ZM230.859 49.0186C230.581 48.9559 230.363 48.8097 230.204 48.5802C230.046 48.3475 229.996 48.1001 230.056 47.8383C230.115 47.5732 230.266 47.3711 230.508 47.232C230.751 47.0898 231.012 47.05 231.29 47.1128C231.571 47.1762 231.789 47.324 231.944 47.556C232.103 47.7856 232.152 48.0329 232.092 48.298C232.033 48.5599 231.882 48.7619 231.64 48.9042C231.401 49.044 231.141 49.0821 230.859 49.0186ZM233.727 58.7635C233.255 58.6569 232.849 58.4769 232.509 58.2234C232.172 57.9674 231.932 57.6481 231.787 57.2655C231.646 56.8836 231.63 56.4485 231.74 55.9603C231.835 55.54 231.991 55.21 232.208 54.9702C232.426 54.7304 232.687 54.5584 232.993 54.4541C233.298 54.3497 233.629 54.2935 233.984 54.2853C234.343 54.2746 234.708 54.2908 235.079 54.3337C235.526 54.3869 235.889 54.4264 236.168 54.4522C236.449 54.4747 236.659 54.461 236.799 54.4111C236.944 54.3588 237.035 54.2485 237.073 54.0804L237.079 54.0513C237.162 53.686 237.117 53.3786 236.946 53.1293C236.775 52.8799 236.485 52.7093 236.078 52.6174C235.648 52.5203 235.286 52.5371 234.991 52.6677C234.7 52.799 234.482 52.9825 234.337 53.2182L232.75 52.6155C232.982 52.192 233.28 51.8619 233.646 51.6252C234.013 51.3852 234.429 51.2377 234.893 51.1828C235.358 51.1247 235.851 51.1543 236.371 51.2718C236.73 51.3528 237.078 51.4755 237.415 51.6398C237.751 51.8041 238.045 52.0165 238.295 52.2769C238.546 52.534 238.724 52.8476 238.827 53.2175C238.934 53.5881 238.931 54.0208 238.82 54.5154L237.694 59.5008L236.007 59.1199L236.238 58.0966L236.179 58.0835C236.026 58.2663 235.832 58.4264 235.597 58.5637C235.366 58.6984 235.093 58.7879 234.777 58.8322C234.465 58.8739 234.115 58.851 233.727 58.7635ZM234.474 57.5764C234.827 57.6559 235.148 57.6553 235.438 57.5747C235.729 57.4908 235.97 57.3482 236.161 57.1468C236.356 56.9461 236.485 56.7084 236.547 56.4335L236.745 55.5558C236.68 55.5886 236.576 55.6095 236.435 55.6184C236.297 55.628 236.144 55.6291 235.976 55.6217C235.807 55.6143 235.642 55.6041 235.478 55.5909C235.314 55.5778 235.173 55.5662 235.053 55.5561C234.783 55.5325 234.535 55.5378 234.31 55.572C234.085 55.6061 233.896 55.6824 233.744 55.8009C233.592 55.9161 233.491 56.0869 233.439 56.3132C233.366 56.6365 233.429 56.9073 233.628 57.1254C233.827 57.3436 234.109 57.4939 234.474 57.5764ZM246.584 55.748L244.944 55.5614C244.935 55.3895 244.89 55.2197 244.809 55.0519C244.732 54.8848 244.609 54.7365 244.441 54.6068C244.273 54.4772 244.053 54.3818 243.782 54.3205C243.416 54.238 243.091 54.2479 242.807 54.3501C242.525 54.4531 242.358 54.631 242.304 54.8839C242.252 55.0998 242.291 55.2939 242.422 55.4662C242.557 55.6392 242.803 55.812 243.162 55.9847L244.371 56.5431C245.041 56.8541 245.511 57.2132 245.779 57.6203C246.051 58.0281 246.128 58.4992 246.011 59.0333C245.901 59.5014 245.671 59.8842 245.318 60.1818C244.969 60.4769 244.533 60.6706 244.01 60.7631C243.486 60.8555 242.914 60.8317 242.293 60.6916C241.381 60.4858 240.69 60.1294 240.22 59.6224C239.751 59.1122 239.54 58.5023 239.588 57.7928L241.338 58.0143C241.339 58.3681 241.447 58.6591 241.66 58.8873C241.874 59.1156 242.183 59.2754 242.587 59.3666C243.004 59.4607 243.358 59.4506 243.649 59.3361C243.943 59.2224 244.118 59.0395 244.175 58.7873C244.223 58.5739 244.181 58.3791 244.047 58.2029C243.917 58.0274 243.689 57.8637 243.363 57.712L242.152 57.1585C241.472 56.8485 240.999 56.4787 240.736 56.0489C240.474 55.6159 240.406 55.1282 240.531 54.5858C240.632 54.126 240.846 53.7564 241.174 53.4771C241.506 53.1953 241.919 53.0133 242.413 52.9312C242.912 52.8465 243.458 52.8713 244.053 53.0056C244.926 53.2026 245.571 53.5436 245.988 54.0285C246.409 54.5141 246.607 55.0873 246.584 55.748ZM249.712 65.1488L252.023 54.9065L253.75 55.2961L253.472 56.5279L253.574 56.5509C253.705 56.3903 253.876 56.2267 254.087 56.0603C254.299 55.8906 254.561 55.7647 254.876 55.6827C255.19 55.5975 255.566 55.6041 256.003 55.7026C256.578 55.8325 257.064 56.0967 257.46 56.4953C257.86 56.8913 258.131 57.4062 258.273 58.0397C258.419 58.6707 258.399 59.4001 258.212 60.2278C258.028 61.0457 257.737 61.7106 257.339 62.2222C256.942 62.7339 256.478 63.0879 255.948 63.2843C255.418 63.4806 254.86 63.5127 254.275 63.3806C253.848 63.2843 253.51 63.1333 253.261 62.9275C253.012 62.7218 252.824 62.4994 252.698 62.2603C252.576 62.0186 252.488 61.7967 252.435 61.5945L252.363 61.5781L251.467 65.545L249.712 65.1488ZM252.904 59.0195C252.796 59.5012 252.768 59.9385 252.822 60.3312C252.88 60.7247 253.015 61.0525 253.227 61.3145C253.444 61.5741 253.738 61.7458 254.11 61.8298C254.498 61.9173 254.846 61.8872 255.155 61.7394C255.464 61.5883 255.726 61.3467 255.94 61.0145C256.158 60.6799 256.32 60.2797 256.425 59.8142C256.529 59.3518 256.556 58.9263 256.504 58.5375C256.453 58.1487 256.319 57.8229 256.103 57.5601C255.887 57.2973 255.584 57.1218 255.192 57.0335C254.817 56.9489 254.477 56.9756 254.17 57.1137C253.864 57.2518 253.603 57.4834 253.387 57.8083C253.174 58.1341 253.013 58.5378 252.904 59.0195ZM262.094 65.1607C261.366 64.9965 260.772 64.6942 260.311 64.2537C259.85 63.8133 259.537 63.2721 259.372 62.6302C259.211 61.989 259.218 61.2837 259.391 60.5142C259.565 59.7448 259.863 59.1035 260.284 58.5905C260.709 58.0781 261.224 57.7222 261.83 57.5225C262.436 57.3228 263.102 57.3051 263.83 57.4693C264.557 57.6334 265.152 57.9358 265.613 58.3762C266.074 58.8167 266.385 59.3592 266.545 60.0035C266.709 60.6487 266.704 61.356 266.53 62.1254C266.356 62.8949 266.057 63.5342 265.633 64.0433C265.212 64.5531 264.699 64.9078 264.093 65.1075C263.488 65.3072 262.821 65.3249 262.094 65.1607ZM262.421 63.7565C262.815 63.8456 263.17 63.8117 263.484 63.6549C263.798 63.4949 264.062 63.2452 264.274 62.9058C264.49 62.5672 264.649 62.1715 264.751 61.7189C264.854 61.263 264.881 60.8358 264.832 60.4374C264.786 60.0364 264.656 59.696 264.44 59.4163C264.225 59.1367 263.92 58.9523 263.525 58.8633C263.121 58.7721 262.76 58.8061 262.442 58.9654C262.127 59.1254 261.862 59.3763 261.645 59.7182C261.433 60.0576 261.275 60.4552 261.172 60.9111C261.07 61.3637 261.042 61.7889 261.088 62.1867C261.138 62.5852 261.27 62.9243 261.486 63.2039C261.705 63.4811 262.017 63.6653 262.421 63.7565ZM267.186 66.1571L268.867 58.7082L270.569 59.0923L270.289 60.3338L270.367 60.3514C270.6 59.952 270.907 59.6732 271.29 59.5148C271.676 59.354 272.082 59.3217 272.509 59.418C272.606 59.4399 272.713 59.4692 272.831 59.5059C272.952 59.5401 273.051 59.5744 273.129 59.6088L272.764 61.2237C272.696 61.1811 272.583 61.1318 272.425 61.0759C272.272 61.0175 272.121 60.9716 271.972 60.938C271.652 60.8657 271.349 60.8703 271.062 60.9517C270.779 61.0306 270.538 61.1748 270.338 61.3845C270.137 61.5941 270.001 61.8573 269.93 62.1742L268.942 66.5534L267.186 66.1571ZM279.985 58.608L277.744 68.54L275.988 68.1438L278.23 58.2118L279.985 58.608ZM281.658 69.5816C281.186 69.4751 280.78 69.295 280.44 69.0416C280.104 68.7856 279.863 68.4662 279.718 68.0836C279.577 67.7017 279.561 67.2667 279.671 66.7785C279.766 66.3582 279.922 66.0281 280.14 65.7884C280.357 65.5486 280.618 65.3765 280.924 65.2722C281.229 65.1679 281.56 65.1116 281.915 65.1035C282.274 65.0928 282.639 65.1089 283.01 65.1518C283.457 65.2051 283.82 65.2446 284.099 65.2703C284.38 65.2928 284.59 65.2791 284.73 65.2293C284.875 65.1769 284.966 65.0667 285.004 64.8985L285.01 64.8694C285.093 64.5041 285.048 64.1968 284.877 63.9474C284.706 63.6981 284.416 63.5274 284.009 63.4355C283.579 63.3384 283.217 63.3552 282.922 63.4858C282.631 63.6171 282.413 63.8007 282.268 64.0364L280.681 63.4336C280.913 63.0102 281.211 62.6801 281.577 62.4433C281.944 62.2033 282.36 62.0558 282.824 62.0009C283.289 61.9428 283.782 61.9725 284.302 62.09C284.661 62.171 285.009 62.2936 285.346 62.458C285.682 62.6223 285.976 62.8346 286.226 63.095C286.477 63.3522 286.655 63.6657 286.758 64.0356C286.865 64.4063 286.862 64.8389 286.751 65.3336L285.625 70.319L283.938 69.938L284.169 68.9148L284.11 68.9016C283.957 69.0845 283.763 69.2445 283.528 69.3818C283.297 69.5166 283.024 69.6061 282.708 69.6503C282.396 69.6921 282.046 69.6692 281.658 69.5816ZM282.405 68.3945C282.758 68.474 283.079 68.4735 283.369 68.3928C283.66 68.309 283.901 68.1663 284.093 67.9649C284.287 67.7642 284.416 67.5265 284.478 67.2517L284.676 66.3739C284.611 66.4068 284.507 66.4276 284.366 66.4365C284.228 66.4461 284.075 66.4472 283.907 66.4398C283.738 66.4325 283.573 66.4222 283.409 66.4091C283.246 66.396 283.104 66.3843 282.984 66.3742C282.714 66.3507 282.466 66.356 282.241 66.3901C282.016 66.4242 281.827 66.5005 281.675 66.619C281.523 66.7343 281.422 66.9051 281.37 67.1314C281.298 67.4547 281.36 67.7254 281.559 67.9436C281.758 68.1617 282.04 68.312 282.405 68.3945ZM188.125 68.8161L189.807 61.3671L191.562 61.7633L189.881 69.2123L188.125 68.8161ZM190.928 60.5091C190.65 60.4464 190.431 60.3002 190.273 60.0707C190.114 59.8379 190.065 59.5906 190.124 59.3287C190.184 59.0636 190.335 58.8615 190.577 58.7225C190.82 58.5802 191.08 58.5405 191.358 58.6032C191.639 58.6667 191.858 58.8145 192.012 59.0465C192.171 59.276 192.221 59.5233 192.161 59.7884C192.102 60.0503 191.951 60.2524 191.708 60.3947C191.469 60.5345 191.209 60.5726 190.928 60.5091ZM194.427 65.6514L193.442 70.016L191.686 69.6198L193.368 62.1708L195.046 62.5495L194.76 63.8153L194.847 63.835C195.113 63.4566 195.461 63.1868 195.891 63.0258C196.325 62.8654 196.82 62.848 197.376 62.9735C197.89 63.0896 198.313 63.3006 198.645 63.6065C198.98 63.9132 199.205 64.2988 199.321 64.7633C199.441 65.2285 199.432 65.7582 199.294 66.3524L198.224 71.0953L196.468 70.699L197.477 66.2277C197.59 65.7298 197.548 65.311 197.353 64.9714C197.161 64.6325 196.839 64.4119 196.386 64.3098C196.079 64.2404 195.791 64.2467 195.521 64.3285C195.255 64.4077 195.025 64.5581 194.833 64.7797C194.643 65.0019 194.508 65.2925 194.427 65.6514ZM205.462 64.9006L205.156 66.2585L200.753 65.2647L201.059 63.9068L205.462 64.9006ZM200.479 71.6042L202.319 63.4521C202.432 62.9509 202.629 62.5572 202.911 62.2709C203.197 61.9853 203.534 61.7999 203.924 61.7145C204.313 61.6292 204.723 61.635 205.153 61.7321C205.457 61.8007 205.722 61.8859 205.947 61.9876C206.172 62.0894 206.336 62.1724 206.441 62.2368L205.785 63.5158C205.716 63.4764 205.627 63.4326 205.519 63.3845C205.412 63.3331 205.289 63.2917 205.15 63.2603C204.823 63.1866 204.574 63.2136 204.403 63.3414C204.235 63.4667 204.118 63.6748 204.053 63.9658L202.239 72.0016L200.479 71.6042ZM208.092 73.4756C207.365 73.3114 206.771 73.0091 206.309 72.5686C205.848 72.1281 205.535 71.5869 205.371 70.945C205.21 70.3039 205.216 69.5986 205.39 68.8291C205.564 68.0596 205.861 67.4184 206.283 66.9053C206.708 66.393 207.223 66.037 207.829 65.8373C208.434 65.6377 209.101 65.6199 209.828 65.7841C210.556 65.9483 211.15 66.2506 211.611 66.6911C212.073 67.1316 212.383 67.674 212.544 68.3184C212.707 68.9635 212.702 69.6708 212.529 70.4403C212.355 71.2098 212.056 71.849 211.632 72.3581C211.211 72.8679 210.698 73.2227 210.092 73.4224C209.486 73.622 208.82 73.6398 208.092 73.4756ZM208.42 72.0714C208.814 72.1604 209.168 72.1265 209.482 71.9698C209.797 71.8097 210.061 71.56 210.273 71.2207C210.489 70.882 210.648 70.4864 210.75 70.0337C210.853 69.5779 210.88 69.1507 210.83 68.7522C210.785 68.3512 210.654 68.0109 210.439 67.7312C210.223 67.4515 209.918 67.2672 209.524 67.1781C209.12 67.0869 208.759 67.121 208.441 67.2802C208.126 67.4403 207.86 67.6912 207.644 68.0331C207.431 68.3725 207.274 68.7701 207.171 69.226C207.069 69.6786 207.041 70.1038 207.087 70.5015C207.136 70.9 207.269 71.2391 207.484 71.5188C207.704 71.796 208.015 71.9802 208.42 72.0714ZM213.185 74.472L214.866 67.023L216.568 67.4072L216.288 68.6487L216.365 68.6662C216.598 68.2669 216.906 67.988 217.288 67.8297C217.674 67.6688 218.081 67.6365 218.508 67.7329C218.605 67.7548 218.712 67.7841 218.829 67.8207C218.951 67.8549 219.05 67.8892 219.127 67.9237L218.763 69.5386C218.694 69.4959 218.581 69.4467 218.424 69.3908C218.271 69.3324 218.12 69.2864 217.971 69.2528C217.651 69.1806 217.347 69.1852 217.061 69.2665C216.778 69.3454 216.536 69.4897 216.336 69.6993C216.136 69.909 216 70.1722 215.929 70.489L214.94 74.8682L213.185 74.472ZM218.599 75.6941L220.28 68.2451L221.958 68.6238L221.673 69.8896L221.76 69.9093C222.012 69.5175 222.344 69.2425 222.757 69.0843C223.17 68.9228 223.626 68.8982 224.124 69.0106C224.628 69.1245 225.026 69.3433 225.316 69.6671C225.611 69.9883 225.781 70.3752 225.829 70.8276L225.906 70.8451C226.165 70.4685 226.517 70.2015 226.964 70.0441C227.414 69.8841 227.91 69.8651 228.45 69.987C229.135 70.1417 229.645 70.4845 229.981 71.0155C230.316 71.5466 230.39 72.2275 230.203 73.0584L229.074 78.0583L227.314 77.661L228.381 72.9327C228.485 72.4703 228.439 72.1047 228.241 71.8359C228.044 71.5638 227.768 71.3877 227.413 71.3074C226.989 71.2118 226.628 71.2696 226.329 71.4807C226.034 71.6893 225.839 72.0037 225.744 72.424L224.695 77.07L222.974 76.6814L224.057 71.8803C224.144 71.4955 224.097 71.1621 223.916 70.88C223.738 70.5987 223.463 70.416 223.092 70.3321C222.839 70.2752 222.595 70.2881 222.359 70.3707C222.124 70.4501 221.918 70.5923 221.743 70.7973C221.568 70.9992 221.446 71.2536 221.377 71.5608L220.355 76.0903L218.599 75.6941ZM232.965 79.0945C232.493 78.9879 232.087 78.8079 231.746 78.5544C231.41 78.2984 231.17 77.9791 231.025 77.5965C230.883 77.2146 230.868 76.7795 230.978 76.2913C231.073 75.871 231.229 75.541 231.446 75.3012C231.663 75.0614 231.925 74.8894 232.23 74.7851C232.536 74.6807 232.866 74.6245 233.221 74.6163C233.581 74.6056 233.946 74.6218 234.316 74.6647C234.763 74.718 235.126 74.7574 235.406 74.7832C235.686 74.8057 235.897 74.792 236.037 74.7421C236.181 74.6898 236.272 74.5795 236.31 74.4114L236.317 74.3823C236.399 74.017 236.355 73.7096 236.183 73.4603C236.012 73.2109 235.723 73.0403 235.315 72.9484C234.885 72.8513 234.523 72.8681 234.229 72.9987C233.937 73.13 233.719 73.3135 233.574 73.5492L231.988 72.9465C232.219 72.5231 232.518 72.1929 232.884 71.9562C233.251 71.7162 233.666 71.5687 234.131 71.5138C234.596 71.4557 235.088 71.4853 235.609 71.6028C235.968 71.6838 236.316 71.8065 236.652 71.9708C236.989 72.1351 237.282 72.3475 237.533 72.6079C237.784 72.865 237.961 73.1786 238.065 73.5485C238.171 73.9191 238.169 74.3518 238.057 74.8464L236.932 79.8318L235.244 79.4509L235.475 78.4276L235.417 78.4145C235.264 78.5973 235.069 78.7574 234.835 78.8947C234.604 79.0294 234.33 79.1189 234.015 79.1632C233.703 79.2049 233.353 79.182 232.965 79.0945ZM233.712 77.9074C234.064 77.9869 234.386 77.9863 234.676 77.9057C234.966 77.8218 235.207 77.6792 235.399 77.4778C235.594 77.2771 235.722 77.0394 235.784 76.7645L235.982 75.8868C235.917 75.9196 235.814 75.9405 235.673 75.9494C235.535 75.959 235.381 75.9601 235.213 75.9527C235.045 75.9453 234.879 75.9351 234.716 75.9219C234.552 75.9088 234.41 75.8972 234.29 75.8871C234.02 75.8635 233.773 75.8688 233.548 75.903C233.322 75.9371 233.134 76.0134 232.981 76.1319C232.829 76.2471 232.728 76.4179 232.677 76.6442C232.604 76.9675 232.667 77.2383 232.866 77.4564C233.065 77.6746 233.347 77.8249 233.712 77.9074ZM241.914 81.1091C241.17 80.9413 240.568 80.6339 240.108 80.1869C239.652 79.7407 239.345 79.1974 239.187 78.557C239.033 77.914 239.041 77.2159 239.211 76.4626C239.382 75.7061 239.678 75.0713 240.1 74.5582C240.522 74.0419 241.035 73.682 241.638 73.4784C242.245 73.2722 242.912 73.2512 243.64 73.4154C244.244 73.5519 244.754 73.7842 245.17 74.1123C245.589 74.438 245.892 74.8343 246.079 75.3012C246.266 75.7648 246.319 76.2694 246.236 76.8148L244.558 76.4361C244.571 76.0619 244.477 75.7264 244.276 75.4295C244.078 75.1301 243.768 74.9326 243.344 74.837C242.986 74.756 242.648 74.7818 242.333 74.9145C242.018 75.044 241.745 75.271 241.512 75.5956C241.282 75.9209 241.111 76.3341 240.997 76.8352C240.883 77.3428 240.859 77.796 240.925 78.1949C240.992 78.5906 241.137 78.9173 241.361 79.1751C241.589 79.4304 241.886 79.5993 242.251 79.6817C242.51 79.7401 242.752 79.7438 242.977 79.6928C243.207 79.6392 243.412 79.5344 243.594 79.3783C243.775 79.2221 243.922 79.0157 244.034 78.7591L245.712 79.1378C245.551 79.6553 245.29 80.0874 244.93 80.4342C244.571 80.7778 244.134 81.0122 243.62 81.1374C243.106 81.2594 242.538 81.2499 241.914 81.1091ZM246.579 82.0092L248.26 74.5602L250.016 74.9564L248.335 82.4054L246.579 82.0092ZM249.381 73.7022C249.103 73.6394 248.885 73.4933 248.726 73.2638C248.568 73.031 248.518 72.7837 248.578 72.5218C248.637 72.2567 248.788 72.0546 249.03 71.9156C249.273 71.7733 249.534 71.7335 249.812 71.7963C250.093 71.8598 250.311 72.0075 250.466 72.2396C250.625 72.4691 250.674 72.7164 250.614 72.9815C250.555 73.2434 250.404 73.4455 250.162 73.5878C249.923 73.7275 249.663 73.7657 249.381 73.7022ZM253.356 83.6917C252.629 83.5275 252.034 83.2252 251.573 82.7847C251.112 82.3442 250.799 81.8031 250.635 81.1612C250.474 80.52 250.48 79.8147 250.654 79.0452C250.827 78.2758 251.125 77.6345 251.547 77.1215C251.971 76.6091 252.487 76.2531 253.092 76.0535C253.698 75.8538 254.365 75.8361 255.092 76.0002C255.82 76.1644 256.414 76.4668 256.875 76.9072C257.336 77.3477 257.647 77.8901 257.807 78.5345C257.971 79.1797 257.966 79.887 257.792 80.6564C257.619 81.4259 257.32 82.0652 256.896 82.5743C256.475 83.0841 255.962 83.4388 255.356 83.6385C254.75 83.8382 254.084 83.8559 253.356 83.6917ZM253.683 82.2875C254.078 82.3765 254.432 82.3427 254.746 82.1859C255.061 82.0259 255.324 81.7762 255.537 81.4368C255.753 81.0981 255.912 80.7025 256.014 80.2499C256.117 79.794 256.143 79.3668 256.094 78.9683C256.049 78.5674 255.918 78.227 255.703 77.9473C255.487 77.6676 255.182 77.4833 254.788 77.3943C254.384 77.3031 254.023 77.3371 253.705 77.4964C253.39 77.6564 253.124 77.9073 252.908 78.2492C252.695 78.5886 252.538 78.9862 252.435 79.4421C252.332 79.8947 252.304 80.3199 252.351 80.7177C252.4 81.1162 252.532 81.4552 252.748 81.7349C252.967 82.0121 253.279 82.1963 253.683 82.2875ZM254.617 74.9655L256.204 72.9944L257.921 73.3819L255.932 75.2621L254.617 74.9655ZM261.189 80.7197L260.204 85.0844L258.448 84.6881L260.13 77.2391L261.808 77.6179L261.522 78.8836L261.609 78.9033C261.875 78.5249 262.223 78.2552 262.653 78.0941C263.087 77.9338 263.582 77.9164 264.138 78.0419C264.652 78.1579 265.075 78.3689 265.407 78.6749C265.742 78.9815 265.967 79.3671 266.083 79.8316C266.203 80.2968 266.194 80.8265 266.056 81.4207L264.986 86.1636L263.23 85.7674L264.239 81.296C264.352 80.7981 264.31 80.3794 264.115 80.0397C263.923 79.7008 263.601 79.4803 263.148 79.3781C262.841 79.3088 262.553 79.315 262.283 79.3968C262.017 79.4761 261.787 79.6265 261.595 79.848C261.405 80.0703 261.27 80.3609 261.189 80.7197ZM271.16 77.1193L269.418 84.0957L267.856 83.7433L269.284 76.6957L271.16 77.1193ZM267.954 86.9456C267.66 86.8792 267.431 86.7189 267.267 86.4645C267.107 86.2109 267.06 85.9354 267.128 85.6379C267.193 85.347 267.353 85.1214 267.607 84.9611C267.863 84.8017 268.139 84.7551 268.433 84.8215C268.721 84.8865 268.946 85.0461 269.11 85.3005C269.277 85.5555 269.327 85.8286 269.261 86.1195C269.217 86.3168 269.126 86.4849 268.99 86.6239C268.856 86.7637 268.698 86.8638 268.514 86.9243C268.335 86.9823 268.148 86.9894 267.954 86.9456Z" fill="white"/>
<path d="M237.124 125.706C240.477 126.398 243.105 130.599 242.044 135.743C243.105 130.599 247.182 127.782 250.535 128.474C247.182 127.782 244.554 123.581 245.615 118.437C244.554 123.581 240.477 126.398 237.124 125.706Z" fill="#FFD400"/>
<path d="M241.809 136.884C241.18 136.754 240.775 136.137 240.905 135.508C241.654 131.879 240.219 127.534 236.889 126.847C236.26 126.717 235.855 126.1 235.985 125.471C236.114 124.842 236.731 124.436 237.359 124.566C240.689 125.253 243.727 121.831 244.476 118.202C244.606 117.573 245.223 117.167 245.851 117.297C246.479 117.426 246.885 118.043 246.755 118.672C246.006 122.301 247.441 126.647 250.771 127.334C251.399 127.463 251.805 128.08 251.675 128.709C251.545 129.338 250.928 129.744 250.3 129.614C246.97 128.927 243.932 132.349 243.183 135.979C243.054 136.607 242.437 137.014 241.809 136.884ZM240.754 126.455C241.813 127.506 242.656 128.93 243.1 130.625C244.183 129.245 245.517 128.271 246.906 127.725C245.847 126.674 245.004 125.25 244.559 123.555C243.477 124.935 242.142 125.91 240.754 126.455Z" fill="#2D3473"/>
<path d="M183.472 17.6337C182.796 17.4869 182.366 16.8172 182.513 16.1408C183.719 10.5895 189.209 7.05519 194.756 8.25996C195.439 8.40827 196.103 8.62592 196.739 8.9036C197.371 9.18403 197.658 9.92518 197.381 10.5586C197.104 11.1921 196.36 11.4782 195.727 11.2013C195.248 10.9909 194.741 10.8258 194.226 10.714C190.032 9.80278 185.88 12.4755 184.968 16.674C184.821 17.3504 184.151 17.7812 183.476 17.6344L183.472 17.6337Z" fill="#2D3473"/>
<path d="M178.142 19.0047C177.558 18.8777 177.131 18.3446 177.159 17.7267C177.195 16.8319 177.31 15.932 177.501 15.0523C179.308 6.73585 187.535 1.43985 195.844 3.24471C196.867 3.4668 197.864 3.78977 198.814 4.20904C199.446 4.48947 199.736 5.23138 199.455 5.86409C199.175 6.4968 198.434 6.78716 197.801 6.50673C197.005 6.15398 196.169 5.88429 195.311 5.69795C188.354 4.18667 181.465 8.62104 179.952 15.5847C179.792 16.3242 179.694 17.0774 179.663 17.8267C179.634 18.5177 179.051 19.0589 178.361 19.0301C178.284 19.0281 178.213 19.0164 178.143 19.0012L178.142 19.0047Z" fill="#2D3473"/>
</g>
<defs>
<clipPath id="clip0_312_6831">
<rect width="143" height="140" fill="white" transform="translate(164.43)"/>
</clipPath>
</defs>
</svg>
