<svg width="909" height="467" viewBox="0 0 909 467" fill="none" xmlns="http://www.w3.org/2000/svg">
<path d="M360.17 362.437V133.83H413.073V362.399H360.17V362.437Z" fill="white"/>
<path d="M615.054 362.437V344.16C601.007 356.81 576.198 366.175 545.725 366.175C454.38 366.175 451.586 304.36 451.586 248.624C451.586 179.748 464.689 130.13 540.589 130.13C565.436 130.13 592.586 132.924 609.919 150.71V35.9531H662.86V362.437H615.054ZM552.295 178.804C512.986 178.804 504.527 195.192 504.527 248.587C504.527 301.981 512.948 318.369 552.295 318.369C597.76 318.369 610.825 305.719 610.825 248.587C610.825 191.454 597.76 178.804 552.295 178.804Z" fill="white"/>
<path d="M811.715 130.583C773.69 130.583 714.329 143.082 710.893 183.562C708.891 193.38 713.196 202.027 723.807 208.182C737.779 216.226 750.127 212.6 757.981 199.006C758.661 197.798 759.227 196.665 759.756 195.495C772.859 174.726 789.625 175.481 808.883 175.481C855.178 175.481 857.067 189.037 857.067 219.397H798.612C749.976 219.397 701.377 226.874 701.377 293.258C701.377 348.881 735.966 366.175 790.229 366.175C822.93 366.175 846.795 356.357 861.296 343.745V362.475H908.497V213.809C908.46 154.863 872.964 130.583 811.715 130.583ZM798.612 322.712C762.626 322.712 754.205 311.95 754.205 292.352C754.205 267.996 764.514 262.408 796.762 262.408H858.011C858.011 302.132 852.875 322.712 798.612 322.712Z" fill="white"/>
<path d="M321.615 201.347C321.615 201.234 321.653 201.083 321.653 200.97C321.653 200.63 321.578 200.365 321.578 200.026C320.86 151.502 296.126 130.092 247.641 130.092C220.944 130.092 199.835 138.513 184.844 154.41V133.83H139.002V362.399H191.905V263.125C191.905 245.339 190.999 220.077 197.079 203.651C202.705 188.169 216.261 176.463 238.276 176.463C260.329 176.463 270.638 181.145 270.638 202.254H270.713C271.204 217.509 280.153 226.496 296.126 226.496C312.137 226.496 321.087 217.509 321.578 202.254H321.653C321.653 201.914 321.615 201.649 321.615 201.347Z" fill="white"/>
<path d="M65.8934 133.83V119.745C65.8934 94.4832 62.6459 74.3565 100.445 74.3187V32.2904V32.2527C69.0653 32.6681 47.768 40.4846 34.0606 53.7388C18.6163 68.73 14.387 87.0065 14.387 110.872V133.83H0V177.86H14.387V362.437H67.3283V177.86H100.483V133.83H65.8934Z" fill="white"/>
<path d="M381.577 0.0800781C346.459 0.0800781 325.729 18.9985 325.729 55.0227C325.729 90.1406 345.515 110.872 381.577 110.872C417.564 110.872 437.351 90.1406 437.351 55.0227C437.351 18.9985 416.658 0.0800781 381.577 0.0800781ZM372.326 97.353C350.726 97.353 338.832 84.9296 338.832 63.8588C338.832 42.2216 351.255 30.8933 372.326 30.8933C393.434 30.8933 405.782 42.2216 405.782 63.8588C405.82 84.9296 393.925 97.353 372.326 97.353Z" fill="white"/>
<path d="M566.684 197.798C548.898 197.798 538.4 207.39 538.4 225.666C538.4 243.489 548.445 253.987 566.684 253.987C584.96 253.987 595.004 243.489 595.004 225.666C595.004 207.39 584.507 197.798 566.684 197.798Z" fill="white"/>
<path d="M591.373 465.903V443.737C591.373 435.618 592.166 431.729 583.707 431.729C573.172 431.729 573.965 438.979 573.965 446.304V465.903H564.223V423.761H572.681V427.122C575.098 424.969 578.912 423.081 584.84 423.081C601.833 423.081 601.153 433.768 601.153 442.944V465.903H591.373Z" fill="white"/>
<path d="M493.345 423.119C486.322 423.119 475.371 425.423 474.729 432.899C474.352 434.712 475.145 436.298 477.108 437.431C479.676 438.903 481.979 438.261 483.414 435.731C483.528 435.505 483.641 435.316 483.754 435.089C486.171 431.276 489.267 431.389 492.817 431.389C501.351 431.389 501.728 433.881 501.728 439.508H490.929C481.942 439.508 472.992 440.905 472.992 453.139C472.992 463.41 479.374 466.62 489.381 466.62C495.422 466.62 499.84 464.808 502.484 462.466V465.94H511.207V438.488C511.207 427.613 504.636 423.119 493.345 423.119ZM490.929 458.577C484.283 458.577 482.735 456.576 482.735 452.988C482.735 448.495 484.623 447.475 490.589 447.475H501.88C501.88 454.801 500.936 458.577 490.929 458.577Z" fill="white"/>
<path d="M645.148 457.973C636.349 457.973 635.292 454.536 635.292 444.87C635.292 435.203 636.311 431.729 645.148 431.729C648.584 431.729 653.531 431.729 653.606 436.373C653.606 439.243 655.268 440.942 658.213 440.942C661.196 440.942 662.82 439.243 662.82 436.336C662.82 436.109 662.82 435.882 662.782 435.656C662.367 424.894 652.436 423.081 644.846 423.081C627.324 423.081 625.512 432.748 625.512 444.643C625.512 456.538 627.324 466.545 644.846 466.545C652.624 466.545 662.782 464.656 662.782 453.253H653.531C653.531 457.973 648.584 457.973 645.148 457.973Z" fill="white"/>
<path d="M608.4 466.015V423.307H618.294V466.015H608.4Z" fill="white"/>
<path d="M538.886 457.973C530.087 457.973 529.068 454.536 529.068 444.87C529.068 435.203 530.087 431.729 538.886 431.729C542.322 431.729 547.269 431.729 547.344 436.373C547.344 439.243 549.006 440.942 551.951 440.942C554.934 440.942 556.558 439.243 556.558 436.336C556.558 436.109 556.558 435.882 556.52 435.656C556.105 424.894 546.174 423.081 538.584 423.081C521.063 423.081 519.25 432.748 519.25 444.643C519.25 456.538 521.063 466.545 538.584 466.545C546.363 466.545 556.52 464.656 556.52 453.253H547.269C547.269 457.973 542.36 457.973 538.886 457.973Z" fill="white"/>
<path d="M461.322 453.328L461.36 408.618H451.617V450.571C451.617 458.652 455.091 463.297 461.36 465.222C463.21 465.789 465.287 466.129 467.59 466.242V457.746C462.795 457.368 461.737 455.858 461.322 453.328Z" fill="white"/>
</svg>
