<svg width="350" height="300" viewBox="0 0 350 300" fill="none" xmlns="http://www.w3.org/2000/svg">
<path d="M193.131 237.375C190.243 235.114 186.42 233.979 181.655 233.979C178.767 233.979 175.945 234.361 173.19 235.124C170.434 235.887 167.962 236.901 165.769 238.166L169.782 245.828C171.653 244.777 173.365 244.014 174.915 243.539C176.465 243.065 178.044 242.828 179.651 242.828C181.523 242.828 182.969 243.209 183.985 243.972C185.002 244.735 185.512 245.828 185.512 247.247V249.299H181.499C178.933 249.299 176.513 249.536 174.239 250.011C171.965 250.485 169.985 251.22 168.302 252.22C166.615 253.221 165.277 254.509 164.289 256.091C163.297 257.673 162.805 259.566 162.805 261.776C162.805 263.409 163.084 264.949 163.647 266.396C164.209 267.842 165.022 269.094 166.095 270.145C167.163 271.197 168.515 272.039 170.146 272.671C171.776 273.304 173.691 273.62 175.884 273.62C178.45 273.62 180.686 273.188 182.586 272.318C183.777 271.774 184.808 271.127 185.677 270.383V272.751H197.471V248.187C197.471 243.237 196.024 239.632 193.136 237.366L193.131 237.375ZM185.588 261.781C185.158 262.679 184.425 263.493 183.38 264.228C182.336 264.967 181.173 265.335 179.892 265.335C178.611 265.335 177.472 265.033 176.479 264.428C175.487 263.823 174.995 262.702 174.995 261.069C174.995 260.492 175.128 259.924 175.397 259.371C175.662 258.817 176.106 258.343 176.72 257.947C177.335 257.552 178.153 257.226 179.169 256.961C180.185 256.7 181.442 256.542 182.941 256.486L185.588 256.407V261.776V261.781Z" fill="#180063"/>
<path d="M74.5442 273.625C73.2066 273.625 71.8973 273.481 70.6117 273.193C69.326 272.904 68.2861 272.551 67.4826 272.127V290.922H55.6896V234.849H64.5143L65.6392 238.878C67.1895 237.352 68.9951 236.152 71.056 235.287C73.1168 234.417 75.3761 233.984 77.834 233.984C80.2919 233.984 82.5417 234.431 84.5742 235.328C86.6067 236.226 88.3177 237.501 89.7074 239.157C91.097 240.813 92.1794 242.828 92.9546 245.2C93.7298 247.568 94.1174 250.201 94.1174 253.1C94.1174 256.366 93.6069 259.273 92.5906 261.827C91.5744 264.381 90.1848 266.526 88.417 268.266C86.6492 270.006 84.5789 271.332 82.1967 272.253C79.8145 273.174 77.2621 273.635 74.5348 273.635L74.5442 273.625ZM74.4639 242.665C72.8568 242.665 71.4388 243.032 70.2099 243.772C68.9762 244.512 68.0687 245.247 67.4826 245.982V263.358C68.8203 264.516 70.6636 265.093 73.0175 265.093C74.0858 265.093 75.1587 264.884 76.2269 264.46C77.2952 264.042 78.2452 263.367 79.0771 262.446C79.9043 261.525 80.5896 260.329 81.1238 258.855C81.6579 257.38 81.9273 255.565 81.9273 253.407C81.9273 250.406 81.2845 247.866 80.0035 245.787C78.7179 243.707 76.8745 242.665 74.4686 242.665H74.4639Z" fill="#180063"/>
<path d="M143.705 272.755V223H155.417V272.755H143.705Z" fill="#180063"/>
<path d="M230.765 243.218H220.896V259.25C220.896 260.985 221.284 262.199 222.059 262.883C222.834 263.567 223.916 263.911 225.306 263.911C226.374 263.911 227.447 263.804 228.515 263.595C229.584 263.386 230.415 263.097 231.002 262.725L232.765 270.704C231.852 271.178 230.477 271.639 228.633 272.085C226.79 272.532 224.824 272.755 222.735 272.755C217.757 272.755 214.241 271.806 212.185 269.913C210.124 268.019 209.093 265.149 209.093 261.306V243.223H203.076V234.854H209.093V223.326H220.886V234.854H230.756V243.223L230.765 243.218Z" fill="#180063"/>
<path d="M217.781 226.066H212.213V234.537H217.781V226.066Z" fill="#FFD400"/>
<path d="M238.063 272.755V234.849H247.37L248.575 241.483C249.057 240.534 249.644 239.599 250.338 238.678C251.033 237.757 251.865 236.952 252.825 236.268C253.789 235.584 254.895 235.031 256.152 234.612C257.409 234.193 258.813 233.979 260.364 233.979C261.541 233.979 262.623 234.123 263.611 234.412C264.599 234.7 265.388 235.031 265.979 235.398L264.055 244.479C263.464 244.163 262.717 243.874 261.81 243.609C260.898 243.349 259.778 243.214 258.44 243.214C255.977 243.214 253.931 244.005 252.3 245.582C250.669 247.163 249.851 249.899 249.851 253.793V272.746H238.058L238.063 272.755Z" fill="#180063"/>
<path d="M325.123 272.755H313.25V234.849H322.477L323.843 239.59C325.554 237.854 327.482 236.482 329.619 235.482C331.76 234.482 334.085 233.979 336.6 233.979C340.934 233.979 344.248 235.138 346.549 237.454C348.847 239.771 350 243.167 350 247.643V272.755H338.127V248.824C338.127 246.982 337.687 245.521 336.803 244.442C335.919 243.363 334.624 242.823 332.913 242.823C331.627 242.823 330.276 243.19 328.862 243.93C327.444 244.67 326.201 245.642 325.133 246.852V272.755H325.123Z" fill="#180063"/>
<path d="M304.425 245.116C303.409 242.697 302.02 240.655 300.252 238.994C298.484 237.333 296.385 236.087 293.951 235.245C291.517 234.402 288.884 233.979 286.048 233.979C286.048 233.979 286.048 233.979 286.043 233.979C286.043 233.979 286.043 233.979 286.039 233.979C283.203 233.979 280.556 234.44 278.093 235.361C275.631 236.282 273.494 237.612 271.674 239.348C269.855 241.083 268.423 243.218 267.383 245.745C266.47 247.954 265.969 250.429 265.856 253.16C265.856 253.165 265.856 253.169 265.856 253.174C265.846 253.383 265.837 253.588 265.832 253.802H265.842C265.842 253.988 265.832 254.17 265.832 254.356C265.832 257.408 266.338 260.134 267.359 262.53C268.375 264.926 269.765 266.94 271.533 268.573C273.296 270.206 275.394 271.457 277.833 272.323C280.268 273.192 282.9 273.625 285.736 273.625C288.572 273.625 291.219 273.165 293.682 272.243C296.14 271.322 298.281 269.992 300.101 268.257C301.92 266.521 303.348 264.414 304.392 261.939C305.437 259.464 305.957 256.673 305.957 253.57C305.957 250.467 305.446 247.54 304.43 245.121L304.425 245.116ZM293.11 259.175C292.68 260.599 292.108 261.743 291.385 262.609C290.661 263.479 289.834 264.111 288.898 264.502C287.963 264.898 286.984 265.093 285.968 265.093C283.883 265.093 282.035 264.2 280.433 262.409C278.826 260.618 278.027 257.803 278.027 253.96C278.027 253.793 278.027 253.63 278.032 253.467C278.06 253.109 278.424 244.716 285.798 244.716C290.638 244.716 292.618 248.387 293.351 251.188C293.639 252.286 293.734 253.249 293.739 253.802H293.748C293.748 253.853 293.748 253.904 293.748 253.96C293.748 256.012 293.535 257.752 293.105 259.171L293.11 259.175Z" fill="#180063"/>
<path d="M288.436 229.166H280.378L285.908 217H297.205L288.436 229.166Z" fill="#180063"/>
<path d="M296.466 250.736H302.662C302.464 249.094 302.09 247.601 301.533 246.284C300.687 244.27 299.529 242.563 298.087 241.213C296.65 239.864 294.911 238.831 292.907 238.138C290.813 237.417 288.501 237.05 286.039 237.05C283.576 237.05 281.298 237.445 279.204 238.231C277.153 238.999 275.352 240.115 273.849 241.553C272.35 242.986 271.145 244.786 270.271 246.903C269.788 248.075 269.434 249.355 269.217 250.741H275.39C275.735 249.494 276.273 248.145 277.025 246.898C279.057 243.516 282.177 241.655 285.807 241.655C292.221 241.655 295.435 246.429 296.475 250.741L296.466 250.736Z" fill="#33BAFF"/>
<path d="M152.317 226.066H146.82V234.519H152.317V226.066Z" fill="#FFD400"/>
<path d="M321.933 261.222H316.365V269.694H321.933V261.222Z" fill="#FFD400"/>
<path d="M346.885 261.222H341.317V269.694H346.885V261.222Z" fill="#FFD400"/>
<path d="M246.746 261.222H241.178V269.694H246.746V261.222Z" fill="#FFD400"/>
<path d="M194.356 261.222H188.788V269.694H194.356V261.222Z" fill="#FFD400"/>
<path d="M64.3677 279.385H58.7997V287.856H64.3677V279.385Z" fill="#FFD400"/>
<path d="M136.166 251.169C136.166 241.176 127.904 233.044 117.751 233.044C109.285 233.044 102.139 238.696 99.9973 246.368C99.9973 246.368 99.9879 246.401 99.9737 246.456C99.6806 247.522 99.4869 248.624 99.4018 249.755C98.9197 253.63 98.7542 259.994 101.827 264.405C101.836 264.418 101.845 264.432 101.86 264.451C102.9 266.214 104.18 267.722 105.721 268.964C107.673 270.545 109.947 271.718 112.542 272.476C115.137 273.239 117.878 273.621 120.766 273.621C123.976 273.621 126.689 273.355 128.91 272.83C131.132 272.304 132.961 271.699 134.407 271.015L132.243 262.962C131.118 263.544 129.728 264.042 128.069 264.465C126.41 264.888 124.486 265.098 122.293 265.098C119.136 265.098 116.517 264.493 114.428 263.283C112.343 262.074 111.299 260.152 111.299 257.519V257.203H136.175V252.23C136.175 251.923 136.17 251.625 136.161 251.327C136.166 251.276 136.175 251.229 136.175 251.178L136.166 251.169ZM110.888 250.159C111.393 246.503 114.593 244.437 117.751 244.437C120.908 244.437 124.042 246.717 124.571 250.159H110.892H110.888Z" fill="#180063"/>
<path d="M31.3756 223H18.3773L0 272.755H13.868L17.621 262.092H33.2237L36.6742 272.755H49.5922L31.3756 223ZM20.6744 253.407L25.817 238.79C26.0392 239.557 26.2708 240.343 26.5166 241.167C27.183 243.377 27.8401 245.461 28.4829 247.405L30.4066 253.407H20.6697H20.6744Z" fill="#180063"/>
<path d="M20.5563 226.066L4.44781 269.689H11.6512L26.9987 226.066H20.5563Z" fill="#33BAFF"/>
<path d="M117.751 236.152C109.871 236.152 103.372 242.604 102.578 250.155H107.787C108.538 245.8 112.164 241.325 117.751 241.325C123.338 241.325 126.925 245.8 127.681 250.155H132.923C132.129 242.604 125.625 236.152 117.751 236.152Z" fill="#33BAFF"/>
<path d="M175.499 200.802C229.898 200.802 273.998 157.397 273.998 103.855C273.998 50.3125 229.898 6.90784 175.499 6.90784C121.099 6.90784 77 50.3125 77 103.855C77 157.397 121.099 200.802 175.499 200.802Z" fill="#FFD400"/>
<mask id="mask0_391_9465" style="mask-type:luminance" maskUnits="userSpaceOnUse" x="77" y="6" width="197" height="195">
<path d="M175.499 200.802C229.898 200.802 273.998 157.397 273.998 103.855C273.998 50.3125 229.898 6.90784 175.499 6.90784C121.099 6.90784 77 50.3125 77 103.855C77 157.397 121.099 200.802 175.499 200.802Z" fill="white"/>
</mask>
<g mask="url(#mask0_391_9465)">
<path d="M226.348 83.0782H239.555V75.4532H222.288" fill="#FFD400"/>
<path d="M239.555 84.3296H226.348C225.644 84.3296 225.077 83.7714 225.077 83.0782C225.077 82.385 225.644 81.8267 226.348 81.8267H238.283V76.7047H222.288C221.584 76.7047 221.017 76.1464 221.017 75.4532C221.017 74.76 221.584 74.2018 222.288 74.2018H239.555C240.259 74.2018 240.826 74.76 240.826 75.4532V83.0782C240.826 83.7714 240.259 84.3296 239.555 84.3296Z" fill="#180063"/>
<path d="M239.555 71.4896V87.0466C243.917 87.0466 247.458 83.5621 247.458 79.2681C247.458 74.9741 243.917 71.4896 239.555 71.4896Z" fill="#180063"/>
<path d="M239.555 88.298C238.85 88.298 238.283 87.7397 238.283 87.0465V71.4896C238.283 70.7964 238.85 70.2382 239.555 70.2382C244.612 70.2382 248.729 74.2902 248.729 79.2681C248.729 84.2459 244.612 88.298 239.555 88.298ZM240.826 72.862V85.6741C243.875 85.088 246.186 82.4362 246.186 79.2681C246.186 76.0999 243.875 73.4482 240.826 72.862Z" fill="#180063"/>
<path d="M124.65 83.0782H111.443V75.4532H128.71" fill="#FFD400"/>
<path d="M124.65 84.3296H111.443C110.739 84.3296 110.172 83.7714 110.172 83.0782V75.4532C110.172 74.76 110.739 74.2018 111.443 74.2018H128.71C129.414 74.2018 129.981 74.76 129.981 75.4532C129.981 76.1464 129.414 76.7047 128.71 76.7047H112.715V81.8267H124.65C125.354 81.8267 125.921 82.385 125.921 83.0782C125.921 83.7714 125.354 84.3296 124.65 84.3296Z" fill="#180063"/>
<path d="M111.443 71.4896V87.0466C107.08 87.0466 103.54 83.5621 103.54 79.2681C103.54 74.9741 107.08 71.4896 111.443 71.4896Z" fill="#180063"/>
<path d="M111.443 88.298C106.386 88.298 102.269 84.2459 102.269 79.2681C102.269 74.2902 106.386 70.2382 111.443 70.2382C112.147 70.2382 112.715 70.7964 112.715 71.4896V87.0465C112.715 87.7397 112.147 88.298 111.443 88.298ZM110.172 72.862C107.123 73.4482 104.812 76.0999 104.812 79.2681C104.812 82.4362 107.123 85.088 110.172 85.6741V72.862Z" fill="#180063"/>
<path d="M134.958 131.033C134.958 131.033 143.665 127.781 175.494 127.781C207.324 127.781 215.888 130.675 215.888 130.675C215.888 130.675 207.465 136.113 175.494 136.113C143.523 136.113 134.958 131.033 134.958 131.033Z" fill="#180063"/>
<path d="M200.947 122.115H150.046V135.746H200.947V122.115Z" fill="#FFD400"/>
<path d="M149.772 134.75C149.772 134.75 155.879 123.222 187.344 123.222C150.419 123.222 149.772 123.431 149.772 123.431V134.75Z" fill="#180063"/>
<path d="M149.772 136.002C149.672 136.002 149.568 135.988 149.469 135.964C148.902 135.829 148.5 135.327 148.5 134.75V123.431C148.5 122.892 148.855 122.413 149.375 122.24C149.606 122.166 150.216 121.971 187.344 121.971C188.048 121.971 188.615 122.529 188.615 123.222C188.615 123.915 188.048 124.473 187.344 124.473C156.999 124.473 150.958 135.22 150.897 135.327C150.675 135.746 150.235 136.002 149.772 136.002ZM151.043 124.636V131.368C153.336 129.298 157.566 126.516 164.987 124.515C156.304 124.548 152.608 124.604 151.043 124.641V124.636Z" fill="#180063"/>
<path d="M212.135 58.3936C190.809 41.5247 160.189 41.5247 138.863 58.3936C125.567 68.9122 113.745 86.986 113.745 118.007C113.745 122.347 167.78 123.436 175.499 123.436C183.218 123.436 237.253 122.352 237.253 118.007C237.253 86.9813 225.431 68.9076 212.135 58.3936Z" fill="#33BAFF"/>
<path d="M175.499 124.683C171.779 124.683 156.228 124.413 141.656 123.594C114.705 122.078 112.474 120.086 112.474 118.002C112.474 103.506 115.064 90.7078 120.164 79.9751C124.413 71.0383 130.435 63.4459 138.064 57.412C148.604 49.0752 161.896 44.4835 175.494 44.4835C189.093 44.4835 202.389 49.0752 212.925 57.412C220.554 63.4459 226.575 71.0383 230.825 79.9751C235.929 90.7124 238.515 103.506 238.515 118.002C238.515 120.082 236.284 122.078 209.332 123.594C194.76 124.413 179.209 124.683 175.49 124.683H175.499ZM115.017 117.723C115.782 118.249 120.046 119.942 143.438 121.189C157.509 121.938 172.063 122.185 175.499 122.185C178.935 122.185 193.489 121.938 207.56 121.189C230.952 119.942 235.216 118.249 235.981 117.723C235.92 91.8848 227.629 72.2525 211.341 59.3659C201.25 51.3874 188.526 46.9911 175.504 46.9911C162.482 46.9911 149.753 51.3874 139.666 59.3659C123.373 72.2525 115.083 91.8848 115.026 117.723H115.017Z" fill="#180063"/>
<path d="M149.772 136.002C149.067 136.002 148.5 135.443 148.5 134.75V123.431C148.5 122.738 149.067 122.18 149.772 122.18C150.476 122.18 151.043 122.738 151.043 123.431V134.75C151.043 135.443 150.476 136.002 149.772 136.002Z" fill="#180063"/>
<path d="M201.226 136.002C200.522 136.002 199.955 135.443 199.955 134.75V123.431C199.955 122.738 200.522 122.18 201.226 122.18C201.93 122.18 202.498 122.738 202.498 123.431V134.75C202.498 135.443 201.93 136.002 201.226 136.002Z" fill="#180063"/>
<path d="M127.986 138.626C127.986 138.626 114.317 137.532 112.752 150.763C111.188 163.994 121.832 169.093 121.832 169.093" fill="#180063"/>
<path d="M121.832 170.34C121.648 170.34 121.459 170.298 121.279 170.214C121.166 170.158 109.841 164.566 111.49 150.614C113.178 136.351 127.939 137.365 128.09 137.374C128.79 137.43 129.31 138.035 129.253 138.723C129.197 139.412 128.592 139.923 127.887 139.868C127.377 139.826 115.418 139.053 114.019 150.903C112.582 163.05 121.993 167.767 122.395 167.962C123.023 168.269 123.283 169.018 122.976 169.637C122.754 170.079 122.305 170.34 121.832 170.34Z" fill="#180063"/>
<path d="M113.358 147.828C113.358 147.828 77.5436 155.09 77.5436 204.817H97.3389C97.3389 204.817 95.1457 179.007 118.514 166.743" fill="#FFD400"/>
<path d="M97.3388 206.068H77.5436C76.8393 206.068 76.2721 205.51 76.2721 204.817C76.2721 193.303 78.1911 183.082 81.9725 174.438C85.0164 167.483 89.261 161.533 94.5926 156.75C103.701 148.581 112.719 146.678 113.098 146.604C113.788 146.464 114.459 146.902 114.601 147.576C114.742 148.255 114.298 148.916 113.613 149.056C113.447 149.088 104.76 150.972 96.2044 158.695C85.0684 168.744 79.0703 184.24 78.8245 203.565H96.0154C95.9776 201.216 96.1477 196.066 97.9439 190.028C100.18 182.51 105.455 172.177 117.914 165.641C118.533 165.315 119.304 165.548 119.635 166.157C119.965 166.767 119.729 167.525 119.11 167.851C96.7433 179.588 98.5819 204.463 98.6056 204.715C98.6339 205.063 98.5158 205.408 98.2747 205.664C98.0337 205.919 97.6933 206.068 97.3388 206.068Z" fill="#180063"/>
<path d="M97.5893 198.904H97.5704C87.2473 198.755 78.2998 195.899 77.9263 195.778C77.2599 195.564 76.8959 194.856 77.1134 194.196C77.3308 193.54 78.0492 193.182 78.7204 193.396C78.8102 193.424 87.6869 196.257 97.6082 196.396C98.3124 196.406 98.8702 196.973 98.8607 197.666C98.8513 198.35 98.2841 198.899 97.5893 198.899V198.904Z" fill="#180063"/>
<path d="M98.8324 190.846C98.771 190.846 98.7048 190.846 98.6433 190.832C89.2231 189.432 81.0838 185.794 79.5476 185.078C78.9142 184.78 78.6401 184.036 78.9426 183.412C79.2451 182.789 80.0014 182.524 80.6347 182.817C82.1142 183.505 89.951 187.013 99.0215 188.357C99.7163 188.46 100.194 189.097 100.09 189.781C99.9952 190.4 99.4516 190.846 98.8324 190.846Z" fill="#180063"/>
<path d="M102.212 183.156C102.099 183.156 101.98 183.142 101.862 183.11C91.785 180.286 83.745 175.066 83.4094 174.843C82.8233 174.461 82.6673 173.684 83.0549 173.107C83.4425 172.531 84.2318 172.377 84.8179 172.759C84.8983 172.81 92.8769 177.988 102.557 180.7C103.233 180.891 103.625 181.584 103.432 182.244C103.271 182.793 102.765 183.152 102.207 183.152L102.212 183.156Z" fill="#180063"/>
<path d="M105.677 176.694C105.45 176.694 105.218 176.634 105.01 176.508C96.091 171.098 89.7904 163.929 89.5257 163.626C89.0672 163.101 89.1286 162.31 89.6627 161.863C90.1969 161.412 91.0004 161.472 91.4541 161.998C91.5156 162.068 97.769 169.181 106.343 174.378C106.939 174.74 107.128 175.513 106.759 176.099C106.518 176.485 106.102 176.694 105.677 176.694Z" fill="#180063"/>
<path d="M112.596 171.205C112.275 171.205 111.958 171.088 111.708 170.851C104.396 163.84 99.9385 155.885 99.7494 155.55C99.4138 154.945 99.6407 154.182 100.255 153.852C100.87 153.522 101.645 153.745 101.98 154.35C102.023 154.429 106.457 162.324 113.48 169.06C113.981 169.544 113.996 170.335 113.504 170.828C113.253 171.079 112.923 171.205 112.592 171.205H112.596Z" fill="#180063"/>
<path d="M175.499 233.907C135.308 233.907 119.445 223.602 118.788 223.16C118.439 222.928 118.231 222.542 118.231 222.128C118.231 199.471 119.998 176.699 123.213 158.011C124.555 150.191 128.143 131.801 132.397 129.893C132.746 129.735 133.148 129.744 133.493 129.912C133.592 129.958 144.076 134.857 175.494 134.857C191.91 134.857 202.455 133.513 208.411 132.382C214.867 131.159 217.476 129.921 217.5 129.907C217.84 129.74 218.247 129.735 218.592 129.889C222.846 131.796 226.434 150.186 227.776 158.006C230.99 176.694 232.758 199.462 232.758 222.123C232.758 222.537 232.55 222.923 232.2 223.156C231.543 223.593 215.68 233.902 175.49 233.902L175.499 233.907ZM120.778 221.425C123.893 223.193 140.271 231.404 175.499 231.404C196.032 231.404 209.975 228.599 218.053 226.245C224.945 224.235 228.854 222.211 230.22 221.43C230.182 199.155 228.433 176.825 225.28 158.472C222.17 140.365 219.136 133.908 217.892 132.48C214.995 133.624 203.372 137.369 175.499 137.369C147.626 137.369 136.003 133.624 133.106 132.48C131.862 133.908 128.828 140.37 125.718 158.472C122.565 176.825 120.811 199.16 120.778 221.43V221.425Z" fill="#180063"/>
<path d="M132.926 132.285C132.368 132.285 131.858 131.922 131.702 131.363C131.517 130.698 131.914 130.01 132.59 129.823C132.992 129.716 142.46 127.172 149.772 127.172C150.476 127.172 151.043 127.73 151.043 128.423C151.043 129.116 150.476 129.675 149.772 129.675C142.809 129.675 133.361 132.21 133.266 132.238C133.153 132.271 133.039 132.285 132.926 132.285Z" fill="#180063"/>
<path d="M218.067 132.285C217.954 132.285 217.84 132.271 217.727 132.238C217.632 132.21 208.184 129.675 201.221 129.675C200.517 129.675 199.95 129.116 199.95 128.423C199.95 127.73 200.517 127.172 201.221 127.172C208.534 127.172 218.001 129.716 218.403 129.823C219.079 130.005 219.476 130.698 219.291 131.363C219.135 131.917 218.625 132.285 218.067 132.285Z" fill="#180063"/>
<path d="M175.499 46.9958C174.795 46.9958 174.227 46.4375 174.227 45.7444V36.6307C174.227 35.9375 174.795 35.3793 175.499 35.3793C176.203 35.3793 176.77 35.9375 176.77 36.6307V45.7444C176.77 46.4375 176.203 46.9958 175.499 46.9958Z" fill="#180063"/>
<path d="M175.499 36.6261C177.76 36.6261 179.592 34.8223 179.592 32.5973C179.592 30.3722 177.76 28.5685 175.499 28.5685C173.238 28.5685 171.406 30.3722 171.406 32.5973C171.406 34.8223 173.238 36.6261 175.499 36.6261Z" fill="#180063"/>
<path d="M175.499 37.8775C172.54 37.8775 170.134 35.5095 170.134 32.5973C170.134 29.685 172.54 27.317 175.499 27.317C178.458 27.317 180.864 29.685 180.864 32.5973C180.864 35.5095 178.458 37.8775 175.499 37.8775ZM175.499 29.8199C173.944 29.8199 172.677 31.0667 172.677 32.5973C172.677 34.1278 173.944 35.3746 175.499 35.3746C177.054 35.3746 178.321 34.1278 178.321 32.5973C178.321 31.0667 177.054 29.8199 175.499 29.8199Z" fill="#180063"/>
<path d="M175.499 232.656C215.761 232.656 231.491 222.128 231.491 222.128C231.491 171.079 222.723 133.122 218.067 131.033C218.067 131.033 207.763 136.113 175.499 136.113C143.235 136.113 132.931 131.033 132.931 131.033C128.275 133.122 119.507 171.079 119.507 222.128C119.507 222.128 135.242 232.656 175.499 232.656Z" fill="#33BAFF"/>
<path d="M175.499 233.907C135.308 233.907 119.445 223.602 118.788 223.16C118.439 222.928 118.231 222.542 118.231 222.128C118.231 199.471 119.998 176.699 123.213 158.011C124.555 150.191 128.143 131.801 132.397 129.893C132.746 129.735 133.148 129.744 133.493 129.912C133.592 129.958 144.076 134.857 175.494 134.857C191.91 134.857 202.455 133.513 208.411 132.382C214.867 131.159 217.476 129.921 217.5 129.907C217.84 129.74 218.247 129.735 218.592 129.889C222.846 131.796 226.434 150.186 227.776 158.006C230.99 176.694 232.758 199.462 232.758 222.123C232.758 222.537 232.55 222.923 232.2 223.156C231.543 223.593 215.68 233.902 175.49 233.902L175.499 233.907ZM120.778 221.425C123.893 223.193 140.271 231.404 175.499 231.404C196.032 231.404 209.975 228.599 218.053 226.245C224.945 224.235 228.854 222.211 230.22 221.43C230.182 199.155 228.433 176.825 225.28 158.472C222.17 140.365 219.136 133.908 217.892 132.48C214.995 133.624 203.372 137.369 175.499 137.369C147.626 137.369 136.003 133.624 133.106 132.48C131.862 133.908 128.828 140.37 125.718 158.472C122.565 176.825 120.811 199.16 120.778 221.43V221.425Z" fill="#180063"/>
<path d="M175.499 221.928C156.914 221.928 144.275 219.527 136.944 217.517C134.306 216.792 132.155 216.066 130.454 215.419C130.794 193.084 132.775 175.694 134.457 164.687C135.96 154.866 137.534 148.121 138.763 143.854C146.175 145.38 157.873 146.841 175.494 146.841C193.115 146.841 204.818 145.38 212.225 143.854C213.459 148.121 215.028 154.866 216.531 164.687C218.214 175.699 220.194 193.084 220.535 215.419C218.838 216.066 216.682 216.792 214.045 217.517C206.714 219.532 194.075 221.928 175.49 221.928H175.499Z" fill="white"/>
<path d="M175.499 223.179C156.767 223.179 144.01 220.755 136.603 218.722C134.235 218.071 132.009 217.355 130 216.587C129.504 216.396 129.178 215.926 129.187 215.401C129.532 192.782 131.56 175.238 133.205 164.501C134.807 154.029 136.452 147.306 137.549 143.51C137.733 142.878 138.38 142.496 139.033 142.626C148.576 144.59 160.846 145.59 175.504 145.59C190.161 145.59 202.431 144.594 211.975 142.626C212.632 142.491 213.274 142.878 213.459 143.51C214.555 147.302 216.2 154.024 217.803 164.501C219.447 175.238 221.475 192.786 221.82 215.401C221.83 215.926 221.504 216.396 221.007 216.587C218.994 217.355 216.772 218.071 214.404 218.722C206.997 220.755 194.235 223.179 175.508 223.179H175.499ZM131.739 214.559C133.451 215.182 135.313 215.768 137.284 216.308C144.539 218.299 157.055 220.676 175.499 220.676C193.942 220.676 206.459 218.304 213.714 216.308C215.685 215.768 217.543 215.177 219.258 214.559C218.88 192.503 216.895 175.392 215.283 164.873C213.846 155.494 212.386 149.186 211.322 145.311C201.789 147.158 189.745 148.093 175.499 148.093C161.253 148.093 149.209 147.158 139.676 145.311C138.612 149.181 137.152 155.49 135.715 164.873C134.103 175.396 132.118 192.507 131.739 214.559Z" fill="#180063"/>
<path d="M153.407 74.3414C147.234 74.3414 142.228 79.2681 142.228 85.3439H164.585C164.585 79.2681 159.58 74.3414 153.407 74.3414Z" fill="white"/>
<path d="M164.585 86.5953H142.223C141.519 86.5953 140.952 86.037 140.952 85.3439C140.952 78.5842 146.539 73.09 153.402 73.09C160.265 73.09 165.852 78.5889 165.852 85.3439C165.852 86.037 165.285 86.5953 164.58 86.5953H164.585ZM143.58 84.0924H163.233C162.609 79.3053 158.44 75.5929 153.407 75.5929C148.373 75.5929 144.204 79.3053 143.58 84.0924Z" fill="#180063"/>
<path d="M197.591 74.3414C191.418 74.3414 186.413 79.2681 186.413 85.3439H208.77C208.77 79.2681 203.764 74.3414 197.591 74.3414Z" fill="white"/>
<path d="M208.77 86.5953H186.408C185.704 86.5953 185.137 86.037 185.137 85.3439C185.137 78.5842 190.724 73.09 197.587 73.09C204.45 73.09 210.037 78.5889 210.037 85.3439C210.037 86.037 209.469 86.5953 208.765 86.5953H208.77ZM187.765 84.0924H207.418C206.794 79.3053 202.625 75.5929 197.591 75.5929C192.557 75.5929 188.389 79.3053 187.765 84.0924Z" fill="#180063"/>
<path d="M153.407 78.7517C149.706 78.7517 146.709 81.7012 146.709 85.3439H160.104C160.104 81.7012 157.108 78.7517 153.407 78.7517Z" fill="#180063"/>
<path d="M160.104 86.5953H146.709C146.005 86.5953 145.437 86.037 145.437 85.3438C145.437 81.0173 149.011 77.5002 153.407 77.5002C157.802 77.5002 161.376 81.0173 161.376 85.3438C161.376 86.037 160.808 86.5953 160.104 86.5953ZM148.132 84.0924H158.681C158.11 81.7477 155.959 80.0031 153.407 80.0031C150.854 80.0031 148.703 81.7477 148.132 84.0924Z" fill="#180063"/>
<path d="M197.591 78.7517C193.89 78.7517 190.894 81.7012 190.894 85.3439H204.289C204.289 81.7012 201.292 78.7517 197.591 78.7517Z" fill="#180063"/>
<path d="M204.289 86.5953H190.894C190.189 86.5953 189.622 86.037 189.622 85.3438C189.622 81.0173 193.196 77.5002 197.591 77.5002C201.987 77.5002 205.561 81.0173 205.561 85.3438C205.561 86.037 204.993 86.5953 204.289 86.5953ZM192.316 84.0924H202.866C202.294 81.7477 200.144 80.0031 197.591 80.0031C195.039 80.0031 192.888 81.7477 192.316 84.0924Z" fill="#180063"/>
<path d="M175.499 109.987C169.264 109.987 164.193 104.995 164.193 98.8585V96.9325C164.193 96.2393 164.76 95.681 165.464 95.681C166.168 95.681 166.736 96.2393 166.736 96.9325V98.8585C166.736 103.613 170.668 107.484 175.499 107.484C180.33 107.484 184.262 103.613 184.262 98.8585V96.9325C184.262 96.2393 184.829 95.681 185.534 95.681C186.238 95.681 186.805 96.2393 186.805 96.9325V98.8585C186.805 104.995 181.733 109.987 175.499 109.987Z" fill="#180063"/>
<path d="M175.608 129.028C168.069 129.028 160.525 128.646 153.033 127.879L149.639 127.535C148.94 127.465 148.434 126.846 148.505 126.162C148.576 125.474 149.2 124.976 149.899 125.046L153.293 125.39C169.16 127.009 185.236 126.893 201.075 125.046C201.774 124.962 202.403 125.455 202.488 126.139C202.568 126.827 202.072 127.446 201.377 127.53C192.832 128.525 184.22 129.028 175.608 129.028Z" fill="#180063"/>
<path d="M175.608 133.415C168.069 133.415 160.525 133.034 153.033 132.266L149.639 131.922C148.94 131.852 148.434 131.233 148.505 130.549C148.576 129.861 149.2 129.363 149.899 129.433L153.293 129.777C169.16 131.396 185.236 131.28 201.075 129.433C201.774 129.349 202.403 129.842 202.488 130.526C202.568 131.215 202.072 131.833 201.377 131.917C192.832 132.913 184.22 133.415 175.608 133.415Z" fill="#180063"/>
<path d="M172.252 209.269C171.547 209.269 170.98 208.711 170.98 208.018V159.97H160.775C156.384 159.97 152.258 158.286 149.152 155.229C148.656 154.741 148.656 153.95 149.152 153.461C149.649 152.973 150.452 152.973 150.949 153.461C153.572 156.043 157.065 157.467 160.775 157.467H172.252C172.956 157.467 173.523 158.025 173.523 158.718V208.018C173.523 208.711 172.956 209.269 172.252 209.269Z" fill="#180063"/>
<path d="M147.701 176.899C147.55 176.899 147.394 176.871 147.243 176.815C146.591 176.564 146.265 175.838 146.52 175.196L153.203 158.267C153.459 157.625 154.196 157.304 154.848 157.555C155.5 157.807 155.827 158.532 155.571 159.174L148.888 176.104C148.694 176.597 148.212 176.904 147.701 176.904V176.899Z" fill="#180063"/>
<path d="M161.064 176.899C160.553 176.899 160.071 176.597 159.877 176.099L153.194 159.17C152.939 158.528 153.265 157.802 153.917 157.551C154.574 157.299 155.307 157.62 155.562 158.262L162.245 175.192C162.501 175.834 162.174 176.56 161.522 176.811C161.371 176.867 161.215 176.895 161.064 176.895V176.899Z" fill="#180063"/>
<path d="M144.468 175.648C145.948 179.625 149.828 182.463 154.385 182.463C158.941 182.463 162.822 179.625 164.301 175.648H144.468Z" fill="#FFD400"/>
<path d="M154.385 183.715C149.441 183.715 144.974 180.644 143.277 176.08C143.135 175.699 143.192 175.266 143.429 174.931C143.665 174.596 144.057 174.396 144.473 174.396H164.306C164.722 174.396 165.11 174.596 165.351 174.931C165.587 175.266 165.644 175.694 165.502 176.08C163.8 180.649 159.338 183.715 154.394 183.715H154.385ZM146.501 176.899C148.174 179.537 151.147 181.212 154.385 181.212C157.623 181.212 160.596 179.537 162.269 176.899H146.496H146.501Z" fill="#180063"/>
<path d="M178.746 209.269C178.042 209.269 177.475 208.711 177.475 208.018V158.718C177.475 158.025 178.042 157.467 178.746 157.467H190.227C193.938 157.467 197.431 156.043 200.054 153.461C200.55 152.973 201.354 152.973 201.85 153.461C202.346 153.95 202.346 154.741 201.85 155.229C198.745 158.286 194.618 159.97 190.227 159.97H180.018V208.018C180.018 208.711 179.45 209.269 178.746 209.269Z" fill="#180063"/>
<path d="M203.296 176.899C202.786 176.899 202.304 176.597 202.11 176.099L195.427 159.17C195.171 158.528 195.497 157.802 196.15 157.551C196.807 157.299 197.539 157.62 197.795 158.262L204.478 175.192C204.733 175.834 204.407 176.56 203.755 176.811C203.604 176.867 203.448 176.895 203.296 176.895V176.899Z" fill="#180063"/>
<path d="M189.929 176.899C189.778 176.899 189.622 176.871 189.471 176.815C188.819 176.564 188.492 175.838 188.748 175.196L195.431 158.267C195.686 157.625 196.424 157.304 197.076 157.555C197.728 157.807 198.055 158.532 197.799 159.174L191.116 176.104C190.922 176.597 190.44 176.904 189.929 176.904V176.899Z" fill="#180063"/>
<path d="M206.53 175.648C205.05 179.625 201.169 182.463 196.613 182.463C192.061 182.463 188.176 179.625 186.696 175.648H206.53Z" fill="#FFD400"/>
<path d="M196.613 183.715C191.669 183.715 187.202 180.644 185.505 176.08C185.364 175.699 185.42 175.266 185.657 174.931C185.893 174.596 186.285 174.396 186.701 174.396H206.534C206.95 174.396 207.338 174.596 207.579 174.931C207.815 175.266 207.872 175.694 207.73 176.08C206.028 180.649 201.562 183.715 196.618 183.715H196.613ZM188.729 176.899C190.402 179.537 193.375 181.212 196.613 181.212C199.851 181.212 202.829 179.537 204.502 176.899H188.729Z" fill="#180063"/>
<path d="M120.948 107.232C121.896 107.232 122.664 106.476 122.664 105.544C122.664 104.611 121.896 103.855 120.948 103.855C120.001 103.855 119.233 104.611 119.233 105.544C119.233 106.476 120.001 107.232 120.948 107.232Z" fill="#180063"/>
<path d="M119.899 115.979C120.847 115.979 121.615 115.222 121.615 114.29C121.615 113.357 120.847 112.601 119.899 112.601C118.952 112.601 118.183 113.357 118.183 114.29C118.183 115.222 118.952 115.979 119.899 115.979Z" fill="#180063"/>
<path d="M128.781 117.197C129.728 117.197 130.496 116.441 130.496 115.509C130.496 114.576 129.728 113.82 128.781 113.82C127.833 113.82 127.065 114.576 127.065 115.509C127.065 116.441 127.833 117.197 128.781 117.197Z" fill="#180063"/>
<path d="M230.045 107.232C230.992 107.232 231.76 106.476 231.76 105.544C231.76 104.611 230.992 103.855 230.045 103.855C229.097 103.855 228.329 104.611 228.329 105.544C228.329 106.476 229.097 107.232 230.045 107.232Z" fill="#180063"/>
<path d="M231.094 115.979C232.042 115.979 232.81 115.222 232.81 114.29C232.81 113.357 232.042 112.601 231.094 112.601C230.146 112.601 229.378 113.357 229.378 114.29C229.378 115.222 230.146 115.979 231.094 115.979Z" fill="#180063"/>
<path d="M222.213 117.197C223.16 117.197 223.928 116.441 223.928 115.509C223.928 114.576 223.16 113.82 222.213 113.82C221.265 113.82 220.497 114.576 220.497 115.509C220.497 116.441 221.265 117.197 222.213 117.197Z" fill="#180063"/>
<path d="M229.548 163.296C229.548 163.296 261.978 179.928 293.883 141.375L278.535 129.07C278.535 129.07 263.67 150.442 237.688 145.427" fill="#FFD400"/>
<path d="M247.122 168.116C236.331 168.116 229.279 164.566 228.962 164.403C228.338 164.082 228.097 163.329 228.423 162.714C228.75 162.1 229.515 161.863 230.139 162.184C230.243 162.235 238.193 166.204 249.826 165.534C264.909 164.664 279.504 156.378 292.096 141.547L278.767 130.861C277.288 132.708 273.851 136.592 268.586 140.156C262.03 144.594 251.31 149.325 237.451 146.65C236.761 146.516 236.312 145.86 236.449 145.18C236.586 144.501 237.253 144.059 237.943 144.194C262.819 149 277.354 128.567 277.496 128.358C277.699 128.07 278.011 127.874 278.365 127.828C278.715 127.776 279.074 127.874 279.349 128.097L294.696 140.403C294.956 140.612 295.121 140.914 295.159 141.245C295.192 141.575 295.093 141.905 294.88 142.161C287.493 151.089 279.448 157.82 270.968 162.17C264.148 165.669 257.034 167.646 249.831 168.037C248.909 168.088 248.006 168.111 247.127 168.111L247.122 168.116Z" fill="#180063"/>
<path d="M286.722 150.07C286.301 150.07 285.895 149.865 285.649 149.493C285.597 149.414 280.53 141.701 272.93 135.425C272.391 134.983 272.32 134.192 272.774 133.662C273.227 133.131 274.026 133.061 274.565 133.508C282.473 140.04 287.578 147.814 287.79 148.144C288.168 148.725 287.998 149.498 287.407 149.874C287.195 150.009 286.958 150.074 286.722 150.074V150.07Z" fill="#180063"/>
<path d="M278.521 157.225C278.049 157.225 277.59 156.96 277.373 156.513C276.668 155.062 272.845 147.469 266.672 140.789C266.199 140.277 266.237 139.486 266.757 139.021C267.277 138.556 268.08 138.593 268.553 139.105C274.962 146.046 278.933 153.926 279.665 155.438C279.968 156.062 279.698 156.811 279.065 157.109C278.89 157.192 278.701 157.23 278.517 157.23L278.521 157.225Z" fill="#180063"/>
<path d="M268.888 162.594C268.345 162.594 267.844 162.249 267.674 161.714C267.645 161.626 264.781 152.652 259.014 144.529C258.613 143.962 258.754 143.18 259.331 142.785C259.908 142.389 260.697 142.529 261.103 143.092C267.102 151.545 269.985 160.593 270.108 160.97C270.316 161.631 269.938 162.333 269.271 162.533C269.148 162.57 269.021 162.589 268.893 162.589L268.888 162.594Z" fill="#180063"/>
<path d="M256.887 167.143C256.202 167.143 255.635 166.604 255.616 165.925C255.616 165.832 255.328 156.429 252.019 147.069C251.787 146.418 252.137 145.701 252.803 145.474C253.465 145.246 254.193 145.59 254.425 146.246C257.87 155.983 258.149 165.459 258.164 165.859C258.182 166.553 257.625 167.125 256.925 167.143C256.916 167.143 256.901 167.143 256.892 167.143H256.887Z" fill="#180063"/>
<path d="M243.804 166.79C243.728 166.79 243.648 166.785 243.572 166.767C242.882 166.641 242.424 165.99 242.551 165.31C242.566 165.222 244.196 156.346 243.071 146.757C242.991 146.069 243.492 145.45 244.187 145.371C244.886 145.292 245.515 145.785 245.595 146.469C246.768 156.448 245.118 165.39 245.047 165.766C244.934 166.371 244.399 166.79 243.799 166.79H243.804Z" fill="#180063"/>
<path d="M223.011 138.626C223.011 138.626 236.681 137.532 238.245 150.763C239.81 163.994 229.165 169.093 229.165 169.093" fill="#180063"/>
<path d="M229.161 170.339C228.688 170.339 228.234 170.079 228.017 169.637C227.71 169.014 227.974 168.265 228.603 167.962C229 167.767 238.411 163.049 236.979 150.903C235.58 139.058 223.621 139.83 223.111 139.868C222.406 139.919 221.797 139.407 221.745 138.718C221.688 138.03 222.208 137.43 222.907 137.374C223.054 137.36 237.82 136.346 239.503 150.614C240.363 157.886 237.673 162.822 235.263 165.683C232.654 168.786 229.832 170.153 229.714 170.214C229.534 170.298 229.345 170.339 229.161 170.339Z" fill="#180063"/>
<path d="M199.52 54.444C203.263 54.444 207.002 58.296 207.002 63.9391C207.002 58.296 210.746 54.444 214.485 54.444C210.741 54.444 207.002 50.592 207.002 44.9489C207.002 50.592 203.259 54.444 199.52 54.444Z" fill="#FFD400"/>
<path d="M207.002 65.1905C206.298 65.1905 205.731 64.6323 205.731 63.9391C205.731 59.9568 203.235 55.6954 199.52 55.6954C198.816 55.6954 198.248 55.1371 198.248 54.444C198.248 53.7508 198.816 53.1925 199.52 53.1925C203.235 53.1925 205.731 48.9311 205.731 44.9488C205.731 44.2556 206.298 43.6974 207.002 43.6974C207.706 43.6974 208.274 44.2556 208.274 44.9488C208.274 48.9311 210.769 53.1925 214.485 53.1925C215.189 53.1925 215.756 53.7508 215.756 54.444C215.756 55.1371 215.189 55.6954 214.485 55.6954C210.769 55.6954 208.274 59.9568 208.274 63.9391C208.274 64.6323 207.706 65.1905 207.002 65.1905ZM203.566 54.444C204.932 55.3186 206.147 56.6351 207.002 58.3239C207.853 56.6351 209.068 55.3186 210.438 54.444C209.072 53.5693 207.858 52.2528 207.002 50.564C206.151 52.2528 204.937 53.5693 203.566 54.444Z" fill="#180063"/>
<path d="M166.334 33.8487C165.63 33.8487 165.062 33.2904 165.062 32.5972C165.062 26.9355 169.742 22.3252 175.499 22.3252C176.208 22.3252 176.912 22.395 177.602 22.5345C178.292 22.6741 178.732 23.3347 178.595 24.0093C178.453 24.6885 177.782 25.1212 177.097 24.9863C176.577 24.8793 176.043 24.8281 175.504 24.8281C171.15 24.8281 167.61 28.3126 167.61 32.5972C167.61 33.2904 167.043 33.8487 166.339 33.8487H166.334Z" fill="#180063"/>
<path d="M161.352 36.3097C160.747 36.3097 160.208 35.8817 160.099 35.2769C159.944 34.3976 159.863 33.4997 159.863 32.5972C159.863 24.1116 166.878 17.2124 175.494 17.2124C176.553 17.2124 177.612 17.3194 178.642 17.5241C179.332 17.6637 179.772 18.3243 179.635 18.9988C179.493 19.6781 178.822 20.1107 178.132 19.9758C177.271 19.8037 176.383 19.7153 175.494 19.7153C168.277 19.7153 162.406 25.4933 162.406 32.5972C162.406 33.3509 162.472 34.1092 162.605 34.8442C162.728 35.5235 162.264 36.1748 161.574 36.2957C161.499 36.3097 161.428 36.3143 161.352 36.3143V36.3097Z" fill="#180063"/>
<path d="M175.499 209.269C157.065 209.269 144.506 206.882 137.218 204.882C134.883 204.24 132.699 203.533 130.718 202.779C130.061 202.528 129.735 201.807 129.991 201.16C130.246 200.514 130.978 200.193 131.635 200.444C133.54 201.17 135.648 201.849 137.903 202.468C145.04 204.426 157.358 206.761 175.504 206.761C193.649 206.761 205.967 204.426 213.1 202.468C215.354 201.849 217.462 201.17 219.367 200.444C220.024 200.193 220.757 200.514 221.012 201.16C221.267 201.807 220.941 202.528 220.284 202.779C218.304 203.533 216.115 204.24 213.785 204.882C206.496 206.882 193.938 209.269 175.504 209.269H175.499Z" fill="#180063"/>
</g>
</svg>
