<svg width="350" height="232" viewBox="0 0 350 232" fill="none" xmlns="http://www.w3.org/2000/svg">
<rect width="350" height="232" rx="8" fill="#FFF4D8"/>
<g clip-path="url(#clip0_268_5405)">
<path d="M129.052 66.5627H139.021V60.7104H125.985" fill="#FFD400"/>
<path d="M139.021 67.5234H129.052C128.522 67.5234 128.092 67.0925 128.092 66.5627C128.092 66.0329 128.522 65.602 129.052 65.602H138.061V61.6711H125.988C125.459 61.6711 125.028 61.2402 125.028 60.7104C125.028 60.1806 125.459 59.7496 125.988 59.7496H139.021C139.55 59.7496 139.981 60.1806 139.981 60.7104V66.5627C139.981 67.0925 139.55 67.5234 139.021 67.5234Z" fill="#180063"/>
<path d="M139.021 57.6662V69.6097C142.315 69.6097 144.986 66.936 144.986 63.6393C144.986 60.3426 142.315 57.6689 139.021 57.6689V57.6662Z" fill="#180063"/>
<path d="M139.021 70.5704C138.492 70.5704 138.061 70.1394 138.061 69.6096V57.6662C138.061 57.1364 138.492 56.7054 139.021 56.7054C142.839 56.7054 145.946 59.8155 145.946 63.6365C145.946 67.4576 142.839 70.5676 139.021 70.5676V70.5704ZM139.981 58.7203V68.5556C142.285 68.1054 144.026 66.0714 144.026 63.6365C144.026 61.2017 142.282 59.1677 139.981 58.7175V58.7203Z" fill="#180063"/>
<path d="M52.2804 66.5627H42.311V60.7104H55.3439" fill="#FFD400"/>
<path d="M52.2804 67.5234H42.311C41.7817 67.5234 41.3511 67.0925 41.3511 66.5627V60.7104C41.3511 60.1806 41.7817 59.7496 42.311 59.7496H55.3439C55.8732 59.7496 56.3038 60.1806 56.3038 60.7104C56.3038 61.2402 55.8732 61.6711 55.3439 61.6711H43.2709V65.602H52.2804C52.8097 65.602 53.2403 66.0329 53.2403 66.5627C53.2403 67.0925 52.8097 67.5234 52.2804 67.5234Z" fill="#180063"/>
<path d="M42.3109 57.6662V69.6097C39.017 69.6097 36.3457 66.936 36.3457 63.6393C36.3457 60.3426 39.017 57.6689 42.3109 57.6689V57.6662Z" fill="#180063"/>
<path d="M42.3108 70.5704C38.4931 70.5704 35.3857 67.4603 35.3857 63.6393C35.3857 59.8183 38.4931 56.7082 42.3108 56.7082C42.8402 56.7082 43.2708 57.1392 43.2708 57.6689V69.6124C43.2708 70.1422 42.8402 70.5731 42.3108 70.5731V70.5704ZM41.3509 58.7203C39.0471 59.1704 37.3056 61.2045 37.3056 63.6393C37.3056 66.0741 39.0499 68.1081 41.3509 68.5583V58.723V58.7203Z" fill="#180063"/>
<path d="M100.879 181.383H80.4497V205.069H100.879V181.383Z" fill="#FFD400"/>
<path d="M80.4497 191.896C81.1491 190.15 81.0257 182.311 97.0179 182.311C110.298 182.311 80.4497 180.784 80.4497 180.784V191.896Z" fill="#180063"/>
<path d="M80.4497 192.857C80.3893 192.857 80.329 192.851 80.2686 192.84C79.8161 192.753 79.4897 192.357 79.4897 191.896V180.784C79.4897 180.521 79.5967 180.268 79.7887 180.087C79.9807 179.906 80.2357 179.813 80.499 179.824C80.5484 179.824 85.5564 180.082 90.4986 180.381C93.403 180.557 95.7205 180.713 97.3826 180.845C98.3781 180.924 99.1516 180.996 99.6781 181.056C100.487 181.15 101.406 181.257 101.381 182.201C101.357 183.164 100.378 183.203 99.6644 183.233C99.0857 183.258 98.1944 183.269 97.0178 183.269C83.6037 183.269 82.2077 188.901 81.6125 191.309C81.522 191.674 81.4452 191.99 81.3383 192.25C81.1902 192.621 80.8336 192.854 80.4469 192.854L80.4497 192.857ZM81.4096 181.797V186.892C81.8566 186.244 82.4298 185.594 83.1676 184.979C84.6431 183.746 86.5849 182.824 88.9792 182.22C86.3874 182.066 83.7161 181.921 81.4123 181.8L81.4096 181.797Z" fill="#180063"/>
<path d="M60.064 103.373C60.064 103.373 66.6353 100.875 90.6661 100.875C114.697 100.875 121.158 103.099 121.158 103.099C121.158 103.099 114.801 107.271 90.6661 107.271C66.5311 107.271 60.064 103.373 60.064 103.373Z" fill="#180063"/>
<path d="M109.878 96.5298H71.4541V106.994H109.878V96.5298Z" fill="#FFD400"/>
<path d="M71.2427 106.228C71.2427 106.228 75.853 97.378 99.6068 97.378C71.7309 97.378 71.2427 97.5372 71.2427 97.5372V106.225V106.228Z" fill="#180063"/>
<path d="M71.2426 107.186C71.1658 107.186 71.0863 107.178 71.0068 107.156C70.5817 107.049 70.2827 106.667 70.2827 106.228V97.5399C70.2827 97.1254 70.5487 96.7576 70.9437 96.6259C71.1165 96.5682 71.5772 96.4172 99.6068 96.4172C100.136 96.4172 100.567 96.8482 100.567 97.378C100.567 97.9078 100.136 98.3387 99.6068 98.3387C93.0355 98.3387 83.812 99.0662 77.1804 102.539C73.2612 104.589 72.1038 106.659 72.0928 106.678C71.9228 106.994 71.5909 107.183 71.2454 107.183L71.2426 107.186ZM72.2025 98.465V103.631C73.9331 102.042 77.1283 99.9034 82.7287 98.3689C76.1711 98.3964 73.3846 98.4376 72.2025 98.465Z" fill="#180063"/>
<path d="M90.6659 215.037C113.57 215.037 132.137 211.401 132.137 206.917C132.137 202.432 113.57 198.797 90.6659 198.797C67.7621 198.797 49.1948 202.432 49.1948 206.917C49.1948 211.401 67.7621 215.037 90.6659 215.037Z" fill="#180063"/>
<path d="M90.6659 216C79.5281 216 69.0486 215.149 61.1581 213.604C52.5847 211.924 48.2349 209.676 48.2349 206.92C48.2349 204.164 52.5819 201.913 61.1581 200.236C69.0513 198.69 79.5308 197.839 90.6659 197.839C101.801 197.839 112.283 198.69 120.176 200.236C128.75 201.915 133.1 204.164 133.1 206.92C133.1 209.676 128.753 211.926 120.176 213.604C112.283 215.149 101.804 216 90.6659 216ZM90.6659 199.758C79.6488 199.758 69.2981 200.595 61.5256 202.119C52.549 203.875 50.1547 205.962 50.1547 206.917C50.1547 207.872 52.549 209.958 61.5256 211.715C69.3009 213.239 79.6488 214.076 90.6659 214.076C101.683 214.076 112.034 213.239 119.806 211.715C128.783 209.958 131.177 207.872 131.177 206.917C131.177 205.962 128.783 203.875 119.806 202.119C112.031 200.595 101.683 199.758 90.6659 199.758Z" fill="#180063"/>
<path d="M118.323 47.614C102.223 34.6659 79.1087 34.6659 63.0095 47.614C52.9715 55.6871 44.0498 69.5602 44.0498 93.3758C44.0498 96.7082 84.8407 97.5427 90.666 97.5427C96.4913 97.5427 137.282 96.7082 137.282 93.3758C137.282 69.5602 128.361 55.6871 118.323 47.614Z" fill="#33BAFF"/>
<path d="M90.666 98.5007C87.8575 98.5007 76.1192 98.2948 65.1185 97.6662C44.7738 96.5023 43.0898 94.9734 43.0898 93.3758C43.0898 82.2476 45.0426 72.426 48.896 64.1856C52.1048 57.3231 56.6493 51.4982 62.4088 46.8647C70.3652 40.4661 80.4004 36.9415 90.666 36.9415C100.932 36.9415 110.967 40.4661 118.923 46.8647C124.683 51.4955 129.227 57.3231 132.436 64.1856C136.289 72.426 138.242 82.2476 138.242 93.3758C138.242 94.9734 136.558 96.5051 116.213 97.6662C105.21 98.2948 93.4717 98.5007 90.666 98.5007ZM45.0097 93.1589C45.5884 93.5624 48.8055 94.8608 66.4652 95.8188C77.0873 96.3925 88.0742 96.5819 90.666 96.5819C93.2578 96.5819 104.247 96.3953 114.867 95.8188C132.527 94.8636 135.744 93.5624 136.322 93.1589C136.278 73.3236 130.02 58.2536 117.719 48.3634C110.103 42.2366 100.496 38.863 90.6632 38.863C80.831 38.863 71.2236 42.2366 63.6101 48.3634C51.3122 58.2564 45.0536 73.3264 45.0069 93.1589H45.0097Z" fill="#180063"/>
<path d="M71.2426 107.189C70.7133 107.189 70.2827 106.758 70.2827 106.228V97.5399C70.2827 97.0101 70.7133 96.5792 71.2426 96.5792C71.772 96.5792 72.2025 97.0101 72.2025 97.5399V106.228C72.2025 106.758 71.772 107.189 71.2426 107.189Z" fill="#180063"/>
<path d="M110.089 107.189C109.56 107.189 109.129 106.758 109.129 106.228V97.5399C109.129 97.0101 109.56 96.5792 110.089 96.5792C110.619 96.5792 111.049 97.0101 111.049 97.5399V106.228C111.049 106.758 110.619 107.189 110.089 107.189Z" fill="#180063"/>
<path d="M54.8008 109.201C54.8008 109.201 44.4831 108.361 43.3038 118.517C42.1244 128.674 50.1576 132.585 50.1576 132.585" fill="#180063"/>
<path d="M50.1548 133.546C50.0149 133.546 49.8723 133.516 49.7352 133.45C49.6474 133.409 41.1014 129.116 42.3466 118.407C43.6192 107.458 54.7624 108.234 54.8748 108.245C55.4042 108.289 55.7964 108.75 55.7552 109.28C55.7113 109.81 55.2478 110.203 54.7213 110.161C54.3154 110.131 45.3086 109.549 44.2527 118.632C43.1694 127.957 50.2727 131.578 50.5772 131.729C51.0516 131.962 51.2491 132.539 51.016 133.013C50.8487 133.354 50.5086 133.551 50.1548 133.551V133.546Z" fill="#180063"/>
<path d="M43.7561 116.266C43.7561 116.266 16.7222 121.841 16.7222 160.013H31.6667C31.6667 160.013 30.0129 140.2 47.6506 130.787" fill="#FFD400"/>
<path d="M31.6639 160.974H16.7221C16.1928 160.974 15.7622 160.543 15.7622 160.013C15.7622 151.174 17.2103 143.329 20.0654 136.694C22.3637 131.355 25.5671 126.788 29.5932 123.115C36.469 116.845 43.2761 115.385 43.5641 115.325C44.0825 115.215 44.5898 115.553 44.6968 116.071C44.8038 116.59 44.4692 117.098 43.9508 117.205C43.885 117.219 37.2945 118.649 30.8055 124.606C22.3993 132.322 17.8713 144.216 17.6848 159.05H30.6628C30.6327 157.246 30.7643 153.293 32.1192 148.657C33.8059 142.887 37.7882 134.954 47.1953 129.936C47.6643 129.687 48.2457 129.865 48.4953 130.332C48.7449 130.798 48.5666 131.383 48.1004 131.633C41.0436 135.399 36.2934 141.284 33.9841 149.129C32.2481 155.028 32.6183 159.881 32.6211 159.931C32.643 160.197 32.5525 160.463 32.3687 160.661C32.1877 160.859 31.9299 160.971 31.6639 160.971V160.974Z" fill="#180063"/>
<path d="M31.8533 155.476H31.8395C24.0478 155.363 17.2927 153.17 17.0102 153.077C16.5056 152.912 16.2341 152.368 16.3986 151.863C16.5632 151.358 17.1062 151.087 17.6109 151.251C17.6767 151.273 24.3796 153.447 31.8697 153.554C32.399 153.562 32.8241 153.999 32.8159 154.529C32.8077 155.056 32.3798 155.476 31.856 155.476H31.8533Z" fill="#180063"/>
<path d="M32.7913 149.289C32.7447 149.289 32.6953 149.286 32.646 149.278C25.5316 148.204 19.3909 145.41 18.2308 144.861C17.7508 144.633 17.5479 144.062 17.7728 143.582C18.0004 143.101 18.5709 142.898 19.0508 143.123C20.1671 143.653 26.0829 146.343 32.9312 147.378C33.455 147.458 33.8171 147.946 33.7375 148.47C33.6662 148.945 33.2576 149.289 32.7886 149.289H32.7913Z" fill="#180063"/>
<path d="M35.342 143.384C35.2542 143.384 35.1664 143.373 35.0787 143.348C27.4707 141.18 21.404 137.172 21.1489 137.002C20.7074 136.708 20.5894 136.113 20.8829 135.671C21.1764 135.229 21.7715 135.108 22.2131 135.402C22.2734 135.443 28.2962 139.415 35.6053 141.498C36.1154 141.644 36.4116 142.176 36.2662 142.687C36.1456 143.11 35.7616 143.384 35.3447 143.384H35.342Z" fill="#180063"/>
<path d="M37.961 138.427C37.7882 138.427 37.6154 138.38 37.4591 138.284C30.726 134.131 25.9703 128.627 25.7701 128.394C25.4245 127.99 25.4711 127.386 25.8743 127.04C26.2775 126.694 26.8836 126.741 27.2292 127.145C27.2758 127.2 31.9958 132.659 38.4684 136.648C38.9209 136.925 39.0608 137.518 38.7811 137.971C38.6 138.265 38.2846 138.429 37.9638 138.429L37.961 138.427Z" fill="#180063"/>
<path d="M43.1828 134.213C42.9415 134.213 42.7001 134.122 42.5136 133.941C36.9955 128.561 33.6275 122.453 33.4877 122.195C33.2326 121.729 33.4026 121.147 33.8689 120.892C34.3324 120.636 34.9166 120.806 35.1716 121.273C35.2045 121.334 38.5505 127.392 43.8547 132.563C44.2332 132.934 44.2415 133.54 43.8712 133.922C43.682 134.114 43.4324 134.213 43.1828 134.213Z" fill="#180063"/>
<path d="M20.6084 160.013V167.219H26.4968V160.013" fill="#180063"/>
<path d="M26.4967 168.18H20.6084C20.079 168.18 19.6484 167.749 19.6484 167.219V160.013C19.6484 159.483 20.079 159.052 20.6084 159.052C21.1377 159.052 21.5683 159.483 21.5683 160.013V166.258H25.5368V160.013C25.5368 159.483 25.9674 159.052 26.4967 159.052C27.0261 159.052 27.4567 159.483 27.4567 160.013V167.219C27.4567 167.749 27.0261 168.18 26.4967 168.18Z" fill="#180063"/>
<path d="M23.5542 167.219C17.9044 167.219 13.3242 171.803 13.3242 177.458H18.8094C18.8094 174.839 20.9377 172.709 23.5542 172.709C26.1706 172.709 28.2989 174.839 28.2989 177.455H33.7841C33.7841 171.8 29.204 167.216 23.5542 167.216V167.219Z" fill="#33BAFF"/>
<path d="M33.7813 178.416H28.2961C27.7668 178.416 27.3362 177.985 27.3362 177.455C27.3362 175.366 25.6385 173.667 23.5514 173.667C21.4643 173.667 19.7666 175.366 19.7666 177.452C19.7666 177.982 19.336 178.413 18.8067 178.413H13.3242C13.0691 178.413 12.825 178.311 12.6467 178.133C12.4685 177.954 12.3643 177.707 12.3643 177.455C12.3643 171.279 17.3832 166.255 23.5541 166.255C29.725 166.255 34.744 171.279 34.744 177.455C34.744 177.985 34.3134 178.416 33.7841 178.416H33.7813ZM14.3335 176.494H17.9318C18.3898 173.801 20.7375 171.745 23.5541 171.745C26.3708 171.745 28.7185 173.801 29.1765 176.491H32.7748C32.2921 171.825 28.3427 168.177 23.5541 168.177C18.7655 168.177 14.8162 171.828 14.3335 176.494Z" fill="#180063"/>
<path d="M90.6661 182.344C60.3273 182.344 48.353 174.433 47.8566 174.095C47.5933 173.917 47.437 173.617 47.437 173.302C47.437 155.909 48.7727 138.429 51.1999 124.084C52.2146 118.083 54.9216 103.966 58.1332 102.5C58.3965 102.379 58.7009 102.385 58.9615 102.514C59.0355 102.55 66.9507 106.31 90.6661 106.31C103.057 106.31 111.016 105.278 115.514 104.411C120.388 103.472 122.357 102.519 122.376 102.511C122.634 102.385 122.938 102.379 123.202 102.497C126.413 103.963 129.12 118.081 130.135 124.081C132.56 138.427 133.898 155.907 133.898 173.299C133.898 173.617 133.742 173.914 133.478 174.092C132.985 174.43 121.008 182.341 90.6689 182.341L90.6661 182.344ZM49.3568 172.761C51.71 174.12 64.071 180.422 90.6661 180.422C106.167 180.422 116.691 178.267 122.79 176.461C127.993 174.918 130.944 173.362 131.975 172.764C131.948 155.665 130.626 138.523 128.245 124.433C125.898 110.535 123.605 105.575 122.667 104.479C120.478 105.358 111.707 108.234 90.6661 108.234C69.6248 108.234 60.8511 105.358 58.6653 104.479C57.7273 105.575 55.4345 110.535 53.0868 124.433C50.7062 138.523 49.3843 155.665 49.3568 172.761Z" fill="#180063"/>
<path d="M58.5305 104.334C58.1081 104.334 57.7241 104.054 57.6062 103.628C57.4663 103.118 57.7653 102.588 58.2754 102.448C58.5771 102.366 65.7243 100.411 71.2425 100.411C71.7718 100.411 72.2024 100.842 72.2024 101.372C72.2024 101.902 71.7718 102.333 71.2425 102.333C65.9821 102.333 58.8541 104.279 58.7855 104.301C58.7005 104.326 58.6155 104.337 58.5305 104.337V104.334Z" fill="#180063"/>
<path d="M122.801 104.334C122.716 104.334 122.631 104.323 122.546 104.298C122.475 104.279 115.344 102.33 110.086 102.33C109.557 102.33 109.126 101.899 109.126 101.369C109.126 100.839 109.557 100.408 110.086 100.408C115.605 100.408 122.752 102.363 123.053 102.445C123.564 102.585 123.865 103.115 123.723 103.626C123.605 104.051 123.218 104.331 122.798 104.331L122.801 104.334Z" fill="#180063"/>
<path d="M80.4497 203.653C79.9203 203.653 79.4897 203.222 79.4897 202.692V181.38C79.4897 180.85 79.9203 180.419 80.4497 180.419C80.979 180.419 81.4096 180.85 81.4096 181.38V202.692C81.4096 203.222 80.979 203.653 80.4497 203.653Z" fill="#180063"/>
<path d="M100.882 203.653C100.353 203.653 99.9224 203.222 99.9224 202.692V181.38C99.9224 180.85 100.353 180.419 100.882 180.419C101.412 180.419 101.842 180.85 101.842 181.38V202.692C101.842 203.222 101.412 203.653 100.882 203.653Z" fill="#180063"/>
<path d="M90.6658 211.342C100.163 211.342 102.646 207.954 102.646 207.954C102.646 200.543 95.0293 198.797 90.6658 198.797C86.3023 198.797 78.686 200.543 78.686 207.954C78.686 207.954 81.1708 211.342 90.6658 211.342Z" fill="#33BAFF"/>
<path d="M90.6657 212.302C80.7951 212.302 78.025 208.676 77.9126 208.523C77.7919 208.358 77.7261 208.158 77.7261 207.954C77.7261 204.356 79.4018 201.52 82.575 199.755C85.6906 198.023 89.2725 197.834 90.6685 197.834C92.0645 197.834 95.6463 198.02 98.7619 199.755C101.932 201.52 103.611 204.353 103.611 207.954C103.611 208.16 103.545 208.358 103.424 208.523C103.312 208.676 100.539 212.302 90.6685 212.302H90.6657ZM79.6514 207.581C80.3727 208.248 83.2607 210.381 90.6657 210.381C98.0708 210.381 100.942 208.259 101.68 207.578C101.376 199.977 91.7765 199.755 90.6657 199.755C89.555 199.755 79.9558 199.977 79.6514 207.581Z" fill="#180063"/>
<path d="M90.666 38.8631C90.1366 38.8631 89.7061 38.4321 89.7061 37.9023V30.9053C89.7061 30.3755 90.1366 29.9446 90.666 29.9446C91.1953 29.9446 91.6259 30.3755 91.6259 30.9053V37.9023C91.6259 38.4321 91.1953 38.8631 90.666 38.8631Z" fill="#180063"/>
<path d="M90.6661 30.9053C92.3732 30.9053 93.757 29.5202 93.757 27.8117C93.757 26.1031 92.3732 24.7181 90.6661 24.7181C88.959 24.7181 87.5752 26.1031 87.5752 27.8117C87.5752 29.5202 88.959 30.9053 90.6661 30.9053Z" fill="#180063"/>
<path d="M90.6661 31.866C88.4336 31.866 86.6152 30.0488 86.6152 27.8117C86.6152 25.5745 88.4308 23.7573 90.6661 23.7573C92.9013 23.7573 94.7169 25.5745 94.7169 27.8117C94.7169 30.0488 92.9013 31.866 90.6661 31.866ZM90.6661 25.6816C89.4922 25.6816 88.5351 26.6368 88.5351 27.8144C88.5351 28.992 89.4895 29.9473 90.6661 29.9473C91.8427 29.9473 92.7971 28.992 92.7971 27.8144C92.7971 26.6368 91.8427 25.6816 90.6661 25.6816Z" fill="#180063"/>
<path d="M90.6662 181.383C121.057 181.383 132.935 173.302 132.935 173.302C132.935 134.114 126.317 104.979 122.801 103.376C122.801 103.376 115.021 107.274 90.6662 107.274C66.3117 107.274 58.5309 103.376 58.5309 103.376C55.0149 104.979 48.397 134.117 48.397 173.302C48.397 173.302 60.2725 181.383 90.6662 181.383Z" fill="#33BAFF"/>
<path d="M90.6661 182.344C60.3273 182.344 48.353 174.433 47.8566 174.095C47.5933 173.917 47.437 173.617 47.437 173.302C47.437 155.909 48.7727 138.429 51.1999 124.084C52.2146 118.083 54.9216 103.966 58.1332 102.5C58.3965 102.379 58.7009 102.385 58.9615 102.514C59.0355 102.55 66.9507 106.31 90.6661 106.31C103.057 106.31 111.016 105.278 115.514 104.411C120.388 103.472 122.357 102.519 122.376 102.511C122.634 102.385 122.938 102.379 123.202 102.497C126.413 103.963 129.12 118.081 130.135 124.081C132.56 138.427 133.898 155.907 133.898 173.299C133.898 173.617 133.742 173.914 133.478 174.092C132.985 174.43 121.008 182.341 90.6689 182.341L90.6661 182.344ZM49.3568 172.761C51.71 174.12 64.071 180.422 90.6661 180.422C106.167 180.422 116.691 178.267 122.79 176.461C127.993 174.918 130.944 173.362 131.975 172.764C131.948 155.665 130.626 138.523 128.245 124.433C125.898 110.535 123.605 105.575 122.667 104.479C120.478 105.358 111.707 108.234 90.6661 108.234C69.6248 108.234 60.8511 105.358 58.6653 104.479C57.7273 105.575 55.4345 110.535 53.0868 124.433C50.7062 138.523 49.3843 155.665 49.3568 172.761Z" fill="#180063"/>
<path d="M90.666 173.145C76.6348 173.145 67.0933 171.303 61.5614 169.758C59.573 169.203 57.9466 168.646 56.6631 168.149C56.9209 151.004 58.4129 137.655 59.6854 129.203C60.8181 121.666 62.0057 116.486 62.9382 113.211C68.5304 114.383 77.3616 115.506 90.666 115.506C103.97 115.506 112.802 114.383 118.394 113.211C119.324 116.486 120.511 121.666 121.647 129.203C122.919 137.655 124.411 151.001 124.669 168.149C123.385 168.646 121.762 169.203 119.771 169.758C114.236 171.303 104.695 173.145 90.666 173.145Z" fill="white"/>
<path d="M90.6661 174.106C76.5279 174.106 66.8931 172.245 61.3036 170.683C59.5155 170.183 57.837 169.632 56.3176 169.044C55.9418 168.899 55.6977 168.536 55.7032 168.133C55.9638 150.771 57.4969 137.301 58.7365 129.058C59.946 121.018 61.1857 115.86 62.014 112.948C62.1511 112.462 62.642 112.165 63.133 112.27C70.3378 113.779 79.5996 114.542 90.6661 114.542C101.733 114.542 110.994 113.777 118.199 112.27C118.693 112.165 119.181 112.462 119.318 112.948C120.146 115.86 121.386 121.018 122.596 129.058C123.835 137.301 125.368 150.771 125.629 168.133C125.634 168.536 125.39 168.899 125.015 169.044C123.495 169.632 121.819 170.183 120.029 170.683C114.436 172.245 104.804 174.106 90.6661 174.106ZM57.634 167.488C58.9258 167.965 60.3328 168.416 61.8192 168.833C67.2963 170.362 76.7446 172.184 90.6661 172.184C104.588 172.184 114.039 170.362 119.513 168.833C120.999 168.418 122.404 167.965 123.698 167.488C123.41 150.559 121.913 137.422 120.698 129.346C119.614 122.146 118.512 117.301 117.708 114.331C110.509 115.747 101.417 116.467 90.6661 116.467C79.915 116.467 70.8232 115.747 63.6239 114.331C62.823 117.304 61.7178 122.146 60.6344 129.346C59.4195 137.422 57.922 150.559 57.634 167.488Z" fill="#180063"/>
<mask id="mask0_268_5405" style="mask-type:luminance" maskUnits="userSpaceOnUse" x="56" y="113" width="69" height="61">
<mask id="mask1_268_5405" style="mask-type:luminance" maskUnits="userSpaceOnUse" x="56" y="113" width="69" height="61">
<path d="M90.666 173.145C76.6348 173.145 67.0933 171.303 61.5614 169.758C59.573 169.203 57.9466 168.646 56.6631 168.149C56.9209 151.004 58.4129 137.655 59.6854 129.203C60.8181 121.666 62.0057 116.486 62.9382 113.211C68.5304 114.383 77.3616 115.506 90.666 115.506C103.97 115.506 112.802 114.383 118.394 113.211C119.324 116.486 120.511 121.666 121.647 129.203C122.919 137.655 124.411 151.001 124.669 168.149C123.385 168.646 121.762 169.203 119.771 169.758C114.236 171.303 104.695 173.145 90.666 173.145Z" fill="white"/>
</mask>
<g mask="url(#mask1_268_5405)">
<path d="M90.6661 174.106C76.5279 174.106 66.8931 172.245 61.3036 170.683C59.5155 170.183 57.837 169.632 56.3176 169.044C55.9418 168.899 55.6977 168.536 55.7032 168.133C55.9638 150.771 57.4969 137.301 58.7365 129.058C59.946 121.018 61.1857 115.86 62.014 112.948C62.1511 112.462 62.642 112.165 63.133 112.27C70.3378 113.779 79.5996 114.542 90.6661 114.542C101.733 114.542 110.994 113.777 118.199 112.27C118.693 112.165 119.181 112.462 119.318 112.948C120.146 115.86 121.386 121.018 122.596 129.058C123.835 137.301 125.368 150.771 125.629 168.133C125.634 168.536 125.39 168.899 125.015 169.044C123.495 169.632 121.819 170.183 120.029 170.683C114.436 172.245 104.804 174.106 90.6661 174.106ZM57.634 167.488C58.9258 167.965 60.3328 168.416 61.8192 168.833C67.2963 170.362 76.7446 172.184 90.6661 172.184C104.588 172.184 114.039 170.362 119.513 168.833C120.999 168.418 122.404 167.965 123.698 167.488C123.41 150.559 121.913 137.422 120.698 129.346C119.614 122.146 118.512 117.301 117.708 114.331C110.509 115.747 101.417 116.467 90.6661 116.467C79.915 116.467 70.8232 115.747 63.6239 114.331C62.823 117.304 61.7178 122.146 60.6344 129.346C59.4195 137.422 57.922 150.559 57.634 167.488Z" fill="white"/>
</g>
</mask>
<g mask="url(#mask0_268_5405)">
<path d="M56.6631 157.554C56.6631 157.554 69.0186 162.47 90.666 162.47C112.313 162.47 124.126 157.554 124.126 157.554L124.669 168.149C124.669 168.149 111.477 173.145 90.666 173.145C69.8551 173.145 56.6631 167.688 56.6631 167.688V157.554Z" fill="#FFD400"/>
</g>
<path d="M73.9883 59.854C69.3286 59.854 65.5493 63.6366 65.5493 68.3003H82.4274C82.4274 63.6366 78.648 59.854 73.9883 59.854Z" fill="white"/>
<path d="M82.4273 69.2638H65.5493C65.0199 69.2638 64.5894 68.8329 64.5894 68.3031C64.5894 63.115 68.8048 58.896 73.9883 58.896C79.1718 58.896 83.3872 63.115 83.3872 68.3031C83.3872 68.8329 82.9567 69.2638 82.4273 69.2638ZM66.5695 67.3423H81.4071C80.9353 63.6668 77.7868 60.8175 73.9883 60.8175C70.1898 60.8175 67.044 63.6668 66.5695 67.3423Z" fill="#180063"/>
<path d="M107.344 59.854C102.684 59.854 98.9048 63.6366 98.9048 68.3003H115.783C115.783 63.6366 112.004 59.854 107.344 59.854Z" fill="white"/>
<path d="M115.783 69.2638H98.9047C98.3754 69.2638 97.9448 68.8329 97.9448 68.3031C97.9448 63.115 102.16 58.896 107.344 58.896C112.527 58.896 116.743 63.115 116.743 68.3031C116.743 68.8329 116.312 69.2638 115.783 69.2638ZM99.925 67.3423H114.763C114.291 63.6668 111.142 60.8175 107.344 60.8175C103.545 60.8175 100.399 63.6668 99.925 67.3423Z" fill="#180063"/>
<path d="M73.988 63.2413C71.1961 63.2413 68.9307 65.5059 68.9307 68.303H79.0427C79.0427 65.5086 76.78 63.2413 73.9853 63.2413H73.988Z" fill="#180063"/>
<path d="M79.0456 69.2638H68.9335C68.4042 69.2638 67.9736 68.8328 67.9736 68.303C67.9736 64.9816 70.6724 62.2805 73.9909 62.2805C77.3095 62.2805 80.0082 64.9816 80.0082 68.303C80.0082 68.8328 79.5776 69.2638 79.0483 69.2638H79.0456ZM70.0059 67.3423H77.9705C77.5371 65.5443 75.9162 64.202 73.9882 64.202C72.0601 64.202 70.4392 65.5416 70.0059 67.3423Z" fill="#180063"/>
<path d="M107.344 63.2413C104.552 63.2413 102.287 65.5059 102.287 68.303H112.399C112.399 65.5086 110.136 63.2413 107.341 63.2413H107.344Z" fill="#180063"/>
<path d="M112.399 69.2638H102.287C101.757 69.2638 101.327 68.8328 101.327 68.303C101.327 64.9816 104.025 62.2805 107.344 62.2805C110.663 62.2805 113.361 64.9816 113.361 68.303C113.361 68.8328 112.931 69.2638 112.401 69.2638H112.399ZM103.359 67.3423H111.323C110.89 65.5443 109.269 64.202 107.341 64.202C105.413 64.202 103.792 65.5416 103.359 67.3423Z" fill="#180063"/>
<path d="M90.6659 87.216C85.9595 87.216 82.1309 83.384 82.1309 78.6736V77.1968C82.1309 76.667 82.5614 76.2361 83.0908 76.2361C83.6201 76.2361 84.0507 76.667 84.0507 77.1968V78.6736C84.0507 82.3245 87.0182 85.2946 90.6659 85.2946C94.3136 85.2946 97.2811 82.3245 97.2811 78.6736V77.1968C97.2811 76.667 97.7116 76.2361 98.241 76.2361C98.7703 76.2361 99.2009 76.667 99.2009 77.1968V78.6736C99.2009 83.384 95.3722 87.216 90.6659 87.216Z" fill="#180063"/>
<path d="M90.6661 169.456C91.381 169.456 91.9606 168.876 91.9606 168.16C91.9606 167.445 91.381 166.865 90.6661 166.865C89.9512 166.865 89.3716 167.445 89.3716 168.16C89.3716 168.876 89.9512 169.456 90.6661 169.456Z" fill="#180063"/>
<path d="M80.669 168.987C81.384 168.987 81.9635 168.407 81.9635 167.691C81.9635 166.975 81.384 166.395 80.669 166.395C79.9541 166.395 79.3745 166.975 79.3745 167.691C79.3745 168.407 79.9541 168.987 80.669 168.987Z" fill="#180063"/>
<path d="M71.2208 167.949C71.9357 167.949 72.5153 167.369 72.5153 166.653C72.5153 165.938 71.9357 165.358 71.2208 165.358C70.5058 165.358 69.9263 165.938 69.9263 166.653C69.9263 167.369 70.5058 167.949 71.2208 167.949Z" fill="#180063"/>
<path d="M62.3238 166.104C63.0388 166.104 63.6183 165.524 63.6183 164.809C63.6183 164.093 63.0388 163.513 62.3238 163.513C61.6089 163.513 61.0293 164.093 61.0293 164.809C61.0293 165.524 61.6089 166.104 62.3238 166.104Z" fill="#180063"/>
<path d="M90.6661 186.415C87.2077 186.415 83.7492 186.165 80.3127 185.668C79.7889 185.591 79.4241 185.105 79.5009 184.581C79.5777 184.057 80.0632 183.691 80.587 183.768C87.2735 184.737 94.056 184.737 100.742 183.768C101.269 183.691 101.755 184.057 101.829 184.581C101.905 185.105 101.541 185.594 101.017 185.668C97.583 186.165 94.1218 186.415 90.6634 186.415H90.6661Z" fill="#180063"/>
<path d="M90.6661 190.005C87.2077 190.005 83.7492 189.755 80.3127 189.258C79.7889 189.181 79.4241 188.696 79.5009 188.171C79.5777 187.647 80.0632 187.282 80.587 187.359C87.2735 188.328 94.056 188.328 100.742 187.359C101.269 187.282 101.755 187.647 101.829 188.171C101.905 188.696 101.541 189.184 101.017 189.258C97.583 189.755 94.1218 190.005 90.6634 190.005H90.6661Z" fill="#180063"/>
<path d="M90.6661 193.593C87.2077 193.593 83.7492 193.343 80.3127 192.846C79.7889 192.769 79.4241 192.283 79.5009 191.759C79.5777 191.235 80.0632 190.87 80.587 190.946C87.2735 191.915 94.056 191.915 100.742 190.946C101.269 190.87 101.755 191.235 101.829 191.759C101.905 192.283 101.541 192.772 101.017 192.846C97.583 193.343 94.1218 193.593 90.6634 193.593H90.6661Z" fill="#180063"/>
<path d="M90.6661 197.18C87.2077 197.18 83.7492 196.931 80.3127 196.434C79.7889 196.357 79.4241 195.871 79.5009 195.347C79.5777 194.822 80.0632 194.46 80.587 194.534C87.2735 195.503 94.056 195.503 100.742 194.534C101.269 194.457 101.755 194.822 101.829 195.347C101.905 195.871 101.541 196.36 101.017 196.434C97.583 196.931 94.1218 197.18 90.6634 197.18H90.6661Z" fill="#180063"/>
<path d="M90.7456 101.836C85.0519 101.836 79.3637 101.542 73.7057 100.955L71.1441 100.688C70.6175 100.634 70.2336 100.161 70.2884 99.6344C70.3433 99.1073 70.8123 98.723 71.3416 98.7779L73.9032 99.0442C85.8802 100.288 98.0163 100.2 109.974 98.7807C110.498 98.7175 110.978 99.0936 111.041 99.6206C111.104 100.148 110.728 100.625 110.202 100.688C103.751 101.454 97.2483 101.839 90.7483 101.839L90.7456 101.836Z" fill="#180063"/>
<path d="M90.7456 105.201C85.0519 105.201 79.3637 104.907 73.7057 104.32L71.1441 104.054C70.6175 103.999 70.2336 103.527 70.2884 103C70.3433 102.473 70.8123 102.088 71.3416 102.143L73.9032 102.41C85.8802 103.653 98.0163 103.565 109.974 102.146C110.498 102.083 110.978 102.459 111.041 102.986C111.104 103.513 110.728 103.991 110.202 104.054C103.751 104.82 97.2483 105.204 90.7483 105.204L90.7456 105.201Z" fill="#180063"/>
<path d="M88.2143 163.431C87.685 163.431 87.2544 163 87.2544 162.47V125.588H79.5504C76.2345 125.588 73.1189 124.295 70.774 121.951C70.3983 121.575 70.3983 120.968 70.774 120.592C71.1497 120.216 71.7558 120.216 72.1316 120.592C74.1118 122.574 76.7474 123.667 79.5504 123.667H88.2143C88.7436 123.667 89.1742 124.098 89.1742 124.627V162.47C89.1742 163 88.7436 163.431 88.2143 163.431Z" fill="#180063"/>
<path d="M69.6822 138.583C69.567 138.583 69.4491 138.561 69.3339 138.517C68.8402 138.325 68.5934 137.768 68.7854 137.274L73.829 124.279C74.021 123.785 74.5778 123.54 75.0715 123.73C75.5651 123.922 75.812 124.479 75.62 124.973L70.5763 137.968C70.4282 138.347 70.0662 138.58 69.6822 138.58V138.583Z" fill="#180063"/>
<path d="M79.7723 138.583C79.3883 138.583 79.0236 138.35 78.8782 137.971L73.8345 124.976C73.6426 124.482 73.8867 123.925 74.3831 123.733C74.8795 123.54 75.4335 123.785 75.6255 124.282L80.6691 137.276C80.8611 137.77 80.617 138.328 80.1206 138.52C80.0054 138.564 79.8875 138.586 79.7723 138.586V138.583Z" fill="#180063"/>
<path d="M67.2415 137.622C68.3605 140.675 71.2896 142.854 74.7261 142.854C78.1626 142.854 81.0945 140.675 82.2107 137.622H67.2388H67.2415Z" fill="#FFD400"/>
<path d="M74.726 143.815C70.9933 143.815 67.6226 141.46 66.3391 137.954C66.2321 137.661 66.2733 137.331 66.4543 137.073C66.6326 136.815 66.9288 136.661 67.2414 136.661H82.2133C82.526 136.661 82.8195 136.815 83.0005 137.073C83.1815 137.331 83.2226 137.658 83.1157 137.954C81.8321 141.46 78.4615 143.815 74.7288 143.815H74.726ZM68.7718 138.583C70.0361 140.606 72.2823 141.893 74.726 141.893C77.1697 141.893 79.4159 140.606 80.6802 138.583H68.7745H68.7718Z" fill="#180063"/>
<path d="M93.1181 163.431C92.5888 163.431 92.1582 163 92.1582 162.47V124.627C92.1582 124.098 92.5888 123.667 93.1181 123.667H101.782C104.585 123.667 107.218 122.574 109.201 120.592C109.577 120.216 110.183 120.216 110.558 120.592C110.934 120.968 110.934 121.575 110.558 121.951C108.216 124.298 105.098 125.588 101.782 125.588H94.078V162.47C94.078 163 93.6474 163.431 93.1181 163.431Z" fill="#180063"/>
<path d="M111.65 138.583C111.266 138.583 110.901 138.35 110.756 137.971L105.712 124.976C105.52 124.482 105.764 123.925 106.261 123.733C106.757 123.54 107.311 123.785 107.503 124.282L112.547 137.276C112.739 137.77 112.494 138.328 111.998 138.52C111.883 138.564 111.765 138.586 111.65 138.586V138.583Z" fill="#180063"/>
<path d="M101.56 138.583C101.444 138.583 101.327 138.561 101.211 138.517C100.718 138.325 100.471 137.768 100.663 137.274L105.706 124.279C105.898 123.785 106.455 123.54 106.949 123.73C107.443 123.922 107.689 124.479 107.497 124.973L102.454 137.968C102.306 138.347 101.944 138.58 101.56 138.58V138.583Z" fill="#180063"/>
<path d="M114.091 137.622C112.972 140.675 110.043 142.854 106.606 142.854C103.17 142.854 100.238 140.675 99.1216 137.622H114.094H114.091Z" fill="#FFD400"/>
<path d="M106.606 143.815C102.874 143.815 99.503 141.46 98.2195 137.954C98.1125 137.661 98.1536 137.331 98.3347 137.073C98.5129 136.815 98.8091 136.661 99.1218 136.661H114.094C114.406 136.661 114.7 136.815 114.881 137.073C115.062 137.331 115.103 137.658 114.996 137.954C113.712 141.46 110.342 143.815 106.609 143.815H106.606ZM100.652 138.583C101.917 140.606 104.16 141.893 106.606 141.893C109.053 141.893 111.296 140.606 112.561 138.583H100.655H100.652Z" fill="#180063"/>
<path d="M90.6661 208.361C88.0414 208.361 85.4167 207.96 82.8633 207.156C82.3587 206.996 82.0762 206.458 82.2353 205.951C82.3943 205.446 82.9319 205.163 83.4393 205.322C88.1676 206.81 93.1646 206.81 97.8901 205.322C98.3975 205.163 98.9351 205.446 99.0941 205.951C99.2532 206.456 98.9707 206.996 98.4661 207.156C95.9154 207.957 93.288 208.361 90.6633 208.361H90.6661Z" fill="#180063"/>
<path d="M49.4884 85.1051C50.2033 85.1051 50.7829 84.525 50.7829 83.8095C50.7829 83.0939 50.2033 82.5139 49.4884 82.5139C48.7734 82.5139 48.1938 83.0939 48.1938 83.8095C48.1938 84.525 48.7734 85.1051 49.4884 85.1051Z" fill="#180063"/>
<path d="M48.6959 91.8166C49.4108 91.8166 49.9904 91.2365 49.9904 90.521C49.9904 89.8054 49.4108 89.2253 48.6959 89.2253C47.9809 89.2253 47.4014 89.8054 47.4014 90.521C47.4014 91.2365 47.9809 91.8166 48.6959 91.8166Z" fill="#180063"/>
<path d="M55.4014 92.7554C56.1164 92.7554 56.696 92.1753 56.696 91.4598C56.696 90.7442 56.1164 90.1641 55.4014 90.1641C54.6865 90.1641 54.1069 90.7442 54.1069 91.4598C54.1069 92.1753 54.6865 92.7554 55.4014 92.7554Z" fill="#180063"/>
<path d="M131.843 85.1051C132.558 85.1051 133.138 84.525 133.138 83.8095C133.138 83.0939 132.558 82.5139 131.843 82.5139C131.128 82.5139 130.549 83.0939 130.549 83.8095C130.549 84.525 131.128 85.1051 131.843 85.1051Z" fill="#180063"/>
<path d="M132.636 91.8166C133.351 91.8166 133.931 91.2365 133.931 90.521C133.931 89.8054 133.351 89.2253 132.636 89.2253C131.921 89.2253 131.342 89.8054 131.342 90.521C131.342 91.2365 131.921 91.8166 132.636 91.8166Z" fill="#180063"/>
<path d="M125.93 92.7554C126.645 92.7554 127.225 92.1753 127.225 91.4598C127.225 90.7442 126.645 90.1641 125.93 90.1641C125.215 90.1641 124.636 90.7442 124.636 91.4598C124.636 92.1753 125.215 92.7554 125.93 92.7554Z" fill="#180063"/>
<path d="M131.468 128.141C131.468 128.141 155.946 140.908 180.034 111.314L168.449 101.869C168.449 101.869 157.229 118.276 137.614 114.424" fill="#FFD400"/>
<path d="M144.734 131.841C136.588 131.841 131.265 129.118 131.026 128.992C130.557 128.748 130.374 128.166 130.618 127.696C130.862 127.227 131.441 127.043 131.912 127.287C131.989 127.329 137.998 130.376 146.772 129.859C158.159 129.192 169.173 122.83 178.679 111.449L168.617 103.247C167.5 104.663 164.906 107.644 160.929 110.384C155.981 113.79 147.885 117.422 137.428 115.369C136.907 115.267 136.569 114.762 136.671 114.24C136.772 113.719 137.277 113.381 137.798 113.483C145.645 115.026 153.044 113.464 159.786 108.841C164.854 105.366 167.629 101.366 167.657 101.328C167.808 101.106 168.046 100.96 168.312 100.922C168.578 100.883 168.847 100.957 169.056 101.128L180.64 110.573C180.838 110.735 180.964 110.966 180.989 111.221C181.013 111.474 180.939 111.729 180.777 111.926C175.202 118.778 169.127 123.947 162.726 127.285C157.578 129.972 152.208 131.487 146.769 131.789C146.072 131.828 145.39 131.847 144.729 131.847L144.734 131.841Z" fill="#180063"/>
<path d="M174.625 117.987C174.31 117.987 174 117.831 173.816 117.545C173.778 117.485 169.952 111.564 164.214 106.747C163.809 106.406 163.756 105.8 164.096 105.393C164.437 104.987 165.043 104.935 165.449 105.275C171.419 110.288 175.27 116.258 175.432 116.511C175.717 116.958 175.588 117.551 175.141 117.836C174.982 117.941 174.801 117.987 174.623 117.987H174.625Z" fill="#180063"/>
<path d="M168.435 123.483C168.076 123.483 167.733 123.28 167.569 122.937C167.037 121.819 164.146 115.992 159.492 110.864C159.135 110.472 159.165 109.865 159.558 109.508C159.95 109.151 160.556 109.181 160.912 109.574C165.748 114.899 168.748 120.952 169.299 122.11C169.527 122.588 169.324 123.162 168.847 123.392C168.712 123.455 168.572 123.486 168.435 123.486V123.483Z" fill="#180063"/>
<path d="M161.165 127.6C160.756 127.6 160.375 127.337 160.249 126.925C160.227 126.856 158.066 119.967 153.713 113.733C153.409 113.299 153.516 112.698 153.949 112.396C154.382 112.091 154.983 112.198 155.285 112.632C159.815 119.121 161.99 126.066 162.081 126.357C162.237 126.865 161.955 127.403 161.447 127.559C161.354 127.589 161.258 127.603 161.162 127.603L161.165 127.6Z" fill="#180063"/>
<path d="M152.106 131.095C151.588 131.095 151.16 130.68 151.146 130.159C151.146 130.087 150.93 122.868 148.431 115.687C148.256 115.185 148.522 114.638 149.021 114.463C149.523 114.29 150.068 114.553 150.244 115.053C152.844 122.53 153.058 129.802 153.066 130.109C153.08 130.639 152.66 131.081 152.131 131.095C152.123 131.095 152.114 131.095 152.106 131.095Z" fill="#180063"/>
<path d="M142.23 130.823C142.172 130.823 142.115 130.817 142.054 130.806C141.533 130.71 141.188 130.208 141.284 129.687C141.295 129.618 142.526 122.808 141.679 115.446C141.618 114.918 141.997 114.441 142.523 114.38C143.053 114.32 143.527 114.696 143.587 115.226C144.471 122.884 143.228 129.75 143.173 130.038C143.088 130.502 142.685 130.823 142.23 130.823Z" fill="#180063"/>
<path d="M177.02 108.855L181.567 103.269L177.001 99.5465L172.454 105.133" fill="#180063"/>
<path d="M177.02 109.816C176.806 109.816 176.592 109.744 176.414 109.599C176.003 109.264 175.942 108.657 176.277 108.248L180.218 103.406L177.141 100.897L173.2 105.739C172.865 106.151 172.259 106.211 171.85 105.876C171.439 105.542 171.379 104.935 171.713 104.526L176.26 98.9399C176.422 98.7422 176.653 98.616 176.908 98.5913C177.16 98.5638 177.415 98.6407 177.613 98.8026L182.179 102.525C182.59 102.86 182.651 103.466 182.316 103.875L177.769 109.461C177.58 109.695 177.303 109.816 177.023 109.816H177.02Z" fill="#180063"/>
<path d="M179.285 101.408C183.665 104.979 190.108 104.32 193.676 99.9363L189.422 96.4694C187.771 98.4979 184.776 98.8054 182.749 97.1529C180.722 95.5004 180.415 92.5029 182.066 90.4743L177.812 87.0074C174.244 91.3911 174.903 97.8391 179.283 101.41L179.285 101.408Z" fill="#33BAFF"/>
<path d="M185.725 104.671C183.161 104.671 180.695 103.796 178.679 102.154C176.362 100.266 174.919 97.5866 174.615 94.611C174.31 91.6354 175.182 88.7203 177.072 86.4007C177.407 85.989 178.013 85.9286 178.421 86.2635L182.675 89.7304C182.873 89.8924 182.999 90.123 183.023 90.3782C183.048 90.6308 182.974 90.8861 182.812 91.0837C181.496 92.7032 181.737 95.0914 183.355 96.4117C184.137 97.0486 185.122 97.3423 186.128 97.2407C187.135 97.1364 188.04 96.6505 188.676 95.8682C188.838 95.6706 189.068 95.5443 189.323 95.5196C189.576 95.4922 189.831 95.569 190.028 95.731L194.282 99.1979C194.479 99.3598 194.606 99.5904 194.63 99.8457C194.655 100.098 194.581 100.354 194.419 100.551C192.532 102.871 189.855 104.315 186.882 104.619C186.496 104.658 186.109 104.68 185.725 104.68V104.671ZM177.991 88.3881C176.822 90.1641 176.307 92.2695 176.523 94.4134C176.776 96.8784 177.972 99.0991 179.891 100.664C181.811 102.228 184.225 102.953 186.688 102.7C188.83 102.481 190.785 101.548 192.288 100.046L189.499 97.7732C188.616 98.5473 187.519 99.0277 186.326 99.1512C184.806 99.3049 183.322 98.863 182.143 97.8995C179.957 96.118 179.436 93.0409 180.78 90.6637L177.991 88.3881Z" fill="#180063"/>
<path d="M126.531 109.201C126.531 109.201 136.849 108.361 138.028 118.517C139.208 128.674 131.175 132.585 131.175 132.585" fill="#180063"/>
<path d="M131.177 133.546C130.821 133.546 130.481 133.348 130.313 133.005C130.08 132.528 130.28 131.954 130.758 131.721C131.059 131.572 138.163 127.952 137.079 118.627C136.024 109.536 126.998 110.128 126.611 110.159C126.082 110.197 125.621 109.805 125.58 109.278C125.538 108.75 125.931 108.287 126.457 108.245C126.57 108.234 137.713 107.458 138.986 118.407C139.636 123.991 137.603 127.779 135.785 129.975C133.813 132.355 131.685 133.409 131.597 133.453C131.463 133.519 131.32 133.549 131.177 133.549V133.546Z" fill="#180063"/>
<path d="M108.797 44.5809C111.622 44.5809 114.447 47.5372 114.447 51.8715C114.447 47.5372 117.272 44.5809 120.097 44.5809C117.272 44.5809 114.447 41.6245 114.447 37.2902C114.447 41.6245 111.622 44.5809 108.797 44.5809Z" fill="#FFD400"/>
<path d="M114.447 52.8323C113.918 52.8323 113.487 52.4013 113.487 51.8715C113.487 48.8136 111.603 45.5416 108.797 45.5416C108.268 45.5416 107.837 45.1106 107.837 44.5808C107.837 44.0511 108.268 43.6201 108.797 43.6201C111.603 43.6201 113.487 40.3481 113.487 37.2902C113.487 36.7604 113.918 36.3294 114.447 36.3294C114.976 36.3294 115.407 36.7604 115.407 37.2902C115.407 40.3481 117.291 43.6201 120.097 43.6201C120.626 43.6201 121.057 44.0511 121.057 44.5808C121.057 45.1106 120.626 45.5416 120.097 45.5416C117.291 45.5416 115.407 48.8136 115.407 51.8715C115.407 52.4013 114.976 52.8323 114.447 52.8323ZM111.855 44.5808C112.887 45.2534 113.805 46.2635 114.447 47.5592C115.092 46.2635 116.008 45.2534 117.039 44.5808C116.008 43.9083 115.089 42.8982 114.447 41.6025C113.803 42.8982 112.887 43.9083 111.855 44.5808Z" fill="#180063"/>
<path d="M83.749 28.7725C83.2197 28.7725 82.7891 28.3415 82.7891 27.8117C82.7891 23.4636 86.3215 19.9281 90.6658 19.9281C91.2007 19.9281 91.7327 19.983 92.2538 20.0873C92.7722 20.1944 93.1068 20.7022 93.0026 21.221C92.8983 21.7398 92.3882 22.0747 91.8699 21.9704C91.4777 21.8908 91.0718 21.8496 90.6686 21.8496C87.3829 21.8496 84.7116 24.5232 84.7116 27.8117C84.7116 28.3415 84.281 28.7725 83.7517 28.7725H83.749Z" fill="#180063"/>
<path d="M79.986 30.6637C79.528 30.6637 79.1221 30.3343 79.0425 29.8677C78.9246 29.1924 78.8643 28.5007 78.8643 27.8117C78.8643 21.2978 84.1575 16 90.6657 16C91.4666 16 92.2647 16.0796 93.0436 16.2388C93.5619 16.3459 93.8993 16.8537 93.7923 17.3725C93.6854 17.8913 93.178 18.2289 92.6596 18.1219C92.0069 17.9874 91.3377 17.9215 90.6657 17.9215C85.2162 17.9215 80.7841 22.3574 80.7841 27.8117C80.7841 28.3909 80.8335 28.9701 80.9322 29.5355C81.0227 30.0571 80.6744 30.5567 80.1533 30.6473C80.0957 30.6582 80.0408 30.661 79.986 30.661V30.6637Z" fill="#180063"/>
<path d="M90.6657 163.431C76.7497 163.431 67.2712 161.6 61.7668 160.063C60.006 159.571 58.355 159.028 56.8603 158.451C56.3666 158.259 56.1198 157.705 56.3117 157.208C56.5037 156.714 57.0577 156.467 57.5542 156.659C58.9913 157.216 60.5847 157.738 62.2852 158.212C67.6717 159.717 76.9691 161.509 90.6685 161.509C104.368 161.509 113.663 159.717 119.052 158.212C120.752 157.738 122.343 157.216 123.783 156.659C124.279 156.467 124.833 156.714 125.025 157.208C125.217 157.702 124.97 158.259 124.477 158.451C122.979 159.03 121.328 159.571 119.57 160.063C114.068 161.6 104.587 163.431 90.6712 163.431H90.6657Z" fill="#180063"/>
<path d="M100.663 168.987C101.378 168.987 101.957 168.407 101.957 167.691C101.957 166.975 101.378 166.395 100.663 166.395C99.9477 166.395 99.3682 166.975 99.3682 167.691C99.3682 168.407 99.9477 168.987 100.663 168.987Z" fill="#180063"/>
<path d="M110.108 167.949C110.823 167.949 111.403 167.369 111.403 166.653C111.403 165.938 110.823 165.358 110.108 165.358C109.394 165.358 108.814 165.938 108.814 166.653C108.814 167.369 109.394 167.949 110.108 167.949Z" fill="#180063"/>
<path d="M119.008 166.104C119.723 166.104 120.302 165.524 120.302 164.809C120.302 164.093 119.723 163.513 119.008 163.513C118.293 163.513 117.713 164.093 117.713 164.809C117.713 165.524 118.293 166.104 119.008 166.104Z" fill="#180063"/>
</g>
<g clip-path="url(#clip1_268_5405)">
<path d="M206.778 79.7342C206.778 51.1059 235.157 27.9543 270.507 27.9543C305.608 27.9543 333.987 51.3549 333.987 79.7342C333.987 108.114 305.857 131.514 270.507 131.514C261.047 131.514 252.085 129.523 243.87 126.535C237.398 131.514 225.448 139.48 208.769 139.48C208.022 139.48 207.276 138.982 207.027 138.236C206.778 137.489 206.778 136.493 207.525 135.995C207.525 135.995 217.98 124.793 220.967 112.097C212.254 103.384 206.778 91.9323 206.778 79.7342Z" fill="#2D3473"/>
<path d="M227.21 75.9432H225.011L225.193 67.7273H227.022L227.21 75.9432ZM226.107 64.1819C226.444 64.1819 226.736 64.305 226.982 64.5512C227.232 64.7936 227.357 65.0872 227.357 65.4319C227.357 65.7728 227.232 66.0645 226.982 66.3069C226.736 66.5493 226.444 66.6705 226.107 66.6705C225.763 66.6705 225.467 66.5493 225.221 66.3069C224.979 66.0645 224.857 65.7728 224.857 65.4319C224.857 65.2008 224.914 64.9906 225.028 64.8012C225.141 64.6118 225.293 64.4622 225.482 64.3523C225.672 64.2387 225.88 64.1819 226.107 64.1819ZM236.045 64.5626C235.992 64.0663 235.768 63.68 235.374 63.4035C234.984 63.127 234.477 62.9887 233.852 62.9887C233.412 62.9887 233.035 63.055 232.721 63.1876C232.407 63.3201 232.166 63.5001 231.999 63.7273C231.833 63.9546 231.747 64.2141 231.744 64.5057C231.744 64.7482 231.799 64.9584 231.908 65.1364C232.022 65.3145 232.176 65.466 232.369 65.591C232.562 65.7122 232.776 65.8145 233.011 65.8978C233.246 65.9811 233.482 66.0512 233.721 66.108L234.812 66.3807C235.251 66.483 235.674 66.6213 236.079 66.7955C236.488 66.9698 236.854 67.1895 237.176 67.4546C237.501 67.7198 237.759 68.0398 237.948 68.4148C238.138 68.7898 238.232 69.2292 238.232 69.733C238.232 70.4148 238.058 71.0152 237.71 71.5342C237.361 72.0493 236.857 72.4527 236.198 72.7444C235.543 73.0323 234.749 73.1762 233.818 73.1762C232.912 73.1762 232.126 73.036 231.46 72.7557C230.797 72.4754 230.278 72.0663 229.903 71.5285C229.532 70.9906 229.331 70.3353 229.301 69.5626H231.374C231.405 69.9679 231.53 70.305 231.749 70.5739C231.969 70.8429 232.255 71.0436 232.607 71.1762C232.963 71.3088 233.361 71.3751 233.801 71.3751C234.259 71.3751 234.66 71.3069 235.005 71.1705C235.354 71.0304 235.626 70.8372 235.823 70.591C236.02 70.341 236.121 70.0493 236.124 69.716C236.121 69.4129 236.032 69.1629 235.857 68.966C235.683 68.7652 235.439 68.5985 235.124 68.466C234.814 68.3296 234.45 68.2084 234.033 68.1023L232.71 67.7614C231.751 67.5152 230.994 67.1421 230.437 66.6421C229.884 66.1383 229.607 65.4698 229.607 64.6364C229.607 63.9508 229.793 63.3504 230.164 62.8353C230.539 62.3201 231.049 61.9205 231.693 61.6364C232.336 61.3485 233.066 61.2046 233.88 61.2046C234.706 61.2046 235.429 61.3485 236.051 61.6364C236.676 61.9205 237.166 62.3163 237.522 62.8239C237.878 63.3277 238.062 63.9073 238.073 64.5626H236.045ZM245.583 69.3296V64.2728H247.64V73.0001H245.646V71.4489H245.555C245.358 71.9376 245.034 72.3372 244.583 72.6478C244.136 72.9584 243.585 73.1137 242.93 73.1137C242.358 73.1137 241.852 72.9868 241.413 72.733C240.977 72.4754 240.636 72.1023 240.39 71.6137C240.144 71.1213 240.021 70.5266 240.021 69.8296V64.2728H242.078V69.5114C242.078 70.0645 242.229 70.5038 242.532 70.8296C242.835 71.1554 243.233 71.3182 243.725 71.3182C244.028 71.3182 244.322 71.2444 244.606 71.0967C244.89 70.9489 245.123 70.7292 245.305 70.4376C245.49 70.1421 245.583 69.7728 245.583 69.3296ZM253.619 73.1705C252.744 73.1705 251.988 72.9887 251.352 72.6251C250.719 72.2576 250.232 71.7387 249.891 71.0682C249.551 70.394 249.38 69.6004 249.38 68.6876C249.38 67.7898 249.551 67.002 249.891 66.3239C250.236 65.6421 250.717 65.1118 251.335 64.733C251.952 64.3504 252.677 64.1592 253.511 64.1592C254.049 64.1592 254.556 64.2463 255.033 64.4205C255.515 64.591 255.939 64.8561 256.306 65.216C256.677 65.5758 256.969 66.0342 257.181 66.591C257.393 67.144 257.499 67.8031 257.499 68.5682V69.1989H250.346V67.8126H255.528C255.524 67.4186 255.439 67.0682 255.272 66.7614C255.105 66.4508 254.872 66.2065 254.573 66.0285C254.278 65.8504 253.933 65.7614 253.539 65.7614C253.119 65.7614 252.749 65.8637 252.431 66.0682C252.113 66.269 251.865 66.5342 251.687 66.8637C251.513 67.1895 251.424 67.5474 251.42 67.9376V69.1478C251.42 69.6554 251.513 70.091 251.698 70.4546C251.884 70.8145 252.143 71.091 252.477 71.2842C252.81 71.4735 253.2 71.5682 253.647 71.5682C253.946 71.5682 254.217 71.5266 254.46 71.4432C254.702 71.3561 254.912 71.2292 255.09 71.0626C255.268 70.8959 255.403 70.6895 255.494 70.4432L257.414 70.6592C257.293 71.1667 257.062 71.6099 256.721 71.9887C256.384 72.3637 255.952 72.6554 255.426 72.8637C254.899 73.0682 254.297 73.1705 253.619 73.1705ZM259.239 73.0001V64.2728H261.234V65.7273H261.325C261.484 65.2235 261.756 64.8353 262.143 64.5626C262.533 64.286 262.978 64.1478 263.478 64.1478C263.592 64.1478 263.719 64.1535 263.859 64.1648C264.003 64.1724 264.122 64.1857 264.217 64.2046V66.0967C264.13 66.0663 263.991 66.0398 263.802 66.0171C263.616 65.9906 263.436 65.9773 263.262 65.9773C262.887 65.9773 262.55 66.0588 262.251 66.2217C261.955 66.3807 261.722 66.6023 261.552 66.8864C261.381 67.1705 261.296 67.4982 261.296 67.8694V73.0001H259.239ZM270.41 64.2728V65.8637H265.393V64.2728H270.41ZM266.631 62.1819H268.688V70.3751C268.688 70.6516 268.73 70.8637 268.813 71.0114C268.9 71.1554 269.014 71.2538 269.154 71.3069C269.294 71.3599 269.45 71.3864 269.62 71.3864C269.749 71.3864 269.866 71.377 269.972 71.358C270.082 71.3391 270.166 71.322 270.222 71.3069L270.569 72.9148C270.459 72.9527 270.302 72.9944 270.097 73.0398C269.897 73.0853 269.65 73.1118 269.359 73.1194C268.844 73.1345 268.38 73.0569 267.967 72.8864C267.554 72.7122 267.226 72.4432 266.984 72.0796C266.745 71.716 266.628 71.2614 266.631 70.716V62.1819ZM275.9 73.1705C275.025 73.1705 274.269 72.9887 273.633 72.6251C273 72.2576 272.514 71.7387 272.173 71.0682C271.832 70.394 271.661 69.6004 271.661 68.6876C271.661 67.7898 271.832 67.002 272.173 66.3239C272.517 65.6421 272.998 65.1118 273.616 64.733C274.233 64.3504 274.959 64.1592 275.792 64.1592C276.33 64.1592 276.837 64.2463 277.315 64.4205C277.796 64.591 278.22 64.8561 278.587 65.216C278.959 65.5758 279.25 66.0342 279.462 66.591C279.675 67.144 279.781 67.8031 279.781 68.5682V69.1989H272.627V67.8126H277.809C277.805 67.4186 277.72 67.0682 277.553 66.7614C277.387 66.4508 277.154 66.2065 276.854 66.0285C276.559 65.8504 276.214 65.7614 275.82 65.7614C275.4 65.7614 275.031 65.8637 274.712 66.0682C274.394 66.269 274.146 66.5342 273.968 66.8637C273.794 67.1895 273.705 67.5474 273.701 67.9376V69.1478C273.701 69.6554 273.794 70.091 273.979 70.4546C274.165 70.8145 274.425 71.091 274.758 71.2842C275.091 71.4735 275.481 71.5682 275.928 71.5682C276.228 71.5682 276.498 71.5266 276.741 71.4432C276.983 71.3561 277.194 71.2292 277.372 71.0626C277.55 70.8959 277.684 70.6895 277.775 70.4432L279.695 70.6592C279.574 71.1667 279.343 71.6099 279.002 71.9887C278.665 72.3637 278.233 72.6554 277.707 72.8637C277.18 73.0682 276.578 73.1705 275.9 73.1705ZM289.296 73.1705C288.425 73.1705 287.677 72.9792 287.052 72.5967C286.431 72.2141 285.952 71.6857 285.614 71.0114C285.281 70.3334 285.114 69.5531 285.114 68.6705C285.114 67.7842 285.285 67.002 285.626 66.3239C285.967 65.6421 286.448 65.1118 287.069 64.733C287.694 64.3504 288.433 64.1592 289.285 64.1592C289.993 64.1592 290.62 64.2898 291.166 64.5512C291.715 64.8088 292.152 65.1743 292.478 65.6478C292.804 66.1175 292.989 66.6667 293.035 67.2955H291.069C290.989 66.8751 290.8 66.5247 290.501 66.2444C290.205 65.9603 289.81 65.8182 289.313 65.8182C288.893 65.8182 288.524 65.9319 288.205 66.1592C287.887 66.3826 287.639 66.7046 287.461 67.1251C287.287 67.5455 287.2 68.0493 287.2 68.6364C287.2 69.2311 287.287 69.7425 287.461 70.1705C287.635 70.5948 287.88 70.9224 288.194 71.1535C288.512 71.3807 288.885 71.4944 289.313 71.4944C289.616 71.4944 289.887 71.4376 290.126 71.3239C290.368 71.2065 290.571 71.0379 290.734 70.8182C290.897 70.5985 291.008 70.3315 291.069 70.0171H293.035C292.986 70.6345 292.804 71.1819 292.489 71.6592C292.175 72.1326 291.747 72.5038 291.205 72.7728C290.664 73.0379 290.027 73.1705 289.296 73.1705ZM298.531 73.1705C297.678 73.1705 296.94 72.983 296.315 72.608C295.69 72.233 295.205 71.7084 294.86 71.0342C294.519 70.3599 294.349 69.572 294.349 68.6705C294.349 67.769 294.519 66.9792 294.86 66.3012C295.205 65.6232 295.69 65.0967 296.315 64.7217C296.94 64.3467 297.678 64.1592 298.531 64.1592C299.383 64.1592 300.122 64.3467 300.747 64.7217C301.372 65.0967 301.854 65.6232 302.195 66.3012C302.54 66.9792 302.712 67.769 302.712 68.6705C302.712 69.572 302.54 70.3599 302.195 71.0342C301.854 71.7084 301.372 72.233 300.747 72.608C300.122 72.983 299.383 73.1705 298.531 73.1705ZM298.542 71.5228C299.004 71.5228 299.39 71.3959 299.701 71.1421C300.012 70.8845 300.243 70.5398 300.394 70.108C300.55 69.6762 300.627 69.1951 300.627 68.6648C300.627 68.1307 300.55 67.6478 300.394 67.216C300.243 66.7804 300.012 66.4338 299.701 66.1762C299.39 65.9186 299.004 65.7898 298.542 65.7898C298.069 65.7898 297.675 65.9186 297.36 66.1762C297.05 66.4338 296.817 66.7804 296.661 67.216C296.51 67.6478 296.434 68.1307 296.434 68.6648C296.434 69.1951 296.51 69.6762 296.661 70.108C296.817 70.5398 297.05 70.8845 297.36 71.1421C297.675 71.3959 298.069 71.5228 298.542 71.5228ZM306.515 67.8864V73.0001H304.458V64.2728H306.424V65.7557H306.526C306.727 65.2671 307.047 64.8788 307.487 64.591C307.93 64.3031 308.477 64.1592 309.129 64.1592C309.731 64.1592 310.256 64.2879 310.703 64.5455C311.153 64.8031 311.502 65.1762 311.748 65.6648C311.998 66.1535 312.121 66.7463 312.117 67.4432V73.0001H310.06V67.7614C310.06 67.1781 309.909 66.7217 309.606 66.3921C309.307 66.0626 308.892 65.8978 308.362 65.8978C308.002 65.8978 307.682 65.9773 307.401 66.1364C307.125 66.2917 306.907 66.5171 306.748 66.8126C306.593 67.108 306.515 67.466 306.515 67.8864ZM229.051 86.2728V87.8637H224.033V86.2728H229.051ZM225.272 84.1819H227.329V92.3751C227.329 92.6516 227.371 92.8637 227.454 93.0114C227.541 93.1554 227.655 93.2538 227.795 93.3069C227.935 93.3599 228.09 93.3864 228.261 93.3864C228.39 93.3864 228.507 93.377 228.613 93.358C228.723 93.3391 228.806 93.322 228.863 93.3069L229.21 94.9148C229.1 94.9527 228.943 94.9944 228.738 95.0398C228.537 95.0853 228.291 95.1118 227.999 95.1194C227.484 95.1345 227.02 95.0569 226.607 94.8864C226.194 94.7122 225.867 94.4432 225.624 94.0796C225.386 93.716 225.268 93.2614 225.272 92.716V84.1819ZM236.333 91.3296V86.2728H238.39V95.0001H236.396V93.4489H236.305C236.108 93.9376 235.784 94.3372 235.333 94.6478C234.886 94.9584 234.335 95.1137 233.68 95.1137C233.108 95.1137 232.602 94.9868 232.163 94.733C231.727 94.4754 231.386 94.1023 231.14 93.6137C230.894 93.1213 230.771 92.5266 230.771 91.8296V86.2728H232.828V91.5114C232.828 92.0645 232.979 92.5038 233.282 92.8296C233.585 93.1554 233.983 93.3182 234.475 93.3182C234.778 93.3182 235.072 93.2444 235.356 93.0967C235.64 92.9489 235.873 92.7292 236.055 92.4376C236.24 92.1421 236.333 91.7728 236.333 91.3296ZM246.985 95.1762C246.432 95.1762 245.934 95.0777 245.491 94.8807C245.051 94.68 244.703 94.3845 244.445 93.9944C244.192 93.6042 244.065 93.1232 244.065 92.5512C244.065 92.0588 244.156 91.6516 244.337 91.3296C244.519 91.0076 244.767 90.7501 245.082 90.5569C245.396 90.3637 245.75 90.2179 246.144 90.1194C246.542 90.0171 246.953 89.9432 247.377 89.8978C247.889 89.8448 248.303 89.7974 248.622 89.7557C248.94 89.7103 249.171 89.6421 249.315 89.5512C249.462 89.4565 249.536 89.3107 249.536 89.1137V89.0796C249.536 88.6516 249.409 88.3201 249.156 88.0853C248.902 87.8504 248.536 87.733 248.059 87.733C247.555 87.733 247.156 87.8429 246.86 88.0626C246.569 88.2823 246.372 88.5417 246.269 88.841L244.349 88.5682C244.5 88.0379 244.75 87.5948 245.099 87.2387C245.447 86.8788 245.873 86.6099 246.377 86.4319C246.881 86.2501 247.438 86.1592 248.048 86.1592C248.468 86.1592 248.887 86.2084 249.303 86.3069C249.72 86.4054 250.101 86.5682 250.445 86.7955C250.79 87.019 251.067 87.3239 251.275 87.7103C251.487 88.0967 251.593 88.5796 251.593 89.1592V95.0001H249.616V93.8012H249.548C249.423 94.0436 249.247 94.2709 249.019 94.483C248.796 94.6913 248.514 94.8599 248.173 94.9887C247.836 95.1137 247.44 95.1762 246.985 95.1762ZM247.519 93.6648C247.932 93.6648 248.29 93.5834 248.593 93.4205C248.896 93.2538 249.129 93.0342 249.292 92.7614C249.459 92.4887 249.542 92.1913 249.542 91.8694V90.841C249.478 90.894 249.368 90.9432 249.212 90.9887C249.061 91.0342 248.89 91.0739 248.701 91.108C248.512 91.1421 248.324 91.1724 248.139 91.1989C247.953 91.2254 247.792 91.2482 247.656 91.2671C247.349 91.3088 247.074 91.377 246.832 91.4717C246.589 91.5663 246.398 91.6989 246.258 91.8694C246.118 92.036 246.048 92.252 246.048 92.5171C246.048 92.8959 246.186 93.1819 246.462 93.3751C246.739 93.5682 247.091 93.6648 247.519 93.6648ZM253.661 98.2728V86.2728H255.684V87.716H255.803C255.909 87.5038 256.059 87.2785 256.252 87.0398C256.445 86.7974 256.707 86.591 257.036 86.4205C257.366 86.2463 257.786 86.1592 258.298 86.1592C258.972 86.1592 259.58 86.3315 260.122 86.6762C260.667 87.0171 261.099 87.5228 261.417 88.1932C261.739 88.8599 261.9 89.6781 261.9 90.6478C261.9 91.6061 261.743 92.4205 261.428 93.091C261.114 93.7614 260.686 94.2728 260.144 94.6251C259.603 94.9773 258.989 95.1535 258.303 95.1535C257.803 95.1535 257.389 95.0701 257.059 94.9035C256.729 94.7368 256.464 94.536 256.264 94.3012C256.067 94.0626 255.913 93.8372 255.803 93.6251H255.718V98.2728H253.661ZM255.678 90.6364C255.678 91.2008 255.758 91.6951 255.917 92.1194C256.08 92.5436 256.313 92.8751 256.616 93.1137C256.923 93.3485 257.294 93.466 257.729 93.466C258.184 93.466 258.565 93.3448 258.872 93.1023C259.178 92.8561 259.409 92.5209 259.565 92.0967C259.724 91.6686 259.803 91.1819 259.803 90.6364C259.803 90.0948 259.726 89.6137 259.57 89.1932C259.415 88.7728 259.184 88.4432 258.877 88.2046C258.57 87.966 258.188 87.8467 257.729 87.8467C257.29 87.8467 256.917 87.9622 256.61 88.1932C256.303 88.4243 256.07 88.7482 255.911 89.1648C255.756 89.5815 255.678 90.072 255.678 90.6364ZM267.525 95.1705C266.65 95.1705 265.894 94.9887 265.258 94.6251C264.625 94.2576 264.139 93.7387 263.798 93.0682C263.457 92.394 263.286 91.6004 263.286 90.6876C263.286 89.7898 263.457 89.002 263.798 88.3239C264.142 87.6421 264.623 87.1118 265.241 86.733C265.858 86.3504 266.584 86.1592 267.417 86.1592C267.955 86.1592 268.462 86.2463 268.94 86.4205C269.421 86.591 269.845 86.8561 270.212 87.216C270.584 87.5758 270.875 88.0342 271.087 88.591C271.3 89.144 271.406 89.8031 271.406 90.5682V91.1989H264.252V89.8126H269.434C269.43 89.4186 269.345 89.0682 269.178 88.7614C269.012 88.4508 268.779 88.2065 268.479 88.0285C268.184 87.8504 267.839 87.7614 267.445 87.7614C267.025 87.7614 266.656 87.8637 266.337 88.0682C266.019 88.269 265.771 88.5342 265.593 88.8637C265.419 89.1895 265.33 89.5474 265.326 89.9376V91.1478C265.326 91.6554 265.419 92.091 265.604 92.4546C265.79 92.8145 266.05 93.091 266.383 93.2842C266.716 93.4735 267.106 93.5682 267.553 93.5682C267.853 93.5682 268.123 93.5266 268.366 93.4432C268.608 93.3561 268.819 93.2292 268.997 93.0626C269.175 92.8959 269.309 92.6895 269.4 92.4432L271.32 92.6592C271.199 93.1667 270.968 93.6099 270.627 93.9887C270.29 94.3637 269.858 94.6554 269.332 94.8637C268.805 95.0682 268.203 95.1705 267.525 95.1705ZM275.203 83.3637V95.0001H273.146V83.3637H275.203ZM279.829 95.1762C279.276 95.1762 278.778 95.0777 278.335 94.8807C277.895 94.68 277.547 94.3845 277.289 93.9944C277.035 93.6042 276.908 93.1232 276.908 92.5512C276.908 92.0588 276.999 91.6516 277.181 91.3296C277.363 91.0076 277.611 90.7501 277.926 90.5569C278.24 90.3637 278.594 90.2179 278.988 90.1194C279.386 90.0171 279.797 89.9432 280.221 89.8978C280.732 89.8448 281.147 89.7974 281.465 89.7557C281.783 89.7103 282.015 89.6421 282.158 89.5512C282.306 89.4565 282.38 89.3107 282.38 89.1137V89.0796C282.38 88.6516 282.253 88.3201 281.999 88.0853C281.746 87.8504 281.38 87.733 280.903 87.733C280.399 87.733 279.999 87.8429 279.704 88.0626C279.412 88.2823 279.215 88.5417 279.113 88.841L277.193 88.5682C277.344 88.0379 277.594 87.5948 277.943 87.2387C278.291 86.8788 278.717 86.6099 279.221 86.4319C279.725 86.2501 280.282 86.1592 280.891 86.1592C281.312 86.1592 281.73 86.2084 282.147 86.3069C282.564 86.4054 282.944 86.5682 283.289 86.7955C283.634 87.019 283.91 87.3239 284.119 87.7103C284.331 88.0967 284.437 88.5796 284.437 89.1592V95.0001H282.46V93.8012H282.391C282.266 94.0436 282.09 94.2709 281.863 94.483C281.64 94.6913 281.357 94.8599 281.016 94.9887C280.679 95.1137 280.283 95.1762 279.829 95.1762ZM280.363 93.6648C280.776 93.6648 281.134 93.5834 281.437 93.4205C281.74 93.2538 281.973 93.0342 282.136 92.7614C282.302 92.4887 282.386 92.1913 282.386 91.8694V90.841C282.321 90.894 282.212 90.9432 282.056 90.9887C281.905 91.0342 281.734 91.0739 281.545 91.108C281.355 91.1421 281.168 91.1724 280.982 91.1989C280.797 91.2254 280.636 91.2482 280.499 91.2671C280.193 91.3088 279.918 91.377 279.676 91.4717C279.433 91.5663 279.242 91.6989 279.102 91.8694C278.961 92.036 278.891 92.252 278.891 92.5171C278.891 92.8959 279.03 93.1819 279.306 93.3751C279.583 93.5682 279.935 93.6648 280.363 93.6648ZM290.312 95.1705C289.441 95.1705 288.693 94.9792 288.068 94.5967C287.446 94.2141 286.967 93.6857 286.63 93.0114C286.297 92.3334 286.13 91.5531 286.13 90.6705C286.13 89.7842 286.301 89.002 286.641 88.3239C286.982 87.6421 287.463 87.1118 288.085 86.733C288.71 86.3504 289.448 86.1592 290.301 86.1592C291.009 86.1592 291.636 86.2898 292.181 86.5512C292.73 86.8088 293.168 87.1743 293.494 87.6478C293.819 88.1175 294.005 88.6667 294.051 89.2955H292.085C292.005 88.8751 291.816 88.5247 291.516 88.2444C291.221 87.9603 290.825 87.8182 290.329 87.8182C289.908 87.8182 289.539 87.9319 289.221 88.1592C288.903 88.3826 288.655 88.7046 288.477 89.1251C288.302 89.5455 288.215 90.0493 288.215 90.6364C288.215 91.2311 288.302 91.7425 288.477 92.1705C288.651 92.5948 288.895 92.9224 289.21 93.1535C289.528 93.3807 289.901 93.4944 290.329 93.4944C290.632 93.4944 290.903 93.4376 291.141 93.3239C291.384 93.2065 291.587 93.0379 291.749 92.8182C291.912 92.5985 292.024 92.3315 292.085 92.0171H294.051C294.001 92.6345 293.819 93.1819 293.505 93.6592C293.191 94.1326 292.763 94.5038 292.221 94.7728C291.679 95.0379 291.043 95.1705 290.312 95.1705ZM295.739 95.0001V86.2728H297.796V95.0001H295.739ZM296.774 85.0342C296.448 85.0342 296.167 84.9262 295.933 84.7103C295.698 84.4906 295.58 84.2273 295.58 83.9205C295.58 83.6099 295.698 83.3467 295.933 83.1307C296.167 82.911 296.448 82.8012 296.774 82.8012C297.103 82.8012 297.383 82.911 297.614 83.1307C297.849 83.3467 297.967 83.6099 297.967 83.9205C297.967 84.2273 297.849 84.4906 297.614 84.7103C297.383 84.9262 297.103 85.0342 296.774 85.0342ZM303.718 95.1705C302.866 95.1705 302.127 94.983 301.502 94.608C300.877 94.233 300.392 93.7084 300.048 93.0342C299.707 92.3599 299.536 91.572 299.536 90.6705C299.536 89.769 299.707 88.9792 300.048 88.3012C300.392 87.6232 300.877 87.0967 301.502 86.7217C302.127 86.3467 302.866 86.1592 303.718 86.1592C304.57 86.1592 305.309 86.3467 305.934 86.7217C306.559 87.0967 307.042 87.6232 307.383 88.3012C307.728 88.9792 307.9 89.769 307.9 90.6705C307.9 91.572 307.728 92.3599 307.383 93.0342C307.042 93.7084 306.559 94.233 305.934 94.608C305.309 94.983 304.57 95.1705 303.718 95.1705ZM303.729 93.5228C304.192 93.5228 304.578 93.3959 304.889 93.1421C305.199 92.8845 305.43 92.5398 305.582 92.108C305.737 91.6762 305.815 91.1951 305.815 90.6648C305.815 90.1307 305.737 89.6478 305.582 89.216C305.43 88.7804 305.199 88.4338 304.889 88.1762C304.578 87.9186 304.192 87.7898 303.729 87.7898C303.256 87.7898 302.862 87.9186 302.548 88.1762C302.237 88.4338 302.004 88.7804 301.849 89.216C301.697 89.6478 301.622 90.1307 301.622 90.6648C301.622 91.1951 301.697 91.6762 301.849 92.108C302.004 92.5398 302.237 92.8845 302.548 93.1421C302.862 93.3959 303.256 93.5228 303.729 93.5228ZM302.928 85.1251L304.201 82.5285H306.212L304.468 85.1251H302.928ZM311.703 89.8864V95.0001H309.646V86.2728H311.612V87.7557H311.714C311.915 87.2671 312.235 86.8788 312.674 86.591C313.117 86.3031 313.665 86.1592 314.316 86.1592C314.918 86.1592 315.443 86.2879 315.89 86.5455C316.341 86.8031 316.689 87.1762 316.935 87.6648C317.185 88.1535 317.309 88.7463 317.305 89.4432V95.0001H315.248V89.7614C315.248 89.1781 315.096 88.7217 314.793 88.3921C314.494 88.0626 314.079 87.8978 313.549 87.8978C313.189 87.8978 312.869 87.9773 312.589 88.1364C312.312 88.2917 312.095 88.5171 311.935 88.8126C311.78 89.108 311.703 89.466 311.703 89.8864ZM321.913 83.3637L321.725 91.5796H319.896L319.714 83.3637H321.913ZM320.81 95.1251C320.466 95.1251 320.17 95.0038 319.924 94.7614C319.682 94.519 319.56 94.2235 319.56 93.8751C319.56 93.5342 319.682 93.2425 319.924 93.0001C320.17 92.7576 320.466 92.6364 320.81 92.6364C321.148 92.6364 321.439 92.7576 321.685 93.0001C321.935 93.2425 322.06 93.5342 322.06 93.8751C322.06 94.1061 322.002 94.3163 321.884 94.5057C321.771 94.6951 321.619 94.8467 321.43 94.9603C321.244 95.0701 321.038 95.1251 320.81 95.1251Z" fill="white"/>
<path d="M310.955 136.705C315.537 137.651 319.129 143.392 317.678 150.422C319.129 143.392 324.7 139.542 329.282 140.488C324.7 139.542 321.108 133.801 322.559 126.771C321.108 133.801 315.537 137.651 310.955 136.705Z" fill="#FFD400"/>
<path d="M317.357 151.98C316.498 151.803 315.944 150.96 316.121 150.101C317.145 145.141 315.184 139.203 310.633 138.264C309.774 138.086 309.22 137.243 309.398 136.384C309.575 135.525 310.418 134.97 311.276 135.147C315.827 136.086 319.978 131.41 321.002 126.45C321.179 125.59 322.022 125.035 322.881 125.213C323.739 125.39 324.293 126.233 324.116 127.092C323.092 132.052 325.053 137.99 329.604 138.929C330.463 139.106 331.017 139.95 330.839 140.809C330.662 141.668 329.819 142.223 328.961 142.046C324.41 141.107 320.259 145.783 319.235 150.743C319.058 151.602 318.215 152.157 317.357 151.98ZM315.915 137.729C317.362 139.165 318.514 141.111 319.122 143.427C320.601 141.541 322.425 140.21 324.322 139.464C322.875 138.028 321.723 136.082 321.115 133.766C319.636 135.651 317.812 136.983 315.915 137.729Z" fill="#2D3473"/>
<path d="M213.002 42.3096C212.193 42.2636 211.572 41.5676 211.618 40.7579C211.996 34.1126 217.702 29.0161 224.342 29.3936C225.159 29.4401 225.967 29.5703 226.755 29.775C227.538 29.9836 228.005 30.7888 227.8 31.5727C227.596 32.3565 226.787 32.824 226.004 32.6195C225.412 32.4638 224.795 32.3656 224.179 32.3306C219.157 32.045 214.842 35.899 214.556 40.925C214.51 41.7346 213.815 42.3559 213.006 42.3099L213.002 42.3096Z" fill="#2D3473"/>
<path d="M207.086 44.8731C206.386 44.8333 205.794 44.2946 205.713 43.5745C205.591 42.5323 205.559 41.4698 205.619 40.4168C206.185 30.4615 214.735 22.8246 224.682 23.3902C225.906 23.4598 227.119 23.6509 228.295 23.9619C229.078 24.1705 229.55 24.976 229.341 25.7596C229.133 26.5432 228.328 27.0151 227.545 26.8064C226.559 26.5442 225.542 26.3853 224.515 26.3269C216.186 25.8533 209.027 32.2477 208.553 40.5836C208.503 41.4688 208.528 42.3583 208.63 43.2311C208.723 44.0361 208.147 44.7694 207.343 44.8625C207.254 44.8743 207.17 44.8737 207.086 44.869L207.086 44.8731Z" fill="#2D3473"/>
</g>
<defs>
<clipPath id="clip0_268_5405">
<rect width="182.271" height="200" fill="white" transform="translate(12.3643 16)"/>
</clipPath>
<clipPath id="clip1_268_5405">
<rect width="143" height="140" fill="white" transform="translate(194.636 16)"/>
</clipPath>
</defs>
</svg>
