<svg width="390" height="97" viewBox="0 0 390 97" fill="none" xmlns="http://www.w3.org/2000/svg">
<mask id="mask0_676_8780" style="mask-type:alpha" maskUnits="userSpaceOnUse" x="0" y="0" width="390" height="97">
<rect width="390" height="97" fill="#2D3473"/>
</mask>
<g mask="url(#mask0_676_8780)">
<path d="M310.757 208.412C309.194 208.412 307.923 207.141 307.923 205.578V22.5692H285.177C275.388 22.5692 266.189 18.7554 259.266 11.8402C258.157 10.7309 258.157 8.94135 259.266 7.83201C260.375 6.72266 262.165 6.72266 263.274 7.83201C269.12 13.6783 276.902 16.9011 285.177 16.9011H310.757C312.32 16.9011 313.591 18.1724 313.591 19.7352V205.578C313.591 207.141 312.32 208.412 310.757 208.412Z" fill="#180063"/>
<path d="M256.043 60.9021C255.703 60.9021 255.355 60.8374 255.015 60.7078C253.557 60.141 252.828 58.4972 253.395 57.0397L268.294 18.7067C268.861 17.2492 270.505 16.5285 271.963 17.0872C273.42 17.654 274.149 19.2978 273.582 20.7553L258.691 59.0883C258.254 60.2058 257.185 60.894 256.051 60.894L256.043 60.9021Z" fill="#180063"/>
<path d="M285.833 60.9022C284.7 60.9022 283.623 60.2139 283.194 59.0965L268.294 20.7635C267.728 19.3059 268.448 17.6622 269.914 17.0954C271.38 16.5285 273.015 17.2492 273.582 18.7148L288.473 57.0478C289.04 58.5054 288.319 60.1491 286.854 60.7159C286.514 60.8455 286.165 60.9103 285.825 60.9103L285.833 60.9022Z" fill="#180063"/>
<path d="M248.836 58.0681C252.14 67.0724 260.788 73.5017 270.934 73.5017C281.08 73.5017 289.736 67.0724 293.032 58.0681H248.836Z" fill="#FFD400"/>
<path d="M270.934 76.3277C259.914 76.3277 249.962 69.3802 246.172 59.0398C245.857 58.1734 245.978 57.2017 246.513 56.4406C247.039 55.6794 247.913 55.226 248.837 55.226H293.04C293.963 55.226 294.83 55.6794 295.364 56.4406C295.898 57.2017 296.02 58.1653 295.704 59.0398C291.915 69.3802 281.963 76.3277 270.942 76.3277H270.934ZM253.355 60.8941C257.088 66.8619 263.719 70.6596 270.934 70.6596C278.149 70.6596 284.781 66.8619 288.514 60.8941H253.363H253.355Z" fill="#180063"/>
<path d="M325.235 208.412C323.672 208.412 322.401 207.141 322.401 205.578V19.7352C322.401 18.1724 323.672 16.9011 325.235 16.9011H350.814C359.09 16.9011 366.863 13.6783 372.718 7.83201C373.827 6.72266 375.617 6.72266 376.726 7.83201C377.835 8.94135 377.835 10.7309 376.726 11.8402C369.811 18.7635 360.604 22.5692 350.814 22.5692H328.069V205.578C328.069 207.141 326.798 208.412 325.235 208.412Z" fill="#180063"/>
<path d="M379.949 60.9022C378.815 60.9022 377.738 60.2139 377.309 59.0965L362.418 20.7635C361.851 19.3059 362.572 17.6622 364.037 17.0954C365.503 16.5285 367.139 17.2492 367.706 18.7148L382.597 57.0478C383.163 58.5054 382.443 60.1491 380.977 60.7159C380.637 60.8455 380.289 60.9103 379.949 60.9103V60.9022Z" fill="#180063"/>
<path d="M350.159 60.9021C349.819 60.9021 349.47 60.8374 349.13 60.7078C347.673 60.141 346.944 58.4972 347.511 57.0397L362.402 18.7067C362.969 17.2492 364.612 16.5285 366.07 17.0872C367.527 17.654 368.256 19.2978 367.689 20.7553L352.798 59.0883C352.361 60.2058 351.292 60.894 350.159 60.894V60.9021Z" fill="#180063"/>
<path d="M387.155 58.0681C383.852 67.0724 375.204 73.5017 365.058 73.5017C354.912 73.5017 346.256 67.0724 342.96 58.0681H387.164H387.155Z" fill="#FFD400"/>
<path d="M365.058 76.3277C354.037 76.3277 344.086 69.3802 340.296 59.0398C339.98 58.1734 340.102 57.2017 340.636 56.4406C341.162 55.6794 342.037 55.226 342.96 55.226H387.164C388.087 55.226 388.953 55.6794 389.488 56.4406C390.022 57.2017 390.143 58.1653 389.828 59.0398C386.038 69.3802 376.086 76.3277 365.066 76.3277H365.058ZM347.478 60.8941C351.211 66.8619 357.835 70.6596 365.058 70.6596C372.281 70.6596 378.904 66.8619 382.637 60.8941H347.486H347.478Z" fill="#180063"/>
<path d="M83.6978 18.5101C85.7054 11.1218 93.2796 6.60612 100.879 8.67112L133.81 17.6195C136.343 18.3078 138.743 20.3201 140.127 22.7362L157.806 53.6087C159.19 56.0248 159.711 59.1132 159.022 61.6464L142.732 121.597C140.667 129.197 132.939 133.444 125.55 131.436L71.51 116.752C63.9106 114.687 59.606 107.17 61.6711 99.5707L83.6978 18.5101ZM150.661 65.7215L127.018 59.297C121.319 57.7483 118.09 52.1107 119.639 46.4111L126.064 22.7684L99.0434 15.4262C95.2437 14.3937 91.428 16.757 90.4528 20.3457L68.4261 101.406C67.3936 105.206 69.5459 108.964 73.3456 109.997L127.386 124.681C130.975 125.657 134.944 123.562 135.977 119.762L150.661 65.7215ZM151.843 57.2019L134.01 26.061C133.702 25.5241 133.126 25.1409 132.761 24.8151L126.394 48.2467C125.878 50.1465 126.954 52.0257 128.854 52.542L152.286 58.9091C152.189 58.4295 152.15 57.7389 151.843 57.2019Z" fill="#2D3473"/>
</g>
</svg>
