<svg width="358" height="240" viewBox="0 0 358 240" fill="none" xmlns="http://www.w3.org/2000/svg">
<g filter="url(#filter0_dd_309_6472)">
<rect x="4" width="350" height="232" rx="8" fill="#DFEAFF" shape-rendering="crispEdges"/>
<g clip-path="url(#clip0_309_6472)">
<path d="M133.052 66.5627H143.021V60.7104H129.985" fill="#FFD400"/>
<path d="M143.021 67.5234H133.052C132.522 67.5234 132.092 67.0925 132.092 66.5627C132.092 66.0329 132.522 65.602 133.052 65.602H142.061V61.6711H129.988C129.459 61.6711 129.028 61.2402 129.028 60.7104C129.028 60.1806 129.459 59.7496 129.988 59.7496H143.021C143.55 59.7496 143.981 60.1806 143.981 60.7104V66.5627C143.981 67.0925 143.55 67.5234 143.021 67.5234Z" fill="#180063"/>
<path d="M143.021 57.6662V69.6097C146.315 69.6097 148.986 66.936 148.986 63.6393C148.986 60.3426 146.315 57.6689 143.021 57.6689V57.6662Z" fill="#180063"/>
<path d="M143.021 70.5704C142.492 70.5704 142.061 70.1394 142.061 69.6096V57.6662C142.061 57.1364 142.492 56.7054 143.021 56.7054C146.839 56.7054 149.946 59.8155 149.946 63.6365C149.946 67.4576 146.839 70.5676 143.021 70.5676V70.5704ZM143.981 58.7203V68.5556C146.285 68.1054 148.026 66.0714 148.026 63.6365C148.026 61.2017 146.282 59.1677 143.981 58.7175V58.7203Z" fill="#180063"/>
<path d="M56.2804 66.5627H46.311V60.7104H59.3439" fill="#FFD400"/>
<path d="M56.2804 67.5234H46.311C45.7817 67.5234 45.3511 67.0925 45.3511 66.5627V60.7104C45.3511 60.1806 45.7817 59.7496 46.311 59.7496H59.3439C59.8732 59.7496 60.3038 60.1806 60.3038 60.7104C60.3038 61.2402 59.8732 61.6711 59.3439 61.6711H47.2709V65.602H56.2804C56.8097 65.602 57.2403 66.0329 57.2403 66.5627C57.2403 67.0925 56.8097 67.5234 56.2804 67.5234Z" fill="#180063"/>
<path d="M46.3109 57.6662V69.6097C43.017 69.6097 40.3457 66.936 40.3457 63.6393C40.3457 60.3426 43.017 57.6689 46.3109 57.6689V57.6662Z" fill="#180063"/>
<path d="M46.3108 70.5704C42.4931 70.5704 39.3857 67.4603 39.3857 63.6393C39.3857 59.8183 42.4931 56.7082 46.3108 56.7082C46.8402 56.7082 47.2708 57.1392 47.2708 57.6689V69.6124C47.2708 70.1422 46.8402 70.5731 46.3108 70.5731V70.5704ZM45.3509 58.7203C43.0471 59.1704 41.3056 61.2045 41.3056 63.6393C41.3056 66.0741 43.0499 68.1081 45.3509 68.5583V58.723V58.7203Z" fill="#180063"/>
<path d="M104.879 181.383H84.4497V205.069H104.879V181.383Z" fill="#FFD400"/>
<path d="M84.4497 191.896C85.1491 190.15 85.0257 182.311 101.018 182.311C114.298 182.311 84.4497 180.784 84.4497 180.784V191.896Z" fill="#180063"/>
<path d="M84.4497 192.857C84.3893 192.857 84.329 192.851 84.2686 192.84C83.8161 192.753 83.4897 192.357 83.4897 191.896V180.784C83.4897 180.521 83.5967 180.268 83.7887 180.087C83.9807 179.906 84.2357 179.813 84.499 179.824C84.5484 179.824 89.5564 180.082 94.4986 180.381C97.403 180.557 99.7205 180.713 101.383 180.845C102.378 180.924 103.152 180.996 103.678 181.056C104.487 181.15 105.406 181.257 105.381 182.201C105.357 183.164 104.378 183.203 103.664 183.233C103.086 183.258 102.194 183.269 101.018 183.269C87.6037 183.269 86.2077 188.901 85.6125 191.309C85.522 191.674 85.4452 191.99 85.3383 192.25C85.1902 192.621 84.8336 192.854 84.4469 192.854L84.4497 192.857ZM85.4096 181.797V186.892C85.8566 186.244 86.4298 185.594 87.1676 184.979C88.6431 183.746 90.5849 182.824 92.9792 182.22C90.3874 182.066 87.7161 181.921 85.4123 181.8L85.4096 181.797Z" fill="#180063"/>
<path d="M64.064 103.373C64.064 103.373 70.6353 100.875 94.6661 100.875C118.697 100.875 125.158 103.099 125.158 103.099C125.158 103.099 118.801 107.271 94.6661 107.271C70.5311 107.271 64.064 103.373 64.064 103.373Z" fill="#180063"/>
<path d="M113.878 96.5298H75.4541V106.994H113.878V96.5298Z" fill="#FFD400"/>
<path d="M75.2427 106.228C75.2427 106.228 79.853 97.378 103.607 97.378C75.7309 97.378 75.2427 97.5372 75.2427 97.5372V106.225V106.228Z" fill="#180063"/>
<path d="M75.2426 107.186C75.1658 107.186 75.0863 107.178 75.0068 107.156C74.5817 107.049 74.2827 106.667 74.2827 106.228V97.5399C74.2827 97.1254 74.5487 96.7576 74.9437 96.6259C75.1165 96.5682 75.5772 96.4172 103.607 96.4172C104.136 96.4172 104.567 96.8482 104.567 97.378C104.567 97.9078 104.136 98.3387 103.607 98.3387C97.0355 98.3387 87.812 99.0662 81.1804 102.539C77.2612 104.589 76.1038 106.659 76.0928 106.678C75.9228 106.994 75.5909 107.183 75.2454 107.183L75.2426 107.186ZM76.2025 98.465V103.631C77.9331 102.042 81.1283 99.9034 86.7287 98.3689C80.1711 98.3964 77.3846 98.4376 76.2025 98.465Z" fill="#180063"/>
<path d="M94.6659 215.037C117.57 215.037 136.137 211.401 136.137 206.917C136.137 202.432 117.57 198.797 94.6659 198.797C71.7621 198.797 53.1948 202.432 53.1948 206.917C53.1948 211.401 71.7621 215.037 94.6659 215.037Z" fill="#180063"/>
<path d="M94.6659 216C83.5281 216 73.0486 215.149 65.1581 213.604C56.5847 211.924 52.2349 209.676 52.2349 206.92C52.2349 204.164 56.5819 201.913 65.1581 200.236C73.0513 198.69 83.5308 197.839 94.6659 197.839C105.801 197.839 116.283 198.69 124.176 200.236C132.75 201.915 137.1 204.164 137.1 206.92C137.1 209.676 132.753 211.926 124.176 213.604C116.283 215.149 105.804 216 94.6659 216ZM94.6659 199.758C83.6488 199.758 73.2981 200.595 65.5256 202.119C56.549 203.875 54.1547 205.962 54.1547 206.917C54.1547 207.872 56.549 209.958 65.5256 211.715C73.3009 213.239 83.6488 214.076 94.6659 214.076C105.683 214.076 116.034 213.239 123.806 211.715C132.783 209.958 135.177 207.872 135.177 206.917C135.177 205.962 132.783 203.875 123.806 202.119C116.031 200.595 105.683 199.758 94.6659 199.758Z" fill="#180063"/>
<path d="M122.323 47.614C106.223 34.6659 83.1087 34.6659 67.0095 47.614C56.9715 55.6871 48.0498 69.5602 48.0498 93.3758C48.0498 96.7082 88.8407 97.5427 94.666 97.5427C100.491 97.5427 141.282 96.7082 141.282 93.3758C141.282 69.5602 132.361 55.6871 122.323 47.614Z" fill="#33BAFF"/>
<path d="M94.666 98.5007C91.8575 98.5007 80.1192 98.2948 69.1185 97.6662C48.7738 96.5023 47.0898 94.9734 47.0898 93.3758C47.0898 82.2476 49.0426 72.426 52.896 64.1856C56.1048 57.3231 60.6493 51.4982 66.4088 46.8647C74.3652 40.4661 84.4004 36.9415 94.666 36.9415C104.932 36.9415 114.967 40.4661 122.923 46.8647C128.683 51.4955 133.227 57.3231 136.436 64.1856C140.289 72.426 142.242 82.2476 142.242 93.3758C142.242 94.9734 140.558 96.5051 120.213 97.6662C109.21 98.2948 97.4717 98.5007 94.666 98.5007ZM49.0097 93.1589C49.5884 93.5624 52.8055 94.8608 70.4652 95.8188C81.0873 96.3925 92.0742 96.5819 94.666 96.5819C97.2578 96.5819 108.247 96.3953 118.867 95.8188C136.527 94.8636 139.744 93.5624 140.322 93.1589C140.278 73.3236 134.02 58.2536 121.719 48.3634C114.103 42.2366 104.496 38.863 94.6632 38.863C84.831 38.863 75.2236 42.2366 67.6101 48.3634C55.3122 58.2564 49.0536 73.3264 49.0069 93.1589H49.0097Z" fill="#180063"/>
<path d="M75.2426 107.189C74.7133 107.189 74.2827 106.758 74.2827 106.228V97.5399C74.2827 97.0101 74.7133 96.5792 75.2426 96.5792C75.772 96.5792 76.2025 97.0101 76.2025 97.5399V106.228C76.2025 106.758 75.772 107.189 75.2426 107.189Z" fill="#180063"/>
<path d="M114.089 107.189C113.56 107.189 113.129 106.758 113.129 106.228V97.5399C113.129 97.0101 113.56 96.5792 114.089 96.5792C114.619 96.5792 115.049 97.0101 115.049 97.5399V106.228C115.049 106.758 114.619 107.189 114.089 107.189Z" fill="#180063"/>
<path d="M58.8008 109.201C58.8008 109.201 48.4831 108.361 47.3038 118.517C46.1244 128.674 54.1576 132.585 54.1576 132.585" fill="#180063"/>
<path d="M54.1548 133.546C54.0149 133.546 53.8723 133.516 53.7352 133.45C53.6474 133.409 45.1014 129.116 46.3466 118.407C47.6192 107.458 58.7624 108.234 58.8748 108.245C59.4042 108.289 59.7964 108.75 59.7552 109.28C59.7113 109.81 59.2478 110.203 58.7213 110.161C58.3154 110.131 49.3086 109.549 48.2527 118.632C47.1694 127.957 54.2727 131.578 54.5772 131.729C55.0516 131.962 55.2491 132.539 55.016 133.013C54.8487 133.354 54.5086 133.551 54.1548 133.551V133.546Z" fill="#180063"/>
<path d="M47.7561 116.266C47.7561 116.266 20.7222 121.841 20.7222 160.013H35.6667C35.6667 160.013 34.0129 140.2 51.6506 130.787" fill="#FFD400"/>
<path d="M35.6639 160.974H20.7221C20.1928 160.974 19.7622 160.543 19.7622 160.013C19.7622 151.174 21.2103 143.329 24.0654 136.694C26.3637 131.355 29.5671 126.788 33.5932 123.115C40.469 116.845 47.2761 115.385 47.5641 115.325C48.0825 115.215 48.5898 115.553 48.6968 116.071C48.8038 116.59 48.4692 117.098 47.9508 117.205C47.885 117.219 41.2945 118.649 34.8055 124.606C26.3993 132.322 21.8713 144.216 21.6848 159.05H34.6628C34.6327 157.246 34.7643 153.293 36.1192 148.657C37.8059 142.887 41.7882 134.954 51.1953 129.936C51.6643 129.687 52.2457 129.865 52.4953 130.332C52.7449 130.798 52.5666 131.383 52.1004 131.633C45.0436 135.399 40.2934 141.284 37.9841 149.129C36.2481 155.028 36.6183 159.881 36.6211 159.931C36.643 160.197 36.5525 160.463 36.3687 160.661C36.1877 160.859 35.9299 160.971 35.6639 160.971V160.974Z" fill="#180063"/>
<path d="M35.8533 155.476H35.8395C28.0478 155.363 21.2927 153.17 21.0102 153.077C20.5056 152.912 20.2341 152.368 20.3986 151.863C20.5632 151.358 21.1062 151.087 21.6109 151.251C21.6767 151.273 28.3796 153.447 35.8697 153.554C36.399 153.562 36.8241 153.999 36.8159 154.529C36.8077 155.056 36.3798 155.476 35.856 155.476H35.8533Z" fill="#180063"/>
<path d="M36.7913 149.289C36.7447 149.289 36.6953 149.286 36.646 149.278C29.5316 148.204 23.3909 145.41 22.2308 144.861C21.7508 144.633 21.5479 144.062 21.7728 143.582C22.0004 143.101 22.5709 142.898 23.0508 143.123C24.1671 143.653 30.0829 146.343 36.9312 147.378C37.455 147.458 37.8171 147.946 37.7375 148.47C37.6662 148.945 37.2576 149.289 36.7886 149.289H36.7913Z" fill="#180063"/>
<path d="M39.342 143.384C39.2542 143.384 39.1664 143.373 39.0787 143.348C31.4707 141.18 25.404 137.172 25.1489 137.002C24.7074 136.708 24.5894 136.113 24.8829 135.671C25.1764 135.229 25.7715 135.108 26.2131 135.402C26.2734 135.443 32.2962 139.415 39.6053 141.498C40.1154 141.644 40.4116 142.176 40.2662 142.687C40.1456 143.11 39.7616 143.384 39.3447 143.384H39.342Z" fill="#180063"/>
<path d="M41.961 138.427C41.7882 138.427 41.6154 138.38 41.4591 138.284C34.726 134.131 29.9703 128.627 29.7701 128.394C29.4245 127.99 29.4711 127.386 29.8743 127.04C30.2775 126.694 30.8836 126.741 31.2292 127.145C31.2758 127.2 35.9958 132.659 42.4684 136.648C42.9209 136.925 43.0608 137.518 42.7811 137.971C42.6 138.265 42.2846 138.429 41.9638 138.429L41.961 138.427Z" fill="#180063"/>
<path d="M47.1828 134.213C46.9415 134.213 46.7001 134.122 46.5136 133.941C40.9955 128.561 37.6275 122.453 37.4877 122.195C37.2326 121.729 37.4026 121.147 37.8689 120.892C38.3324 120.636 38.9166 120.806 39.1716 121.273C39.2045 121.334 42.5505 127.392 47.8547 132.563C48.2332 132.934 48.2415 133.54 47.8712 133.922C47.682 134.114 47.4324 134.213 47.1828 134.213Z" fill="#180063"/>
<path d="M24.6084 160.013V167.219H30.4968V160.013" fill="#180063"/>
<path d="M30.4967 168.18H24.6084C24.079 168.18 23.6484 167.749 23.6484 167.219V160.013C23.6484 159.483 24.079 159.052 24.6084 159.052C25.1377 159.052 25.5683 159.483 25.5683 160.013V166.258H29.5368V160.013C29.5368 159.483 29.9674 159.052 30.4967 159.052C31.0261 159.052 31.4567 159.483 31.4567 160.013V167.219C31.4567 167.749 31.0261 168.18 30.4967 168.18Z" fill="#180063"/>
<path d="M27.5542 167.219C21.9044 167.219 17.3242 171.803 17.3242 177.458H22.8094C22.8094 174.839 24.9377 172.709 27.5542 172.709C30.1706 172.709 32.2989 174.839 32.2989 177.455H37.7841C37.7841 171.8 33.204 167.216 27.5542 167.216V167.219Z" fill="#33BAFF"/>
<path d="M37.7813 178.416H32.2961C31.7668 178.416 31.3362 177.985 31.3362 177.455C31.3362 175.366 29.6385 173.667 27.5514 173.667C25.4643 173.667 23.7666 175.366 23.7666 177.452C23.7666 177.982 23.336 178.413 22.8067 178.413H17.3242C17.0691 178.413 16.825 178.311 16.6467 178.133C16.4685 177.954 16.3643 177.707 16.3643 177.455C16.3643 171.279 21.3832 166.255 27.5541 166.255C33.725 166.255 38.744 171.279 38.744 177.455C38.744 177.985 38.3134 178.416 37.7841 178.416H37.7813ZM18.3335 176.494H21.9318C22.3898 173.801 24.7375 171.745 27.5541 171.745C30.3708 171.745 32.7185 173.801 33.1765 176.491H36.7748C36.2921 171.825 32.3427 168.177 27.5541 168.177C22.7655 168.177 18.8162 171.828 18.3335 176.494Z" fill="#180063"/>
<path d="M94.6661 182.344C64.3273 182.344 52.353 174.433 51.8566 174.095C51.5933 173.917 51.437 173.617 51.437 173.302C51.437 155.909 52.7727 138.429 55.1999 124.084C56.2146 118.083 58.9216 103.966 62.1332 102.5C62.3965 102.379 62.7009 102.385 62.9615 102.514C63.0355 102.55 70.9507 106.31 94.6661 106.31C107.057 106.31 115.016 105.278 119.514 104.411C124.388 103.472 126.357 102.519 126.376 102.511C126.634 102.385 126.938 102.379 127.202 102.497C130.413 103.963 133.12 118.081 134.135 124.081C136.56 138.427 137.898 155.907 137.898 173.299C137.898 173.617 137.742 173.914 137.478 174.092C136.985 174.43 125.008 182.341 94.6689 182.341L94.6661 182.344ZM53.3568 172.761C55.71 174.12 68.071 180.422 94.6661 180.422C110.167 180.422 120.691 178.267 126.79 176.461C131.993 174.918 134.944 173.362 135.975 172.764C135.948 155.665 134.626 138.523 132.245 124.433C129.898 110.535 127.605 105.575 126.667 104.479C124.478 105.358 115.707 108.234 94.6661 108.234C73.6248 108.234 64.8511 105.358 62.6653 104.479C61.7273 105.575 59.4345 110.535 57.0868 124.433C54.7062 138.523 53.3843 155.665 53.3568 172.761Z" fill="#180063"/>
<path d="M62.5305 104.334C62.1081 104.334 61.7241 104.054 61.6062 103.628C61.4663 103.118 61.7653 102.588 62.2754 102.448C62.5771 102.366 69.7243 100.411 75.2425 100.411C75.7718 100.411 76.2024 100.842 76.2024 101.372C76.2024 101.902 75.7718 102.333 75.2425 102.333C69.9821 102.333 62.8541 104.279 62.7855 104.301C62.7005 104.326 62.6155 104.337 62.5305 104.337V104.334Z" fill="#180063"/>
<path d="M126.801 104.334C126.716 104.334 126.631 104.323 126.546 104.298C126.475 104.279 119.344 102.33 114.086 102.33C113.557 102.33 113.126 101.899 113.126 101.369C113.126 100.839 113.557 100.408 114.086 100.408C119.605 100.408 126.752 102.363 127.053 102.445C127.564 102.585 127.865 103.115 127.723 103.626C127.605 104.051 127.218 104.331 126.798 104.331L126.801 104.334Z" fill="#180063"/>
<path d="M84.4497 203.653C83.9203 203.653 83.4897 203.222 83.4897 202.692V181.38C83.4897 180.85 83.9203 180.419 84.4497 180.419C84.979 180.419 85.4096 180.85 85.4096 181.38V202.692C85.4096 203.222 84.979 203.653 84.4497 203.653Z" fill="#180063"/>
<path d="M104.882 203.653C104.353 203.653 103.922 203.222 103.922 202.692V181.38C103.922 180.85 104.353 180.419 104.882 180.419C105.412 180.419 105.842 180.85 105.842 181.38V202.692C105.842 203.222 105.412 203.653 104.882 203.653Z" fill="#180063"/>
<path d="M94.6658 211.342C104.163 211.342 106.646 207.954 106.646 207.954C106.646 200.543 99.0293 198.797 94.6658 198.797C90.3023 198.797 82.686 200.543 82.686 207.954C82.686 207.954 85.1708 211.342 94.6658 211.342Z" fill="#33BAFF"/>
<path d="M94.6657 212.302C84.7951 212.302 82.025 208.676 81.9126 208.523C81.7919 208.358 81.7261 208.158 81.7261 207.954C81.7261 204.356 83.4018 201.52 86.575 199.755C89.6906 198.023 93.2725 197.834 94.6685 197.834C96.0645 197.834 99.6463 198.02 102.762 199.755C105.932 201.52 107.611 204.353 107.611 207.954C107.611 208.16 107.545 208.358 107.424 208.523C107.312 208.676 104.539 212.302 94.6685 212.302H94.6657ZM83.6514 207.581C84.3727 208.248 87.2607 210.381 94.6657 210.381C102.071 210.381 104.942 208.259 105.68 207.578C105.376 199.977 95.7765 199.755 94.6657 199.755C93.555 199.755 83.9558 199.977 83.6514 207.581Z" fill="#180063"/>
<path d="M94.666 38.8631C94.1366 38.8631 93.7061 38.4321 93.7061 37.9023V30.9053C93.7061 30.3755 94.1366 29.9446 94.666 29.9446C95.1953 29.9446 95.6259 30.3755 95.6259 30.9053V37.9023C95.6259 38.4321 95.1953 38.8631 94.666 38.8631Z" fill="#180063"/>
<path d="M94.6661 30.9053C96.3732 30.9053 97.757 29.5202 97.757 27.8117C97.757 26.1031 96.3732 24.7181 94.6661 24.7181C92.959 24.7181 91.5752 26.1031 91.5752 27.8117C91.5752 29.5202 92.959 30.9053 94.6661 30.9053Z" fill="#180063"/>
<path d="M94.6661 31.866C92.4336 31.866 90.6152 30.0488 90.6152 27.8117C90.6152 25.5745 92.4308 23.7573 94.6661 23.7573C96.9013 23.7573 98.7169 25.5745 98.7169 27.8117C98.7169 30.0488 96.9013 31.866 94.6661 31.866ZM94.6661 25.6816C93.4922 25.6816 92.5351 26.6368 92.5351 27.8144C92.5351 28.992 93.4895 29.9473 94.6661 29.9473C95.8427 29.9473 96.7971 28.992 96.7971 27.8144C96.7971 26.6368 95.8427 25.6816 94.6661 25.6816Z" fill="#180063"/>
<path d="M94.6662 181.383C125.057 181.383 136.935 173.302 136.935 173.302C136.935 134.114 130.317 104.979 126.801 103.376C126.801 103.376 119.021 107.274 94.6662 107.274C70.3117 107.274 62.5309 103.376 62.5309 103.376C59.0149 104.979 52.397 134.117 52.397 173.302C52.397 173.302 64.2725 181.383 94.6662 181.383Z" fill="#33BAFF"/>
<path d="M94.6661 182.344C64.3273 182.344 52.353 174.433 51.8566 174.095C51.5933 173.917 51.437 173.617 51.437 173.302C51.437 155.909 52.7727 138.429 55.1999 124.084C56.2146 118.083 58.9216 103.966 62.1332 102.5C62.3965 102.379 62.7009 102.385 62.9615 102.514C63.0355 102.55 70.9507 106.31 94.6661 106.31C107.057 106.31 115.016 105.278 119.514 104.411C124.388 103.472 126.357 102.519 126.376 102.511C126.634 102.385 126.938 102.379 127.202 102.497C130.413 103.963 133.12 118.081 134.135 124.081C136.56 138.427 137.898 155.907 137.898 173.299C137.898 173.617 137.742 173.914 137.478 174.092C136.985 174.43 125.008 182.341 94.6689 182.341L94.6661 182.344ZM53.3568 172.761C55.71 174.12 68.071 180.422 94.6661 180.422C110.167 180.422 120.691 178.267 126.79 176.461C131.993 174.918 134.944 173.362 135.975 172.764C135.948 155.665 134.626 138.523 132.245 124.433C129.898 110.535 127.605 105.575 126.667 104.479C124.478 105.358 115.707 108.234 94.6661 108.234C73.6248 108.234 64.8511 105.358 62.6653 104.479C61.7273 105.575 59.4345 110.535 57.0868 124.433C54.7062 138.523 53.3843 155.665 53.3568 172.761Z" fill="#180063"/>
<path d="M94.666 173.145C80.6348 173.145 71.0933 171.303 65.5614 169.758C63.573 169.203 61.9466 168.646 60.6631 168.149C60.9209 151.004 62.4129 137.655 63.6854 129.203C64.8181 121.666 66.0057 116.486 66.9382 113.211C72.5304 114.383 81.3616 115.506 94.666 115.506C107.97 115.506 116.802 114.383 122.394 113.211C123.324 116.486 124.511 121.666 125.647 129.203C126.919 137.655 128.411 151.001 128.669 168.149C127.385 168.646 125.762 169.203 123.771 169.758C118.236 171.303 108.695 173.145 94.666 173.145Z" fill="white"/>
<path d="M94.6661 174.106C80.5279 174.106 70.8931 172.245 65.3036 170.683C63.5155 170.183 61.837 169.632 60.3176 169.044C59.9418 168.899 59.6977 168.536 59.7032 168.133C59.9638 150.771 61.4969 137.301 62.7365 129.058C63.946 121.018 65.1857 115.86 66.014 112.948C66.1511 112.462 66.642 112.165 67.133 112.27C74.3378 113.779 83.5996 114.542 94.6661 114.542C105.733 114.542 114.994 113.777 122.199 112.27C122.693 112.165 123.181 112.462 123.318 112.948C124.146 115.86 125.386 121.018 126.596 129.058C127.835 137.301 129.368 150.771 129.629 168.133C129.634 168.536 129.39 168.899 129.015 169.044C127.495 169.632 125.819 170.183 124.029 170.683C118.436 172.245 108.804 174.106 94.6661 174.106ZM61.634 167.488C62.9258 167.965 64.3328 168.416 65.8192 168.833C71.2963 170.362 80.7446 172.184 94.6661 172.184C108.588 172.184 118.039 170.362 123.513 168.833C124.999 168.418 126.404 167.965 127.698 167.488C127.41 150.559 125.913 137.422 124.698 129.346C123.614 122.146 122.512 117.301 121.708 114.331C114.509 115.747 105.417 116.467 94.6661 116.467C83.915 116.467 74.8232 115.747 67.6239 114.331C66.823 117.304 65.7178 122.146 64.6344 129.346C63.4195 137.422 61.922 150.559 61.634 167.488Z" fill="#180063"/>
<mask id="mask0_309_6472" style="mask-type:luminance" maskUnits="userSpaceOnUse" x="60" y="113" width="69" height="61">
<mask id="mask1_309_6472" style="mask-type:luminance" maskUnits="userSpaceOnUse" x="60" y="113" width="69" height="61">
<path d="M94.666 173.145C80.6348 173.145 71.0933 171.303 65.5614 169.758C63.573 169.203 61.9466 168.646 60.6631 168.149C60.9209 151.004 62.4129 137.655 63.6854 129.203C64.8181 121.666 66.0057 116.486 66.9382 113.211C72.5304 114.383 81.3616 115.506 94.666 115.506C107.97 115.506 116.802 114.383 122.394 113.211C123.324 116.486 124.511 121.666 125.647 129.203C126.919 137.655 128.411 151.001 128.669 168.149C127.385 168.646 125.762 169.203 123.771 169.758C118.236 171.303 108.695 173.145 94.666 173.145Z" fill="white"/>
</mask>
<g mask="url(#mask1_309_6472)">
<path d="M94.6661 174.106C80.5279 174.106 70.8931 172.245 65.3036 170.683C63.5155 170.183 61.837 169.632 60.3176 169.044C59.9418 168.899 59.6977 168.536 59.7032 168.133C59.9638 150.771 61.4969 137.301 62.7365 129.058C63.946 121.018 65.1857 115.86 66.014 112.948C66.1511 112.462 66.642 112.165 67.133 112.27C74.3378 113.779 83.5996 114.542 94.6661 114.542C105.733 114.542 114.994 113.777 122.199 112.27C122.693 112.165 123.181 112.462 123.318 112.948C124.146 115.86 125.386 121.018 126.596 129.058C127.835 137.301 129.368 150.771 129.629 168.133C129.634 168.536 129.39 168.899 129.015 169.044C127.495 169.632 125.819 170.183 124.029 170.683C118.436 172.245 108.804 174.106 94.6661 174.106ZM61.634 167.488C62.9258 167.965 64.3328 168.416 65.8192 168.833C71.2963 170.362 80.7446 172.184 94.6661 172.184C108.588 172.184 118.039 170.362 123.513 168.833C124.999 168.418 126.404 167.965 127.698 167.488C127.41 150.559 125.913 137.422 124.698 129.346C123.614 122.146 122.512 117.301 121.708 114.331C114.509 115.747 105.417 116.467 94.6661 116.467C83.915 116.467 74.8232 115.747 67.6239 114.331C66.823 117.304 65.7178 122.146 64.6344 129.346C63.4195 137.422 61.922 150.559 61.634 167.488Z" fill="white"/>
</g>
</mask>
<g mask="url(#mask0_309_6472)">
<path d="M60.6631 157.554C60.6631 157.554 73.0186 162.47 94.666 162.47C116.313 162.47 128.126 157.554 128.126 157.554L128.669 168.149C128.669 168.149 115.477 173.145 94.666 173.145C73.8551 173.145 60.6631 167.688 60.6631 167.688V157.554Z" fill="#FFD400"/>
</g>
<path d="M77.9883 59.854C73.3286 59.854 69.5493 63.6366 69.5493 68.3003H86.4274C86.4274 63.6366 82.648 59.854 77.9883 59.854Z" fill="white"/>
<path d="M86.4273 69.2638H69.5493C69.0199 69.2638 68.5894 68.8329 68.5894 68.3031C68.5894 63.115 72.8048 58.896 77.9883 58.896C83.1718 58.896 87.3872 63.115 87.3872 68.3031C87.3872 68.8329 86.9567 69.2638 86.4273 69.2638ZM70.5695 67.3423H85.4071C84.9353 63.6668 81.7868 60.8175 77.9883 60.8175C74.1898 60.8175 71.044 63.6668 70.5695 67.3423Z" fill="#180063"/>
<path d="M111.344 59.854C106.684 59.854 102.905 63.6366 102.905 68.3003H119.783C119.783 63.6366 116.004 59.854 111.344 59.854Z" fill="white"/>
<path d="M119.783 69.2638H102.905C102.375 69.2638 101.945 68.8329 101.945 68.3031C101.945 63.115 106.16 58.896 111.344 58.896C116.527 58.896 120.743 63.115 120.743 68.3031C120.743 68.8329 120.312 69.2638 119.783 69.2638ZM103.925 67.3423H118.763C118.291 63.6668 115.142 60.8175 111.344 60.8175C107.545 60.8175 104.399 63.6668 103.925 67.3423Z" fill="#180063"/>
<path d="M77.988 63.2413C75.1961 63.2413 72.9307 65.5059 72.9307 68.303H83.0427C83.0427 65.5086 80.78 63.2413 77.9853 63.2413H77.988Z" fill="#180063"/>
<path d="M83.0456 69.2638H72.9335C72.4042 69.2638 71.9736 68.8328 71.9736 68.303C71.9736 64.9816 74.6724 62.2805 77.9909 62.2805C81.3095 62.2805 84.0082 64.9816 84.0082 68.303C84.0082 68.8328 83.5776 69.2638 83.0483 69.2638H83.0456ZM74.0059 67.3423H81.9705C81.5371 65.5443 79.9162 64.202 77.9882 64.202C76.0601 64.202 74.4392 65.5416 74.0059 67.3423Z" fill="#180063"/>
<path d="M111.344 63.2413C108.552 63.2413 106.287 65.5059 106.287 68.303H116.399C116.399 65.5086 114.136 63.2413 111.341 63.2413H111.344Z" fill="#180063"/>
<path d="M116.399 69.2638H106.287C105.757 69.2638 105.327 68.8328 105.327 68.303C105.327 64.9816 108.025 62.2805 111.344 62.2805C114.663 62.2805 117.361 64.9816 117.361 68.303C117.361 68.8328 116.931 69.2638 116.401 69.2638H116.399ZM107.359 67.3423H115.323C114.89 65.5443 113.269 64.202 111.341 64.202C109.413 64.202 107.792 65.5416 107.359 67.3423Z" fill="#180063"/>
<path d="M94.6659 87.216C89.9595 87.216 86.1309 83.384 86.1309 78.6736V77.1968C86.1309 76.667 86.5614 76.2361 87.0908 76.2361C87.6201 76.2361 88.0507 76.667 88.0507 77.1968V78.6736C88.0507 82.3245 91.0182 85.2946 94.6659 85.2946C98.3136 85.2946 101.281 82.3245 101.281 78.6736V77.1968C101.281 76.667 101.712 76.2361 102.241 76.2361C102.77 76.2361 103.201 76.667 103.201 77.1968V78.6736C103.201 83.384 99.3722 87.216 94.6659 87.216Z" fill="#180063"/>
<path d="M94.6661 169.456C95.381 169.456 95.9606 168.876 95.9606 168.16C95.9606 167.445 95.381 166.865 94.6661 166.865C93.9512 166.865 93.3716 167.445 93.3716 168.16C93.3716 168.876 93.9512 169.456 94.6661 169.456Z" fill="#180063"/>
<path d="M84.669 168.987C85.384 168.987 85.9635 168.407 85.9635 167.691C85.9635 166.975 85.384 166.395 84.669 166.395C83.9541 166.395 83.3745 166.975 83.3745 167.691C83.3745 168.407 83.9541 168.987 84.669 168.987Z" fill="#180063"/>
<path d="M75.2208 167.949C75.9357 167.949 76.5153 167.369 76.5153 166.653C76.5153 165.938 75.9357 165.358 75.2208 165.358C74.5058 165.358 73.9263 165.938 73.9263 166.653C73.9263 167.369 74.5058 167.949 75.2208 167.949Z" fill="#180063"/>
<path d="M66.3238 166.104C67.0388 166.104 67.6183 165.524 67.6183 164.809C67.6183 164.093 67.0388 163.513 66.3238 163.513C65.6089 163.513 65.0293 164.093 65.0293 164.809C65.0293 165.524 65.6089 166.104 66.3238 166.104Z" fill="#180063"/>
<path d="M94.6661 186.415C91.2077 186.415 87.7492 186.165 84.3127 185.668C83.7889 185.591 83.4241 185.105 83.5009 184.581C83.5777 184.057 84.0632 183.691 84.587 183.768C91.2735 184.737 98.056 184.737 104.742 183.768C105.269 183.691 105.755 184.057 105.829 184.581C105.905 185.105 105.541 185.594 105.017 185.668C101.583 186.165 98.1218 186.415 94.6634 186.415H94.6661Z" fill="#180063"/>
<path d="M94.6661 190.005C91.2077 190.005 87.7492 189.755 84.3127 189.258C83.7889 189.181 83.4241 188.696 83.5009 188.171C83.5777 187.647 84.0632 187.282 84.587 187.359C91.2735 188.328 98.056 188.328 104.742 187.359C105.269 187.282 105.755 187.647 105.829 188.171C105.905 188.696 105.541 189.184 105.017 189.258C101.583 189.755 98.1218 190.005 94.6634 190.005H94.6661Z" fill="#180063"/>
<path d="M94.6661 193.593C91.2077 193.593 87.7492 193.343 84.3127 192.846C83.7889 192.769 83.4241 192.283 83.5009 191.759C83.5777 191.235 84.0632 190.87 84.587 190.946C91.2735 191.915 98.056 191.915 104.742 190.946C105.269 190.87 105.755 191.235 105.829 191.759C105.905 192.283 105.541 192.772 105.017 192.846C101.583 193.343 98.1218 193.593 94.6634 193.593H94.6661Z" fill="#180063"/>
<path d="M94.6661 197.18C91.2077 197.18 87.7492 196.931 84.3127 196.434C83.7889 196.357 83.4241 195.871 83.5009 195.347C83.5777 194.822 84.0632 194.46 84.587 194.534C91.2735 195.503 98.056 195.503 104.742 194.534C105.269 194.457 105.755 194.822 105.829 195.347C105.905 195.871 105.541 196.36 105.017 196.434C101.583 196.931 98.1218 197.18 94.6634 197.18H94.6661Z" fill="#180063"/>
<path d="M94.7456 101.836C89.0519 101.836 83.3637 101.542 77.7057 100.955L75.1441 100.688C74.6175 100.634 74.2336 100.161 74.2884 99.6344C74.3433 99.1073 74.8123 98.723 75.3416 98.7779L77.9032 99.0442C89.8802 100.288 102.016 100.2 113.974 98.7807C114.498 98.7175 114.978 99.0936 115.041 99.6206C115.104 100.148 114.728 100.625 114.202 100.688C107.751 101.454 101.248 101.839 94.7483 101.839L94.7456 101.836Z" fill="#180063"/>
<path d="M94.7456 105.201C89.0519 105.201 83.3637 104.907 77.7057 104.32L75.1441 104.054C74.6175 103.999 74.2336 103.527 74.2884 103C74.3433 102.473 74.8123 102.088 75.3416 102.143L77.9032 102.41C89.8802 103.653 102.016 103.565 113.974 102.146C114.498 102.083 114.978 102.459 115.041 102.986C115.104 103.513 114.728 103.991 114.202 104.054C107.751 104.82 101.248 105.204 94.7483 105.204L94.7456 105.201Z" fill="#180063"/>
<path d="M92.2143 163.431C91.685 163.431 91.2544 163 91.2544 162.47V125.588H83.5504C80.2345 125.588 77.1189 124.295 74.774 121.951C74.3983 121.575 74.3983 120.968 74.774 120.592C75.1497 120.216 75.7558 120.216 76.1316 120.592C78.1118 122.574 80.7474 123.667 83.5504 123.667H92.2143C92.7436 123.667 93.1742 124.098 93.1742 124.627V162.47C93.1742 163 92.7436 163.431 92.2143 163.431Z" fill="#180063"/>
<path d="M73.6822 138.583C73.567 138.583 73.4491 138.561 73.3339 138.517C72.8402 138.325 72.5934 137.768 72.7854 137.274L77.829 124.279C78.021 123.785 78.5778 123.54 79.0715 123.73C79.5651 123.922 79.812 124.479 79.62 124.973L74.5763 137.968C74.4282 138.347 74.0662 138.58 73.6822 138.58V138.583Z" fill="#180063"/>
<path d="M83.7723 138.583C83.3883 138.583 83.0236 138.35 82.8782 137.971L77.8345 124.976C77.6426 124.482 77.8867 123.925 78.3831 123.733C78.8795 123.54 79.4335 123.785 79.6255 124.282L84.6691 137.276C84.8611 137.77 84.617 138.328 84.1206 138.52C84.0054 138.564 83.8875 138.586 83.7723 138.586V138.583Z" fill="#180063"/>
<path d="M71.2415 137.622C72.3605 140.675 75.2896 142.854 78.7261 142.854C82.1626 142.854 85.0945 140.675 86.2107 137.622H71.2388H71.2415Z" fill="#FFD400"/>
<path d="M78.726 143.815C74.9933 143.815 71.6226 141.46 70.3391 137.954C70.2321 137.661 70.2733 137.331 70.4543 137.073C70.6326 136.815 70.9288 136.661 71.2414 136.661H86.2133C86.526 136.661 86.8195 136.815 87.0005 137.073C87.1815 137.331 87.2226 137.658 87.1157 137.954C85.8321 141.46 82.4615 143.815 78.7288 143.815H78.726ZM72.7718 138.583C74.0361 140.606 76.2823 141.893 78.726 141.893C81.1697 141.893 83.4159 140.606 84.6802 138.583H72.7745H72.7718Z" fill="#180063"/>
<path d="M97.1181 163.431C96.5888 163.431 96.1582 163 96.1582 162.47V124.627C96.1582 124.098 96.5888 123.667 97.1181 123.667H105.782C108.585 123.667 111.218 122.574 113.201 120.592C113.577 120.216 114.183 120.216 114.558 120.592C114.934 120.968 114.934 121.575 114.558 121.951C112.216 124.298 109.098 125.588 105.782 125.588H98.078V162.47C98.078 163 97.6474 163.431 97.1181 163.431Z" fill="#180063"/>
<path d="M115.65 138.583C115.266 138.583 114.901 138.35 114.756 137.971L109.712 124.976C109.52 124.482 109.764 123.925 110.261 123.733C110.757 123.54 111.311 123.785 111.503 124.282L116.547 137.276C116.739 137.77 116.494 138.328 115.998 138.52C115.883 138.564 115.765 138.586 115.65 138.586V138.583Z" fill="#180063"/>
<path d="M105.56 138.583C105.444 138.583 105.327 138.561 105.211 138.517C104.718 138.325 104.471 137.768 104.663 137.274L109.706 124.279C109.898 123.785 110.455 123.54 110.949 123.73C111.443 123.922 111.689 124.479 111.497 124.973L106.454 137.968C106.306 138.347 105.944 138.58 105.56 138.58V138.583Z" fill="#180063"/>
<path d="M118.091 137.622C116.972 140.675 114.043 142.854 110.606 142.854C107.17 142.854 104.238 140.675 103.122 137.622H118.094H118.091Z" fill="#FFD400"/>
<path d="M110.606 143.815C106.874 143.815 103.503 141.46 102.219 137.954C102.113 137.661 102.154 137.331 102.335 137.073C102.513 136.815 102.809 136.661 103.122 136.661H118.094C118.406 136.661 118.7 136.815 118.881 137.073C119.062 137.331 119.103 137.658 118.996 137.954C117.712 141.46 114.342 143.815 110.609 143.815H110.606ZM104.652 138.583C105.917 140.606 108.16 141.893 110.606 141.893C113.053 141.893 115.296 140.606 116.561 138.583H104.655H104.652Z" fill="#180063"/>
<path d="M94.6661 208.361C92.0414 208.361 89.4167 207.96 86.8633 207.156C86.3587 206.996 86.0762 206.458 86.2353 205.951C86.3943 205.446 86.9319 205.163 87.4393 205.322C92.1676 206.81 97.1646 206.81 101.89 205.322C102.398 205.163 102.935 205.446 103.094 205.951C103.253 206.456 102.971 206.996 102.466 207.156C99.9154 207.957 97.288 208.361 94.6633 208.361H94.6661Z" fill="#180063"/>
<path d="M53.4884 85.1051C54.2033 85.1051 54.7829 84.525 54.7829 83.8095C54.7829 83.0939 54.2033 82.5139 53.4884 82.5139C52.7734 82.5139 52.1938 83.0939 52.1938 83.8095C52.1938 84.525 52.7734 85.1051 53.4884 85.1051Z" fill="#180063"/>
<path d="M52.6959 91.8166C53.4108 91.8166 53.9904 91.2365 53.9904 90.521C53.9904 89.8054 53.4108 89.2253 52.6959 89.2253C51.9809 89.2253 51.4014 89.8054 51.4014 90.521C51.4014 91.2365 51.9809 91.8166 52.6959 91.8166Z" fill="#180063"/>
<path d="M59.4014 92.7554C60.1164 92.7554 60.696 92.1753 60.696 91.4598C60.696 90.7442 60.1164 90.1641 59.4014 90.1641C58.6865 90.1641 58.1069 90.7442 58.1069 91.4598C58.1069 92.1753 58.6865 92.7554 59.4014 92.7554Z" fill="#180063"/>
<path d="M135.843 85.1051C136.558 85.1051 137.138 84.525 137.138 83.8095C137.138 83.0939 136.558 82.5139 135.843 82.5139C135.128 82.5139 134.549 83.0939 134.549 83.8095C134.549 84.525 135.128 85.1051 135.843 85.1051Z" fill="#180063"/>
<path d="M136.636 91.8166C137.351 91.8166 137.931 91.2365 137.931 90.521C137.931 89.8054 137.351 89.2253 136.636 89.2253C135.921 89.2253 135.342 89.8054 135.342 90.521C135.342 91.2365 135.921 91.8166 136.636 91.8166Z" fill="#180063"/>
<path d="M129.93 92.7554C130.645 92.7554 131.225 92.1753 131.225 91.4598C131.225 90.7442 130.645 90.1641 129.93 90.1641C129.215 90.1641 128.636 90.7442 128.636 91.4598C128.636 92.1753 129.215 92.7554 129.93 92.7554Z" fill="#180063"/>
<path d="M135.468 128.141C135.468 128.141 159.946 140.908 184.034 111.314L172.449 101.869C172.449 101.869 161.229 118.276 141.614 114.424" fill="#FFD400"/>
<path d="M148.734 131.841C140.588 131.841 135.265 129.118 135.026 128.992C134.557 128.748 134.374 128.166 134.618 127.696C134.862 127.227 135.441 127.043 135.912 127.287C135.989 127.329 141.998 130.376 150.772 129.859C162.159 129.192 173.173 122.83 182.679 111.449L172.617 103.247C171.5 104.663 168.906 107.644 164.929 110.384C159.981 113.79 151.885 117.422 141.428 115.369C140.907 115.267 140.569 114.762 140.671 114.24C140.772 113.719 141.277 113.381 141.798 113.483C149.645 115.026 157.044 113.464 163.786 108.841C168.854 105.366 171.629 101.366 171.657 101.328C171.808 101.106 172.046 100.96 172.312 100.922C172.578 100.883 172.847 100.957 173.056 101.128L184.64 110.573C184.838 110.735 184.964 110.966 184.989 111.221C185.013 111.474 184.939 111.729 184.777 111.926C179.202 118.778 173.127 123.947 166.726 127.285C161.578 129.972 156.208 131.487 150.769 131.789C150.072 131.828 149.39 131.847 148.729 131.847L148.734 131.841Z" fill="#180063"/>
<path d="M178.625 117.987C178.31 117.987 178 117.831 177.816 117.545C177.778 117.485 173.952 111.564 168.214 106.747C167.809 106.406 167.756 105.8 168.096 105.393C168.437 104.987 169.043 104.935 169.449 105.275C175.419 110.288 179.27 116.258 179.432 116.511C179.717 116.958 179.588 117.551 179.141 117.836C178.982 117.941 178.801 117.987 178.623 117.987H178.625Z" fill="#180063"/>
<path d="M172.435 123.483C172.076 123.483 171.733 123.28 171.569 122.937C171.037 121.819 168.146 115.992 163.492 110.864C163.135 110.472 163.165 109.865 163.558 109.508C163.95 109.151 164.556 109.181 164.912 109.574C169.748 114.899 172.748 120.952 173.299 122.11C173.527 122.588 173.324 123.162 172.847 123.392C172.712 123.455 172.572 123.486 172.435 123.486V123.483Z" fill="#180063"/>
<path d="M165.165 127.6C164.756 127.6 164.375 127.337 164.249 126.925C164.227 126.856 162.066 119.967 157.713 113.733C157.409 113.299 157.516 112.698 157.949 112.396C158.382 112.091 158.983 112.198 159.285 112.632C163.815 119.121 165.99 126.066 166.081 126.357C166.237 126.865 165.955 127.403 165.447 127.559C165.354 127.589 165.258 127.603 165.162 127.603L165.165 127.6Z" fill="#180063"/>
<path d="M156.106 131.095C155.588 131.095 155.16 130.68 155.146 130.159C155.146 130.087 154.93 122.868 152.431 115.687C152.256 115.185 152.522 114.638 153.021 114.463C153.523 114.29 154.068 114.553 154.244 115.053C156.844 122.53 157.058 129.802 157.066 130.109C157.08 130.639 156.66 131.081 156.131 131.095C156.123 131.095 156.114 131.095 156.106 131.095Z" fill="#180063"/>
<path d="M146.23 130.823C146.172 130.823 146.115 130.817 146.054 130.806C145.533 130.71 145.188 130.208 145.284 129.687C145.295 129.618 146.526 122.808 145.679 115.446C145.618 114.918 145.997 114.441 146.523 114.38C147.053 114.32 147.527 114.696 147.587 115.226C148.471 122.884 147.228 129.75 147.173 130.038C147.088 130.502 146.685 130.823 146.23 130.823Z" fill="#180063"/>
<path d="M181.02 108.855L185.567 103.269L181.001 99.5465L176.454 105.133" fill="#180063"/>
<path d="M181.02 109.816C180.806 109.816 180.592 109.744 180.414 109.599C180.003 109.264 179.942 108.657 180.277 108.248L184.218 103.406L181.141 100.897L177.2 105.739C176.865 106.151 176.259 106.211 175.85 105.876C175.439 105.542 175.379 104.935 175.713 104.526L180.26 98.9399C180.422 98.7422 180.653 98.616 180.908 98.5913C181.16 98.5638 181.415 98.6407 181.613 98.8026L186.179 102.525C186.59 102.86 186.651 103.466 186.316 103.875L181.769 109.461C181.58 109.695 181.303 109.816 181.023 109.816H181.02Z" fill="#180063"/>
<path d="M183.285 101.408C187.665 104.979 194.108 104.32 197.676 99.9363L193.422 96.4694C191.771 98.4979 188.776 98.8054 186.749 97.1529C184.722 95.5004 184.415 92.5029 186.066 90.4743L181.812 87.0074C178.244 91.3911 178.903 97.8391 183.283 101.41L183.285 101.408Z" fill="#33BAFF"/>
<path d="M189.725 104.671C187.161 104.671 184.695 103.796 182.679 102.154C180.362 100.266 178.919 97.5866 178.615 94.611C178.31 91.6354 179.182 88.7203 181.072 86.4007C181.407 85.989 182.013 85.9286 182.421 86.2635L186.675 89.7304C186.873 89.8924 186.999 90.123 187.023 90.3782C187.048 90.6308 186.974 90.8861 186.812 91.0837C185.496 92.7032 185.737 95.0914 187.355 96.4117C188.137 97.0486 189.122 97.3423 190.128 97.2407C191.135 97.1364 192.04 96.6505 192.676 95.8682C192.838 95.6706 193.068 95.5443 193.323 95.5196C193.576 95.4922 193.831 95.569 194.028 95.731L198.282 99.1979C198.479 99.3598 198.606 99.5904 198.63 99.8457C198.655 100.098 198.581 100.354 198.419 100.551C196.532 102.871 193.855 104.315 190.882 104.619C190.496 104.658 190.109 104.68 189.725 104.68V104.671ZM181.991 88.3881C180.822 90.1641 180.307 92.2695 180.523 94.4134C180.776 96.8784 181.972 99.0991 183.891 100.664C185.811 102.228 188.225 102.953 190.688 102.7C192.83 102.481 194.785 101.548 196.288 100.046L193.499 97.7732C192.616 98.5473 191.519 99.0277 190.326 99.1512C188.806 99.3049 187.322 98.863 186.143 97.8995C183.957 96.118 183.436 93.0409 184.78 90.6637L181.991 88.3881Z" fill="#180063"/>
<path d="M130.531 109.201C130.531 109.201 140.849 108.361 142.028 118.517C143.208 128.674 135.175 132.585 135.175 132.585" fill="#180063"/>
<path d="M135.177 133.546C134.821 133.546 134.481 133.348 134.313 133.005C134.08 132.528 134.28 131.954 134.758 131.721C135.059 131.572 142.163 127.952 141.079 118.627C140.024 109.536 130.998 110.128 130.611 110.159C130.082 110.197 129.621 109.805 129.58 109.278C129.538 108.75 129.931 108.287 130.457 108.245C130.57 108.234 141.713 107.458 142.986 118.407C143.636 123.991 141.603 127.779 139.785 129.975C137.813 132.355 135.685 133.409 135.597 133.453C135.463 133.519 135.32 133.549 135.177 133.549V133.546Z" fill="#180063"/>
<path d="M112.797 44.5809C115.622 44.5809 118.447 47.5372 118.447 51.8715C118.447 47.5372 121.272 44.5809 124.097 44.5809C121.272 44.5809 118.447 41.6245 118.447 37.2902C118.447 41.6245 115.622 44.5809 112.797 44.5809Z" fill="#FFD400"/>
<path d="M118.447 52.8323C117.918 52.8323 117.487 52.4013 117.487 51.8715C117.487 48.8136 115.603 45.5416 112.797 45.5416C112.268 45.5416 111.837 45.1106 111.837 44.5808C111.837 44.0511 112.268 43.6201 112.797 43.6201C115.603 43.6201 117.487 40.3481 117.487 37.2902C117.487 36.7604 117.918 36.3294 118.447 36.3294C118.976 36.3294 119.407 36.7604 119.407 37.2902C119.407 40.3481 121.291 43.6201 124.097 43.6201C124.626 43.6201 125.057 44.0511 125.057 44.5808C125.057 45.1106 124.626 45.5416 124.097 45.5416C121.291 45.5416 119.407 48.8136 119.407 51.8715C119.407 52.4013 118.976 52.8323 118.447 52.8323ZM115.855 44.5808C116.887 45.2534 117.805 46.2635 118.447 47.5592C119.092 46.2635 120.008 45.2534 121.039 44.5808C120.008 43.9083 119.089 42.8982 118.447 41.6025C117.803 42.8982 116.887 43.9083 115.855 44.5808Z" fill="#180063"/>
<path d="M87.749 28.7725C87.2197 28.7725 86.7891 28.3415 86.7891 27.8117C86.7891 23.4636 90.3215 19.9281 94.6658 19.9281C95.2007 19.9281 95.7327 19.983 96.2538 20.0873C96.7722 20.1944 97.1068 20.7022 97.0026 21.221C96.8983 21.7398 96.3882 22.0747 95.8699 21.9704C95.4777 21.8908 95.0718 21.8496 94.6686 21.8496C91.3829 21.8496 88.7116 24.5232 88.7116 27.8117C88.7116 28.3415 88.281 28.7725 87.7517 28.7725H87.749Z" fill="#180063"/>
<path d="M83.986 30.6637C83.528 30.6637 83.1221 30.3343 83.0425 29.8677C82.9246 29.1924 82.8643 28.5007 82.8643 27.8117C82.8643 21.2978 88.1575 16 94.6657 16C95.4666 16 96.2647 16.0796 97.0436 16.2388C97.5619 16.3459 97.8993 16.8537 97.7923 17.3725C97.6854 17.8913 97.178 18.2289 96.6596 18.1219C96.0069 17.9874 95.3377 17.9215 94.6657 17.9215C89.2162 17.9215 84.7841 22.3574 84.7841 27.8117C84.7841 28.3909 84.8335 28.9701 84.9322 29.5355C85.0227 30.0571 84.6744 30.5567 84.1533 30.6473C84.0957 30.6582 84.0408 30.661 83.986 30.661V30.6637Z" fill="#180063"/>
<path d="M94.6657 163.431C80.7497 163.431 71.2712 161.6 65.7668 160.063C64.006 159.571 62.355 159.028 60.8603 158.451C60.3666 158.259 60.1198 157.705 60.3117 157.208C60.5037 156.714 61.0577 156.467 61.5542 156.659C62.9913 157.216 64.5847 157.738 66.2852 158.212C71.6717 159.717 80.9691 161.509 94.6685 161.509C108.368 161.509 117.663 159.717 123.052 158.212C124.752 157.738 126.343 157.216 127.783 156.659C128.279 156.467 128.833 156.714 129.025 157.208C129.217 157.702 128.97 158.259 128.477 158.451C126.979 159.03 125.328 159.571 123.57 160.063C118.068 161.6 108.587 163.431 94.6712 163.431H94.6657Z" fill="#180063"/>
<path d="M104.663 168.987C105.378 168.987 105.957 168.407 105.957 167.691C105.957 166.975 105.378 166.395 104.663 166.395C103.948 166.395 103.368 166.975 103.368 167.691C103.368 168.407 103.948 168.987 104.663 168.987Z" fill="#180063"/>
<path d="M114.108 167.949C114.823 167.949 115.403 167.369 115.403 166.653C115.403 165.938 114.823 165.358 114.108 165.358C113.394 165.358 112.814 165.938 112.814 166.653C112.814 167.369 113.394 167.949 114.108 167.949Z" fill="#180063"/>
<path d="M123.008 166.104C123.723 166.104 124.302 165.524 124.302 164.809C124.302 164.093 123.723 163.513 123.008 163.513C122.293 163.513 121.713 164.093 121.713 164.809C121.713 165.524 122.293 166.104 123.008 166.104Z" fill="#180063"/>
</g>
<g clip-path="url(#clip1_309_6472)">
<path d="M338.98 68.8856L326.364 124.784C324.825 131.601 317.946 135.779 311.129 134.241L261.714 123.088L233.28 135.706C231.458 136.523 229.535 135.066 229.975 133.118L233.667 116.758L214.97 112.537C207.958 110.955 203.779 104.076 205.274 97.4537L217.89 41.5554C219.473 34.5438 226.157 30.3211 233.169 31.9037L329.328 53.6071C336.34 55.1896 340.519 62.0688 338.98 68.8856Z" fill="#2D3473"/>
<path d="M228.316 68.3038L226.439 67.8802L228.177 60.9027L229.739 61.2552L228.316 68.3038ZM229.641 58.0528C229.929 58.1178 230.154 58.279 230.317 58.5366C230.484 58.7917 230.534 59.0663 230.467 59.3605C230.402 59.6515 230.239 59.8764 229.979 60.0351C229.722 60.1946 229.449 60.2419 229.162 60.1769C228.868 60.1105 228.639 59.9502 228.475 59.6958C228.315 59.4422 228.268 59.1699 228.333 58.8789C228.378 58.6817 228.467 58.5132 228.6 58.3734C228.734 58.2337 228.892 58.1352 229.075 58.0779C229.258 58.0174 229.447 58.009 229.641 58.0528ZM239.206 61.0169C239.184 60.7368 239.126 60.4772 239.03 60.2382C238.939 59.9967 238.811 59.7793 238.647 59.5861C238.487 59.3936 238.289 59.2317 238.054 59.1004C237.819 58.9659 237.553 58.8651 237.256 58.7979C236.722 58.6775 236.217 58.7044 235.739 58.8787C235.261 59.0529 234.844 59.3732 234.487 59.8398C234.135 60.3038 233.874 60.9076 233.706 61.6512C233.537 62.4013 233.512 63.0632 233.63 63.637C233.749 64.2108 233.988 64.6809 234.347 65.0473C234.706 65.4106 235.164 65.6549 235.72 65.7804C236.225 65.8943 236.683 65.8958 237.095 65.785C237.511 65.6749 237.859 65.4647 238.14 65.1543C238.421 64.8407 238.616 64.443 238.725 63.9613L239.118 64.1162L236.422 63.5077L236.739 62.1013L240.769 63.0109L240.5 64.2039C240.308 65.0542 239.961 65.7488 239.459 66.2878C238.957 66.8269 238.351 67.193 237.641 67.3862C236.932 67.5762 236.167 67.5785 235.346 67.3932C234.431 67.1866 233.674 66.8 233.075 66.2333C232.48 65.664 232.074 64.9557 231.857 64.1084C231.645 63.2585 231.657 62.3098 231.893 61.2623C232.074 60.4605 232.349 59.7699 232.718 59.1906C233.089 58.6119 233.53 58.1491 234.04 57.8021C234.551 57.4518 235.108 57.2243 235.713 57.1195C236.318 57.0115 236.946 57.0309 237.596 57.1775C238.145 57.3016 238.64 57.4981 239.078 57.767C239.518 58.0327 239.889 58.3542 240.191 58.7316C240.496 59.1098 240.723 59.5279 240.871 59.986C241.019 60.4442 241.075 60.9257 241.039 61.4307L239.206 61.0169ZM241.258 68.5848L242.939 61.1358L244.642 61.52L244.361 62.7615L244.439 62.779C244.672 62.3797 244.979 62.1008 245.362 61.9425C245.748 61.7816 246.155 61.7493 246.581 61.8457C246.678 61.8676 246.786 61.8968 246.903 61.9335C247.024 61.9677 247.124 62.002 247.201 62.0365L246.836 63.6514C246.768 63.6087 246.655 63.5595 246.498 63.5036C246.344 63.4452 246.193 63.3992 246.045 63.3656C245.724 63.2934 245.421 63.298 245.134 63.3793C244.851 63.4582 244.61 63.6025 244.41 63.8121C244.209 64.0218 244.074 64.285 244.002 64.6018L243.014 68.981L241.258 68.5848ZM248.649 70.4109C248.177 70.3044 247.771 70.1244 247.43 69.8709C247.094 69.6149 246.854 69.2956 246.709 68.9129C246.567 68.531 246.552 68.096 246.662 67.6078C246.757 67.1875 246.913 66.8575 247.13 66.6177C247.347 66.3779 247.609 66.2058 247.914 66.1015C248.22 65.9972 248.55 65.9409 248.905 65.9328C249.265 65.9221 249.63 65.9382 250 65.9812C250.447 66.0344 250.81 66.0739 251.09 66.0996C251.37 66.1221 251.581 66.1084 251.721 66.0586C251.865 66.0062 251.956 65.896 251.994 65.7278L252.001 65.6988C252.083 65.3334 252.039 65.0261 251.868 64.7767C251.696 64.5274 251.407 64.3568 250.999 64.2648C250.569 64.1678 250.207 64.1845 249.913 64.3151C249.621 64.4465 249.403 64.63 249.258 64.8657L247.672 64.2629C247.903 63.8395 248.202 63.5094 248.568 63.2726C248.935 63.0326 249.35 62.8852 249.815 62.8303C250.28 62.7721 250.772 62.8018 251.293 62.9193C251.652 63.0003 252 63.1229 252.336 63.2873C252.673 63.4516 252.966 63.664 253.217 63.9243C253.468 64.1815 253.645 64.495 253.749 64.8649C253.855 65.2356 253.853 65.6682 253.741 66.1629L252.616 71.1483L250.928 70.7674L251.159 69.7441L251.101 69.731C250.948 69.9138 250.754 70.0738 250.519 70.2111C250.288 70.3459 250.014 70.4354 249.699 70.4796C249.387 70.5214 249.037 70.4985 248.649 70.4109ZM249.396 69.2238C249.748 69.3033 250.07 69.3028 250.36 69.2222C250.65 69.1383 250.892 68.9956 251.083 68.7942C251.278 68.5936 251.406 68.3558 251.468 68.081L251.666 67.2032C251.601 67.2361 251.498 67.2569 251.357 67.2658C251.219 67.2754 251.065 67.2765 250.897 67.2692C250.729 67.2618 250.563 67.2515 250.4 67.2384C250.236 67.2253 250.094 67.2137 249.974 67.2035C249.704 67.18 249.457 67.1853 249.232 67.2194C249.007 67.2535 248.818 67.3299 248.665 67.4483C248.514 67.5636 248.412 67.7344 248.361 67.9607C248.288 68.284 248.351 68.5547 248.55 68.7729C248.749 68.991 249.031 69.1414 249.396 69.2238ZM257.598 72.4255C256.854 72.2577 256.252 71.9503 255.793 71.5034C255.336 71.0572 255.029 70.5138 254.871 69.8734C254.717 69.2305 254.725 68.5324 254.895 67.7791C255.066 67.0225 255.362 66.3877 255.784 65.8747C256.206 65.3584 256.719 64.9984 257.322 64.7948C257.929 64.5887 258.596 64.5677 259.324 64.7319C259.928 64.8683 260.438 65.1006 260.854 65.4288C261.273 65.7545 261.576 66.1507 261.763 66.6176C261.95 67.0813 262.003 67.5858 261.92 68.1313L260.242 67.7526C260.256 67.3784 260.161 67.0428 259.96 66.7459C259.763 66.4465 259.452 66.249 259.029 66.1534C258.67 66.0724 258.333 66.0983 258.017 66.231C257.703 66.3604 257.429 66.5874 257.196 66.912C256.966 67.2373 256.795 67.6505 256.682 68.1517C256.567 68.6593 256.543 69.1125 256.609 69.5114C256.676 69.9071 256.822 70.2338 257.045 70.4916C257.273 70.7469 257.57 70.9157 257.935 70.9982C258.194 71.0566 258.436 71.0602 258.661 71.0092C258.891 70.9557 259.096 70.8509 259.278 70.6947C259.459 70.5386 259.606 70.3322 259.718 70.0755L261.396 70.4542C261.235 70.9717 260.975 71.4039 260.614 71.7507C260.255 72.0943 259.818 72.3286 259.304 72.4538C258.79 72.5758 258.222 72.5664 257.598 72.4255ZM262.263 73.3256L263.944 65.8766L265.7 66.2729L264.019 73.7219L262.263 73.3256ZM265.066 65.0186C264.787 64.9559 264.569 64.8097 264.41 64.5802C264.252 64.3475 264.203 64.1001 264.262 63.8383C264.321 63.5732 264.472 63.3711 264.714 63.232C264.957 63.0898 265.218 63.05 265.496 63.1128C265.777 63.1762 265.995 63.324 266.15 63.556C266.309 63.7856 266.358 64.0329 266.298 64.298C266.239 64.5599 266.088 64.7619 265.846 64.9042C265.607 65.044 265.347 65.0821 265.066 65.0186ZM267.933 74.7635C267.461 74.6569 267.055 74.4769 266.715 74.2234C266.379 73.9674 266.138 73.6481 265.993 73.2655C265.852 72.8836 265.836 72.4485 265.946 71.9603C266.041 71.54 266.197 71.21 266.415 70.9702C266.632 70.7304 266.893 70.5584 267.199 70.4541C267.504 70.3497 267.835 70.2935 268.19 70.2853C268.549 70.2746 268.914 70.2908 269.285 70.3337C269.732 70.3869 270.095 70.4264 270.374 70.4522C270.655 70.4747 270.865 70.461 271.005 70.4111C271.15 70.3588 271.241 70.2485 271.279 70.0804L271.285 70.0513C271.368 69.686 271.323 69.3786 271.152 69.1293C270.981 68.8799 270.691 68.7093 270.284 68.6174C269.854 68.5203 269.492 68.5371 269.197 68.6677C268.906 68.799 268.688 68.9825 268.543 69.2182L266.956 68.6155C267.188 68.192 267.486 67.8619 267.852 67.6252C268.219 67.3852 268.635 67.2377 269.099 67.1828C269.564 67.1247 270.057 67.1543 270.577 67.2718C270.936 67.3528 271.284 67.4755 271.621 67.6398C271.957 67.8041 272.251 68.0165 272.501 68.2769C272.752 68.534 272.93 68.8476 273.033 69.2175C273.14 69.5881 273.137 70.0208 273.026 70.5154L271.9 75.5008L270.213 75.1199L270.444 74.0966L270.385 74.0835C270.232 74.2663 270.038 74.4264 269.803 74.5637C269.572 74.6984 269.299 74.7879 268.983 74.8322C268.671 74.8739 268.321 74.851 267.933 74.7635ZM268.68 73.5764C269.033 73.6559 269.354 73.6553 269.644 73.5747C269.935 73.4908 270.176 73.3482 270.368 73.1468C270.562 72.9461 270.691 72.7084 270.753 72.4335L270.951 71.5558C270.886 71.5886 270.782 71.6095 270.641 71.6184C270.503 71.628 270.35 71.6291 270.182 71.6217C270.013 71.6143 269.848 71.6041 269.684 71.5909C269.521 71.5778 269.379 71.5662 269.259 71.5561C268.989 71.5325 268.741 71.5378 268.516 71.572C268.291 71.6061 268.102 71.6824 267.95 71.8009C267.798 71.9161 267.697 72.0869 267.645 72.3132C267.573 72.6365 267.635 72.9073 267.834 73.1254C268.033 73.3436 268.315 73.4939 268.68 73.5764ZM280.79 71.748L279.15 71.5614C279.141 71.3895 279.096 71.2197 279.015 71.0519C278.938 70.8848 278.815 70.7365 278.647 70.6068C278.479 70.4772 278.259 70.3818 277.988 70.3205C277.623 70.238 277.297 70.2479 277.013 70.3501C276.731 70.4531 276.564 70.631 276.51 70.8839C276.458 71.0998 276.497 71.2939 276.628 71.4662C276.763 71.6392 277.009 71.812 277.368 71.9847L278.577 72.5431C279.247 72.8541 279.717 73.2132 279.985 73.6203C280.257 74.0281 280.334 74.4992 280.217 75.0333C280.108 75.5014 279.877 75.8842 279.524 76.1818C279.176 76.4769 278.739 76.6706 278.216 76.7631C277.692 76.8555 277.12 76.8317 276.499 76.6916C275.587 76.4858 274.896 76.1294 274.426 75.6224C273.957 75.1122 273.746 74.5023 273.794 73.7928L275.544 74.0143C275.545 74.3681 275.653 74.6591 275.866 74.8873C276.08 75.1156 276.389 75.2754 276.793 75.3666C277.21 75.4607 277.564 75.4506 277.855 75.3361C278.149 75.2224 278.324 75.0395 278.381 74.7873C278.429 74.5739 278.387 74.3791 278.253 74.2029C278.123 74.0274 277.895 73.8637 277.569 73.712L276.359 73.1585C275.678 72.8485 275.206 72.4787 274.942 72.0489C274.68 71.6159 274.612 71.1282 274.737 70.5858C274.838 70.126 275.052 69.7564 275.38 69.4771C275.712 69.1953 276.125 69.0133 276.62 68.9312C277.118 68.8465 277.664 68.8713 278.259 69.0056C279.132 69.2026 279.777 69.5436 280.194 70.0285C280.615 70.5141 280.813 71.0873 280.79 71.748ZM283.918 81.1488L286.229 70.9065L287.956 71.2961L287.678 72.5279L287.78 72.5509C287.911 72.3903 288.082 72.2267 288.293 72.0603C288.505 71.8906 288.767 71.7647 289.082 71.6827C289.396 71.5975 289.772 71.6041 290.209 71.7026C290.784 71.8325 291.27 72.0967 291.666 72.4953C292.066 72.8913 292.337 73.4062 292.479 74.0397C292.626 74.6707 292.605 75.4001 292.419 76.2278C292.234 77.0457 291.943 77.7106 291.545 78.2222C291.148 78.7339 290.684 79.0879 290.154 79.2843C289.624 79.4806 289.066 79.5127 288.481 79.3806C288.054 79.2843 287.716 79.1333 287.467 78.9275C287.218 78.7218 287.03 78.4994 286.904 78.2603C286.782 78.0186 286.694 77.7967 286.641 77.5945L286.569 77.5781L285.673 81.545L283.918 81.1488ZM287.11 75.0195C287.002 75.5012 286.974 75.9385 287.028 76.3312C287.086 76.7247 287.221 77.0525 287.433 77.3145C287.65 77.5741 287.944 77.7458 288.316 77.8298C288.704 77.9173 289.052 77.8872 289.361 77.7394C289.67 77.5883 289.932 77.3467 290.146 77.0145C290.364 76.6799 290.526 76.2797 290.631 75.8142C290.736 75.3518 290.762 74.9263 290.71 74.5375C290.659 74.1487 290.525 73.8229 290.309 73.5601C290.093 73.2973 289.79 73.1218 289.399 73.0335C289.023 72.9489 288.683 72.9756 288.376 73.1137C288.07 73.2518 287.809 73.4834 287.593 73.8083C287.38 74.1341 287.219 74.5378 287.11 75.0195ZM296.3 81.1607C295.572 80.9965 294.978 80.6942 294.517 80.2537C294.056 79.8133 293.743 79.2721 293.579 78.6302C293.417 77.989 293.424 77.2837 293.597 76.5142C293.771 75.7448 294.069 75.1035 294.49 74.5905C294.915 74.0781 295.43 73.7222 296.036 73.5225C296.642 73.3228 297.308 73.3051 298.036 73.4693C298.763 73.6334 299.358 73.9358 299.819 74.3762C300.28 74.8167 300.591 75.3592 300.751 76.0035C300.915 76.6487 300.91 77.356 300.736 78.1254C300.562 78.8949 300.263 79.5342 299.839 80.0433C299.419 80.5531 298.905 80.9078 298.3 81.1075C297.694 81.3072 297.027 81.3249 296.3 81.1607ZM296.627 79.7565C297.021 79.8456 297.376 79.8117 297.69 79.6549C298.004 79.4949 298.268 79.2452 298.48 78.9058C298.696 78.5672 298.855 78.1715 298.957 77.7189C299.06 77.263 299.087 76.8358 299.038 76.4374C298.992 76.0364 298.862 75.696 298.646 75.4163C298.431 75.1367 298.126 74.9523 297.731 74.8633C297.327 74.7721 296.966 74.8061 296.648 74.9654C296.333 75.1254 296.068 75.3763 295.851 75.7182C295.639 76.0576 295.481 76.4552 295.378 76.9111C295.276 77.3637 295.248 77.7889 295.294 78.1867C295.344 78.5852 295.476 78.9243 295.692 79.2039C295.911 79.4811 296.223 79.6653 296.627 79.7565ZM301.392 82.1571L303.073 74.7082L304.775 75.0923L304.495 76.3338L304.573 76.3514C304.806 75.952 305.113 75.6732 305.496 75.5148C305.882 75.354 306.288 75.3217 306.715 75.418C306.812 75.4399 306.919 75.4692 307.037 75.5059C307.158 75.5401 307.257 75.5744 307.335 75.6088L306.97 77.2237C306.902 77.1811 306.789 77.1318 306.631 77.0759C306.478 77.0175 306.327 76.9716 306.178 76.938C305.858 76.8657 305.555 76.8703 305.268 76.9517C304.985 77.0306 304.744 77.1748 304.544 77.3845C304.343 77.5941 304.207 77.8573 304.136 78.1742L303.148 82.5534L301.392 82.1571ZM314.191 74.608L311.95 84.54L310.194 84.1438L312.436 74.2118L314.191 74.608ZM315.864 85.5816C315.392 85.4751 314.986 85.295 314.646 85.0416C314.31 84.7856 314.069 84.4662 313.924 84.0836C313.783 83.7017 313.767 83.2667 313.877 82.7785C313.972 82.3582 314.128 82.0281 314.346 81.7884C314.563 81.5486 314.824 81.3765 315.13 81.2722C315.435 81.1679 315.766 81.1116 316.121 81.1035C316.48 81.0928 316.845 81.1089 317.216 81.1518C317.663 81.2051 318.026 81.2446 318.305 81.2703C318.586 81.2928 318.796 81.2791 318.936 81.2293C319.081 81.1769 319.172 81.0667 319.21 80.8985L319.216 80.8694C319.299 80.5041 319.254 80.1968 319.083 79.9474C318.912 79.6981 318.622 79.5274 318.215 79.4355C317.785 79.3384 317.423 79.3552 317.128 79.4858C316.837 79.6171 316.619 79.8007 316.474 80.0364L314.887 79.4336C315.119 79.0102 315.417 78.6801 315.784 78.4433C316.15 78.2033 316.566 78.0558 317.03 78.0009C317.495 77.9428 317.988 77.9725 318.508 78.09C318.867 78.171 319.215 78.2936 319.552 78.458C319.888 78.6223 320.182 78.8346 320.432 79.095C320.684 79.3522 320.861 79.6657 320.964 80.0356C321.071 80.4063 321.068 80.8389 320.957 81.3336L319.831 86.319L318.144 85.938L318.375 84.9148L318.317 84.9016C318.163 85.0845 317.969 85.2445 317.734 85.3818C317.503 85.5166 317.23 85.6061 316.914 85.6503C316.602 85.6921 316.252 85.6692 315.864 85.5816ZM316.611 84.3945C316.964 84.474 317.285 84.4735 317.575 84.3928C317.866 84.309 318.107 84.1663 318.299 83.9649C318.493 83.7642 318.622 83.5265 318.684 83.2517L318.882 82.3739C318.817 82.4068 318.714 82.4276 318.572 82.4365C318.434 82.4461 318.281 82.4472 318.113 82.4398C317.945 82.4325 317.779 82.4222 317.615 82.4091C317.452 82.396 317.31 82.3843 317.19 82.3742C316.92 82.3507 316.672 82.356 316.447 82.3901C316.222 82.4242 316.033 82.5005 315.881 82.619C315.729 82.7343 315.628 82.9051 315.577 83.1314C315.504 83.4547 315.566 83.7254 315.765 83.9436C315.964 84.1617 316.246 84.312 316.611 84.3945ZM222.332 84.8161L224.013 77.3671L225.768 77.7633L224.087 85.2123L222.332 84.8161ZM225.134 76.5091C224.856 76.4464 224.638 76.3002 224.479 76.0707C224.321 75.8379 224.271 75.5906 224.33 75.3287C224.39 75.0636 224.541 74.8615 224.783 74.7225C225.026 74.5802 225.286 74.5405 225.564 74.6032C225.845 74.6667 226.064 74.8145 226.218 75.0465C226.377 75.276 226.427 75.5233 226.367 75.7884C226.308 76.0503 226.157 76.2524 225.914 76.3947C225.675 76.5345 225.415 76.5726 225.134 76.5091ZM228.633 81.6514L227.648 86.016L225.892 85.6198L227.574 78.1708L229.252 78.5495L228.966 79.8153L229.053 79.835C229.319 79.4566 229.667 79.1868 230.097 79.0258C230.531 78.8654 231.026 78.848 231.582 78.9735C232.096 79.0896 232.519 79.3006 232.851 79.6065C233.186 79.9132 233.411 80.2988 233.527 80.7633C233.647 81.2285 233.638 81.7582 233.5 82.3524L232.43 87.0953L230.674 86.699L231.683 82.2277C231.796 81.7298 231.754 81.311 231.559 80.9714C231.367 80.6325 231.045 80.4119 230.592 80.3098C230.285 80.2404 229.997 80.2467 229.727 80.3285C229.461 80.4077 229.231 80.5581 229.039 80.7797C228.849 81.0019 228.714 81.2925 228.633 81.6514ZM239.669 80.9006L239.362 82.2585L234.959 81.2647L235.265 79.9068L239.669 80.9006ZM234.685 87.6042L236.525 79.4521C236.638 78.9509 236.835 78.5572 237.117 78.2709C237.403 77.9853 237.74 77.7999 238.13 77.7145C238.519 77.6292 238.929 77.635 239.359 77.7321C239.663 77.8007 239.928 77.8859 240.153 77.9876C240.378 78.0894 240.543 78.1724 240.647 78.2368L239.991 79.5158C239.922 79.4764 239.833 79.4326 239.725 79.3845C239.618 79.3331 239.495 79.2917 239.356 79.2603C239.029 79.1866 238.78 79.2136 238.609 79.3414C238.441 79.4667 238.324 79.6748 238.259 79.9658L236.445 88.0016L234.685 87.6042ZM242.298 89.4756C241.571 89.3114 240.977 89.0091 240.515 88.5686C240.054 88.1281 239.741 87.5869 239.577 86.945C239.416 86.3039 239.422 85.5986 239.596 84.8291C239.77 84.0596 240.067 83.4184 240.489 82.9053C240.914 82.393 241.429 82.037 242.035 81.8373C242.64 81.6377 243.307 81.6199 244.034 81.7841C244.762 81.9483 245.356 82.2506 245.817 82.6911C246.279 83.1316 246.589 83.674 246.75 84.3184C246.913 84.9635 246.908 85.6708 246.735 86.4403C246.561 87.2098 246.262 87.849 245.838 88.3581C245.417 88.8679 244.904 89.2227 244.298 89.4224C243.692 89.622 243.026 89.6398 242.298 89.4756ZM242.626 88.0714C243.02 88.1604 243.374 88.1265 243.688 87.9698C244.003 87.8097 244.267 87.56 244.479 87.2207C244.695 86.882 244.854 86.4864 244.956 86.0337C245.059 85.5779 245.086 85.1507 245.036 84.7522C244.991 84.3512 244.86 84.0109 244.645 83.7312C244.429 83.4515 244.124 83.2672 243.73 83.1781C243.326 83.0869 242.965 83.121 242.647 83.2802C242.332 83.4403 242.067 83.6912 241.85 84.0331C241.638 84.3725 241.48 84.7701 241.377 85.226C241.275 85.6786 241.247 86.1038 241.293 86.5015C241.342 86.9 241.475 87.2391 241.69 87.5188C241.91 87.796 242.221 87.9802 242.626 88.0714ZM247.391 90.472L249.072 83.023L250.774 83.4072L250.494 84.6487L250.571 84.6662C250.804 84.2669 251.112 83.988 251.494 83.8297C251.88 83.6688 252.287 83.6365 252.714 83.7329C252.811 83.7548 252.918 83.7841 253.035 83.8207C253.157 83.8549 253.256 83.8892 253.333 83.9237L252.969 85.5386C252.9 85.4959 252.787 85.4467 252.63 85.3908C252.477 85.3324 252.326 85.2864 252.177 85.2528C251.857 85.1806 251.554 85.1852 251.267 85.2665C250.984 85.3454 250.742 85.4897 250.542 85.6993C250.342 85.909 250.206 86.1722 250.135 86.489L249.146 90.8682L247.391 90.472ZM252.805 91.6941L254.486 84.2451L256.164 84.6238L255.879 85.8896L255.966 85.9093C256.218 85.5175 256.55 85.2425 256.963 85.0843C257.376 84.9228 257.832 84.8982 258.33 85.0106C258.834 85.1245 259.232 85.3433 259.522 85.6671C259.817 85.9883 259.987 86.3752 260.035 86.8276L260.112 86.8451C260.371 86.4685 260.723 86.2015 261.17 86.0441C261.621 85.8841 262.116 85.8651 262.656 85.987C263.341 86.1417 263.852 86.4845 264.187 87.0155C264.522 87.5466 264.596 88.2275 264.409 89.0584L263.28 94.0583L261.52 93.661L262.587 88.9327C262.692 88.4703 262.645 88.1047 262.447 87.8359C262.251 87.5638 261.974 87.3877 261.619 87.3074C261.195 87.2118 260.834 87.2696 260.535 87.4807C260.24 87.6893 260.045 88.0037 259.95 88.424L258.901 93.07L257.18 92.6814L258.263 87.8803C258.35 87.4955 258.303 87.1621 258.122 86.88C257.944 86.5987 257.669 86.416 257.298 86.3321C257.045 86.2752 256.801 86.2881 256.565 86.3707C256.33 86.4501 256.124 86.5923 255.949 86.7973C255.774 86.9992 255.652 87.2536 255.583 87.5608L254.561 92.0903L252.805 91.6941ZM267.171 95.0945C266.699 94.9879 266.293 94.8079 265.952 94.5544C265.616 94.2984 265.376 93.9791 265.231 93.5965C265.089 93.2146 265.074 92.7795 265.184 92.2913C265.279 91.871 265.435 91.541 265.652 91.3012C265.869 91.0614 266.131 90.8894 266.436 90.7851C266.742 90.6807 267.072 90.6245 267.427 90.6163C267.787 90.6056 268.152 90.6218 268.522 90.6647C268.969 90.718 269.332 90.7574 269.612 90.7832C269.892 90.8057 270.103 90.792 270.243 90.7421C270.387 90.6898 270.478 90.5795 270.516 90.4114L270.523 90.3823C270.605 90.017 270.561 89.7096 270.39 89.4603C270.218 89.2109 269.929 89.0403 269.521 88.9484C269.091 88.8513 268.729 88.8681 268.435 88.9987C268.143 89.13 267.925 89.3135 267.78 89.5492L266.194 88.9465C266.425 88.5231 266.724 88.1929 267.09 87.9562C267.457 87.7162 267.872 87.5687 268.337 87.5138C268.802 87.4557 269.294 87.4853 269.815 87.6028C270.174 87.6838 270.522 87.8065 270.858 87.9708C271.195 88.1351 271.488 88.3475 271.739 88.6079C271.99 88.865 272.167 89.1786 272.271 89.5485C272.377 89.9191 272.375 90.3518 272.263 90.8464L271.138 95.8318L269.45 95.4509L269.681 94.4276L269.623 94.4145C269.47 94.5973 269.276 94.7574 269.041 94.8947C268.81 95.0294 268.536 95.1189 268.221 95.1632C267.909 95.2049 267.559 95.182 267.171 95.0945ZM267.918 93.9074C268.27 93.9869 268.592 93.9863 268.882 93.9057C269.172 93.8218 269.414 93.6792 269.605 93.4778C269.8 93.2771 269.928 93.0394 269.99 92.7645L270.188 91.8868C270.123 91.9196 270.02 91.9405 269.879 91.9494C269.741 91.959 269.587 91.9601 269.419 91.9527C269.251 91.9453 269.085 91.9351 268.922 91.9219C268.758 91.9088 268.616 91.8972 268.496 91.8871C268.226 91.8635 267.979 91.8688 267.754 91.903C267.529 91.9371 267.34 92.0134 267.187 92.1319C267.036 92.2471 266.934 92.4179 266.883 92.6442C266.81 92.9675 266.873 93.2383 267.072 93.4564C267.271 93.6746 267.553 93.8249 267.918 93.9074ZM276.12 97.1091C275.376 96.9413 274.774 96.6339 274.315 96.1869C273.858 95.7407 273.551 95.1974 273.393 94.557C273.239 93.914 273.247 93.2159 273.417 92.4626C273.588 91.7061 273.884 91.0713 274.306 90.5582C274.728 90.0419 275.241 89.682 275.844 89.4784C276.451 89.2722 277.118 89.2512 277.846 89.4154C278.45 89.5519 278.96 89.7842 279.376 90.1123C279.795 90.438 280.098 90.8343 280.285 91.3012C280.472 91.7648 280.525 92.2694 280.442 92.8148L278.764 92.4361C278.778 92.0619 278.683 91.7264 278.482 91.4295C278.285 91.1301 277.974 90.9326 277.551 90.837C277.192 90.756 276.855 90.7818 276.539 90.9145C276.225 91.044 275.951 91.271 275.718 91.5956C275.488 91.9209 275.317 92.3341 275.204 92.8352C275.089 93.3428 275.065 93.796 275.131 94.1949C275.198 94.5906 275.343 94.9173 275.567 95.1751C275.795 95.4304 276.092 95.5993 276.457 95.6817C276.716 95.7401 276.958 95.7438 277.183 95.6928C277.413 95.6392 277.618 95.5344 277.8 95.3783C277.981 95.2221 278.128 95.0157 278.24 94.7591L279.918 95.1378C279.757 95.6553 279.497 96.0874 279.136 96.4342C278.777 96.7778 278.34 97.0122 277.826 97.1374C277.312 97.2594 276.744 97.2499 276.12 97.1091ZM280.785 98.0092L282.466 90.5602L284.222 90.9564L282.541 98.4054L280.785 98.0092ZM283.588 89.7022C283.309 89.6394 283.091 89.4933 282.932 89.2638C282.774 89.031 282.725 88.7837 282.784 88.5218C282.843 88.2567 282.994 88.0546 283.236 87.9156C283.479 87.7733 283.74 87.7335 284.018 87.7963C284.299 87.8598 284.517 88.0075 284.672 88.2396C284.831 88.4691 284.88 88.7164 284.82 88.9815C284.761 89.2434 284.61 89.4455 284.368 89.5878C284.129 89.7275 283.869 89.7657 283.588 89.7022ZM287.562 99.6917C286.835 99.5275 286.24 99.2252 285.779 98.7847C285.318 98.3442 285.005 97.8031 284.841 97.1612C284.68 96.52 284.686 95.8147 284.86 95.0452C285.033 94.2758 285.331 93.6345 285.753 93.1215C286.178 92.6091 286.693 92.2531 287.298 92.0535C287.904 91.8538 288.571 91.8361 289.298 92.0002C290.026 92.1644 290.62 92.4668 291.081 92.9072C291.542 93.3477 291.853 93.8901 292.014 94.5345C292.177 95.1797 292.172 95.887 291.998 96.6564C291.825 97.4259 291.526 98.0652 291.102 98.5743C290.681 99.0841 290.168 99.4388 289.562 99.6385C288.956 99.8382 288.29 99.8559 287.562 99.6917ZM287.889 98.2875C288.284 98.3765 288.638 98.3427 288.952 98.1859C289.267 98.0259 289.53 97.7762 289.743 97.4368C289.959 97.0981 290.118 96.7025 290.22 96.2499C290.323 95.794 290.349 95.3668 290.3 94.9683C290.255 94.5674 290.124 94.227 289.909 93.9473C289.693 93.6676 289.388 93.4833 288.994 93.3943C288.59 93.3031 288.229 93.3371 287.911 93.4964C287.596 93.6564 287.33 93.9073 287.114 94.2492C286.901 94.5886 286.744 94.9862 286.641 95.4421C286.539 95.8947 286.511 96.3199 286.557 96.7177C286.606 97.1162 286.738 97.4552 286.954 97.7349C287.173 98.0121 287.485 98.1963 287.889 98.2875ZM288.823 90.9655L290.41 88.9944L292.127 89.3819L290.138 91.2621L288.823 90.9655ZM295.395 96.7197L294.41 101.084L292.654 100.688L294.336 93.2391L296.014 93.6179L295.728 94.8836L295.815 94.9033C296.081 94.5249 296.429 94.2552 296.859 94.0941C297.293 93.9338 297.788 93.9164 298.344 94.0419C298.858 94.1579 299.281 94.3689 299.613 94.6749C299.948 94.9815 300.174 95.3671 300.29 95.8316C300.409 96.2968 300.4 96.8265 300.262 97.4207L299.192 102.164L297.436 101.767L298.445 97.296C298.558 96.7981 298.516 96.3794 298.321 96.0397C298.129 95.7008 297.807 95.4803 297.354 95.3781C297.047 95.3088 296.759 95.315 296.489 95.3968C296.223 95.4761 295.993 95.6265 295.801 95.848C295.611 96.0703 295.476 96.3609 295.395 96.7197ZM305.366 93.1193L303.624 100.096L302.062 99.7433L303.49 92.6957L305.366 93.1193ZM302.16 102.946C301.866 102.879 301.637 102.719 301.473 102.465C301.313 102.211 301.267 101.935 301.334 101.638C301.399 101.347 301.559 101.121 301.813 100.961C302.069 100.802 302.345 100.755 302.639 100.822C302.927 100.886 303.153 101.046 303.316 101.3C303.483 101.556 303.533 101.829 303.468 102.12C303.423 102.317 303.332 102.485 303.196 102.624C303.062 102.764 302.904 102.864 302.72 102.924C302.541 102.982 302.354 102.989 302.16 102.946Z" fill="white"/>
<path d="M271.33 141.706C274.683 142.398 277.312 146.599 276.25 151.744C277.312 146.599 281.389 143.782 284.741 144.474C281.389 143.782 278.76 139.581 279.821 134.437C278.76 139.581 274.683 142.398 271.33 141.706Z" fill="#FFD400"/>
<path d="M276.015 152.884C275.386 152.754 274.981 152.137 275.111 151.508C275.86 147.879 274.425 143.534 271.095 142.847C270.467 142.717 270.061 142.1 270.191 141.471C270.321 140.842 270.937 140.436 271.565 140.566C274.896 141.253 277.933 137.831 278.682 134.202C278.812 133.573 279.429 133.167 280.057 133.297C280.685 133.426 281.091 134.043 280.961 134.672C280.212 138.302 281.647 142.647 284.977 143.334C285.605 143.464 286.011 144.08 285.881 144.709C285.751 145.338 285.134 145.744 284.506 145.614C281.176 144.927 278.138 148.349 277.389 151.979C277.26 152.608 276.643 153.014 276.015 152.884ZM274.96 142.455C276.019 143.506 276.862 144.93 277.306 146.625C278.389 145.245 279.723 144.271 281.112 143.725C280.053 142.674 279.21 141.25 278.765 139.555C277.683 140.935 276.348 141.91 274.96 142.455Z" fill="#2D3473"/>
<path d="M217.678 33.6337C217.002 33.4869 216.572 32.8173 216.719 32.1409C217.925 26.5896 223.415 23.0553 228.962 24.26C229.645 24.4083 230.309 24.626 230.945 24.9037C231.577 25.1841 231.864 25.9252 231.587 26.5587C231.31 27.1922 230.566 27.4783 229.933 27.2014C229.454 26.991 228.947 26.8258 228.432 26.714C224.238 25.8028 220.086 28.4755 219.174 32.6741C219.027 33.3505 218.357 33.7813 217.682 33.6345L217.678 33.6337Z" fill="#2D3473"/>
<path d="M212.349 35.0048C211.764 34.8777 211.337 34.3446 211.365 33.7268C211.401 32.8319 211.516 31.932 211.707 31.0524C213.514 22.7359 221.741 17.4399 230.05 19.2448C231.073 19.4669 232.07 19.7898 233.02 20.2091C233.652 20.4895 233.942 21.2314 233.661 21.8641C233.381 22.4969 232.64 22.7872 232.007 22.5068C231.211 22.154 230.375 21.8844 229.517 21.698C222.56 20.1867 215.671 24.6211 214.158 31.5848C213.998 32.3243 213.9 33.0774 213.869 33.8268C213.84 34.5177 213.257 35.059 212.567 35.0301C212.49 35.0282 212.419 35.0165 212.349 35.0013L212.349 35.0048Z" fill="#2D3473"/>
</g>
</g>
<defs>
<filter id="filter0_dd_309_6472" x="0" y="0" width="358" height="240" filterUnits="userSpaceOnUse" color-interpolation-filters="sRGB">
<feFlood flood-opacity="0" result="BackgroundImageFix"/>
<feColorMatrix in="SourceAlpha" type="matrix" values="0 0 0 0 0 0 0 0 0 0 0 0 0 0 0 0 0 0 127 0" result="hardAlpha"/>
<feOffset dy="4"/>
<feGaussianBlur stdDeviation="2"/>
<feComposite in2="hardAlpha" operator="out"/>
<feColorMatrix type="matrix" values="0 0 0 0 0 0 0 0 0 0 0 0 0 0 0 0 0 0 0.25 0"/>
<feBlend mode="normal" in2="BackgroundImageFix" result="effect1_dropShadow_309_6472"/>
<feColorMatrix in="SourceAlpha" type="matrix" values="0 0 0 0 0 0 0 0 0 0 0 0 0 0 0 0 0 0 127 0" result="hardAlpha"/>
<feOffset dy="4"/>
<feGaussianBlur stdDeviation="2"/>
<feComposite in2="hardAlpha" operator="out"/>
<feColorMatrix type="matrix" values="0 0 0 0 0 0 0 0 0 0 0 0 0 0 0 0 0 0 0.25 0"/>
<feBlend mode="normal" in2="effect1_dropShadow_309_6472" result="effect2_dropShadow_309_6472"/>
<feBlend mode="normal" in="SourceGraphic" in2="effect2_dropShadow_309_6472" result="shape"/>
</filter>
<clipPath id="clip0_309_6472">
<rect width="182.271" height="200" fill="white" transform="translate(16.3643 16)"/>
</clipPath>
<clipPath id="clip1_309_6472">
<rect width="143" height="140" fill="white" transform="translate(198.636 16)"/>
</clipPath>
</defs>
</svg>
